<?xml version="1.0" encoding="iso-8859-1"?>
<!-- Generator: Adobe Illustrator 16.0.4, SVG Export Plug-In . SVG Version: 6.00 Build 0)  -->
<!DOCTYPE svg PUBLIC "-//W3C//DTD SVG 1.1//EN" "http://www.w3.org/Graphics/SVG/1.1/DTD/svg11.dtd">
<svg version="1.1" id="FIGURE" xmlns="http://www.w3.org/2000/svg" xmlns:xlink="http://www.w3.org/1999/xlink" x="0px" y="0px"
	 width="590.601px" height="897.908px" viewBox="0 0 590.601 897.908" style="enable-background:new 0 0 590.601 897.908;"
	 xml:space="preserve">
<g id="body">
	<path d="M240.462,141.493c12.699,42.857,58.73,60.317,63.492,104.762c4.762,34.921-11.111,84.127-49.207,92.063
		c-42.857,9.524-73.016-34.92-71.428-71.428c0-12.699,9.523-11.111,1.587-23.81c-9.523-11.111-19.047-6.35-28.571,0
		c-14.286,11.111-22.222,44.444-26.984,60.317c-11.111,47.619,1.587,98.412-4.762,147.619
		c-6.349,46.031-57.143,65.079-77.778,14.285c-25.396-61.904,7.937-173.016,42.857-228.571
		c28.571-46.032,58.73-63.492,112.698-65.079c9.524,0,44.444,6.349,46.032-9.524c1.587-17.46-30.159-9.524-41.27-11.111
		c-22.222-1.587-36.508-12.699-7.937-22.223c11.111-3.174,47.619,12.699,39.683-11.111c-9.523-26.984-69.841,15.873-61.905-30.159
		c19.048-3.175,41.27,1.587,58.73,7.937c15.873-31.746-76.19-22.222-92.063-9.524c-17.46,14.286-19.048,36.508-28.572,53.968
		c-9.523,19.048-20.635,31.746-31.746,47.619c-23.81,41.27-49.207,65.079-61.905,112.698
		c-7.937,36.508-20.635,71.429-19.048,109.524c1.587,41.27,15.873,93.65,58.73,106.349c44.444,12.698,101.587-6.349,103.174-58.73
		c0-22.222-14.286-112.698,25.397-100c41.27,12.698,23.81,84.126,26.984,114.286c6.349,80.952-4.762,171.429,20.635,249.206
		c17.46,47.619,41.27,44.444,77.777,71.429c31.746,23.81,36.508,66.667,42.857,103.175c-4.762-39.683,9.524-69.842-9.524-107.937
		c-20.635-44.444-46.032-79.365-53.968-128.571c-6.349-39.683-25.396-93.651-7.937-131.746
		c9.524-20.635,33.333-33.333,47.619-49.206c9.524-12.699,15.873-42.857,28.571-50.794c34.921-19.048,31.746,63.492,31.746,84.127
		c1.587,47.619,3.175,84.127,57.143,93.65c77.777,15.873,104.762-12.698,117.461-84.127c9.523-57.143,3.174-114.285,12.697-168.254
		c7.938-38.095,9.523-74.603-1.586-111.111c-11.111-39.683-31.746-55.556-57.145-84.127c-19.047-20.635-26.982-71.429-58.729-76.19
		c-26.984-3.175-7.938,4.762,0,15.873c7.936,11.111,17.459,22.222,19.047,36.508c-22.223,4.762-26.984-33.333-49.207-25.397
		c-19.047,7.937,26.984,28.571,28.572,39.683c9.523,34.92-17.461,4.762-25.396-1.587c-20.635-17.46-23.811-6.349-7.938,15.873
		c25.396,36.508,66.668-12.698,87.303,28.571c7.936,15.873,23.809,38.095,28.57,55.556c3.176,17.46,0,60.318,3.176,77.78
		c-0.031,7.987-7.551,15.442-9.857,22.58c-3.463,10.717-3.418,20.331-1.695,31.392c2.012,12.921,4.359,25.957,3.615,39.595
		c-1.518,27.816-4.91,56.196-11.469,82.622c-5.006,20.159-15.793,48.285-34.607,58.686c-26.148,14.453-47.789-13.187-56.787-35.266
		c-15.057-36.94-4.301-78.999,1.193-115.565c2.762-18.373,7.992-36.155,8.02-55.474c0.031-22.587-5.492-29.123-19.363-44.241
		c-12.02,7.231-12.961,26.919-25.045,32.814c-9.798,4.78-26.983-6.595-37.742-7.657c-9.785-0.965-34.737,6.44-41.649,2.965
		c-18.865-9.483,8.263-27.838,12.642-36.344c13.9-26.996,6.856-46.276,2.872-74.168c-3.716-26.015,35.584-43.927,54.316-57.061
		c16.205-11.362,23.463-21.463,30.158-38.53c5.688-14.496,4.467-28.034,9.121-42.862c6.213-19.795,1.043-44.946-13.824-58.667
		c-7.816-7.212-41.753-25.979-57.927-26.344c-23.877-0.538-47.869,5.782-68.447,17.889
		C249.522,45.345,226.806,93.293,240.462,141.493z"/>
	<g>
		<path d="M238.051,142.158c6.428,20.99,21.017,36.903,35.365,52.889c7.175,7.995,14.114,16.201,19.501,25.536
			c5.594,9.695,8.267,20.262,9.121,31.358c3.047,39.604-21.861,94.929-69.946,83.881c-21.332-4.901-36.29-24.477-42.801-44.363
			c-2.923-8.928-6.091-22.5-2.053-31.48c1.35-3,3.151-5.317,3.326-8.723c0.273-5.331-3.958-10.547-7.787-13.638
			c-8.647-6.984-20.477-2.586-28.21,3.696c-7.409,6.018-11.894,15.149-15.466,23.799c-9.113,22.063-15.059,45.6-16.542,69.421
			c-1.95,31.309,2.137,62.641,1.255,93.968c-0.619,22.015-3.48,46.312-23.671,59.298c-16.251,10.451-34.396,3.653-44.725-11.411
			c-12.207-17.802-14.834-41.711-15.034-62.711c-0.46-48.315,13.643-97.747,33.352-141.512c17.122-38.02,41.678-77.185,83.2-91.004
			c18.663-6.211,38.406-7.551,57.877-6.158c11.487,0.822,36.332,2.602,36.128-14.679c-0.193-16.423-26.973-12.034-36.938-11.638
			c-8.575,0.34-18.625-0.633-25.963-5.398c-8.531-5.539,11.235-12.43,15.459-12.429c6.392,0.003,12.791,1.568,19.123,2.303
			c5.162,0.599,11.402,1.139,15.993-1.814c4.922-3.167,4.176-9.513,2.668-14.327c-1.557-4.973-5.421-8.381-10.189-10.153
			c-10.392-3.861-23.048-0.049-33.681,0.73c-4.782,0.351-10.206,0.553-14.442-2.047c-5.505-3.379-4.449-12.073-3.592-17.36
			c-0.582,0.582-1.164,1.164-1.746,1.746c19.318-2.978,39.238,1.431,57.401,7.937c0.983,0.352,2.369-0.204,2.823-1.149
			c13.703-28.477-40.008-25.661-54.052-24.21c-12.872,1.33-27.076,3.337-38.666,9.478c-8.13,4.307-13.826,13.294-17.788,21.274
			c-5.265,10.607-8.017,22.254-13.167,32.914c-6.093,12.61-14.004,24.114-22.295,35.353c-8.319,11.277-15.481,23.064-23.145,34.779
			c-14.022,21.434-29.457,41.919-39.95,65.433c-5.82,13.042-9.35,26.496-12.685,40.328c-3.564,14.782-7.582,29.45-10.78,44.319
			c-5.561,25.848-7.093,51.743-3.064,77.912c3.21,20.856,9.957,41.985,22.75,59.01C37.348,509.724,54.904,518.932,75.1,521.5
			c37.082,4.715,80.561-10.971,90-50.768c3.234-13.633,0.805-27.987-0.041-41.77c-0.977-15.926-1.754-32.337,1.028-48.127
			c1.938-10.996,6.933-24.618,20.584-21.701c17.836,3.812,24.792,21.2,27.225,37.412c2.758,18.373,0.821,37.264,0.072,55.715
			c-0.336,8.265-0.017,16.331,0.566,24.571c1.035,14.644,1.479,29.325,1.757,44c1.123,59.127-1.321,119.122,12.047,177.169
			c4.807,20.872,11.597,42.263,26.747,58.061c11.574,12.068,27.486,18.783,41.671,27.136c9.378,5.522,18.599,11.577,26.163,19.465
			c7.766,8.098,13.362,18.128,17.562,28.462c8.4,20.671,11.252,43.168,15.031,65.003c0.479,2.765,5.228,2.132,4.911-0.665
			c-2.993-26.406,3.434-52.991-0.463-79.277c-2.095-14.137-7.666-26.575-13.888-39.308c-6.118-12.517-12.758-24.769-19.188-37.125
			c-12.923-24.834-24.32-50.283-29.446-77.972c-4.863-26.271-11.735-52.402-14.625-78.99c-1.429-13.153-1.587-26.578,1.082-39.584
			c2.623-12.781,8.713-23.349,17.772-32.631c8.497-8.707,18.44-15.861,27.431-24.029c7.854-7.135,12.048-15.06,16.163-24.73
			c4.074-9.575,7.613-20.097,14.207-28.309c3.686-4.59,10.766-8.443,16.692-5.838c5.161,2.269,7.831,8.333,9.607,13.296
			c2.574,7.194,3.783,14.898,4.65,22.46c3.697,32.238-1.414,65.308,6.278,97.135c4.017,16.624,13.45,30.484,28.692,38.618
			c9.725,5.19,20.561,7.354,31.297,9.332c10.371,1.91,20.902,3.141,31.455,3.235c15.893,0.142,32.129-3.002,45.4-12.129
			c12.721-8.749,20.904-22.144,26.66-36.186c8.818-21.512,12.385-45.196,14.646-68.178c3.184-32.342,2.65-64.905,4.463-97.327
			c0.906-16.233,2.412-32.506,5.607-48.461c3.012-15.034,4.965-30.294,5.541-45.619c1.08-28.713-3.846-58.36-15.799-84.591
			c-9.623-21.111-25.92-37.656-41.49-54.43c-7.07-7.614-13.4-14.96-18.381-24.111c-4.717-8.667-8.654-17.738-13.127-26.53
			c-5.141-10.105-11.115-20.329-19.943-27.664c-8.043-6.682-20.227-10.281-30.609-8.177c-9.324,1.89,3.477,12.125,5.621,14.122
			c5.07,4.718,8.9,10.57,12.885,16.194c5.32,7.511,9.973,15.636,11.207,24.897c0.611-0.804,1.223-1.607,1.834-2.411
			c-16.041,3.016-22.852-18.919-35.316-24.901c-5.707-2.739-13.619-2.216-18.34,2.253c-4.041,3.825-1.074,9.174,1.779,12.593
			c4.799,5.751,11.434,10.084,17.291,14.662c5.031,3.93,10.912,7.863,12.607,14.275c0.824,3.116,2.654,8.447,1.184,11.647
			c-0.525,1.145-4.387-1.508-4.955-1.872c-5.635-3.603-10.379-8.616-15.297-13.101c-5.107-4.657-12.092-11.371-19.447-11.531
			c-7.064-0.153-5.303,8.791-3.781,12.809c3.551,9.375,10.02,18.966,18.031,25.058c6.535,4.969,14.934,6.314,22.936,6.027
			c15.479-0.557,34.523-9.216,47.777,2.596c3.895,3.47,6.223,8.119,8.588,12.667c3.021,5.809,6.43,11.419,9.75,17.06
			c6.648,11.299,13.721,22.836,17.354,35.531c1.107,3.873,0.965,8.459,1.154,12.453c0.266,5.586,0.303,11.184,0.332,16.775
			c0.055,11.192-0.111,22.39,0.305,33.577c0.154,4.141,0.408,8.293,0.984,12.399c0.951,6.812-3.674,12.515-6.877,18.135
			c-6.549,11.49-6.148,25.771-4.275,38.412c1.164,7.855,2.504,15.664,3.219,23.579c0.752,8.306,0.285,16.554-0.285,24.852
			c-1.117,16.28-2.988,32.506-5.77,48.587c-4.264,24.643-10.305,51.985-27.006,71.501c-7.754,9.062-19.057,15.348-31.17,12.368
			c-11.225-2.761-19.76-12.787-25.803-22.029c-15.629-23.898-16.77-52.945-13.82-80.494c3.102-28.97,10.244-57.316,14.115-86.144
			c1.666-12.4,2.561-25.618-0.824-37.826c-2.518-9.082-8.723-16.348-14.896-23.203c-0.986-1.096-1.984-2.18-2.98-3.267
			c-0.73-0.796-2.123-0.979-3.029-0.391c-8.57,5.548-11.768,15.331-16.547,23.841c-2.459,4.38-6.043,9.037-11.369,9.731
			c-5.669,0.739-11.834-1.94-17.038-3.843c-4.875-1.783-9.71-3.788-14.846-4.691c-3.973-0.698-8.099-0.127-12.054,0.411
			c-9.119,1.24-19.595,4.642-28.811,3.027c-11.918-2.088-4.184-13.992,0.125-19.036c5.646-6.611,11.394-11.752,14.83-19.919
			c5.091-12.099,6.604-24.546,5.448-37.567c-0.526-5.922-1.541-11.804-2.531-17.661c-1.097-6.489-2.926-13.293-2.535-19.902
			c0.588-9.933,8.682-18.111,15.747-24.212c8.123-7.015,17.457-12.579,26.544-18.228c8.879-5.519,17.583-11.278,24.993-18.722
			c7.607-7.643,12.658-17.09,16.709-26.981c5.801-14.165,5.33-29.719,9.68-44.269c3.355-11.228,3.367-23,0.652-34.364
			c-2.453-10.275-7.896-20.589-16.002-27.507c-6.35-5.419-14.064-9.477-21.419-13.321c-8.023-4.194-16.378-7.927-25.024-10.639
			c-9.768-3.064-19.72-2.626-29.809-1.528c-24.146,2.626-47.311,12.214-66.416,27.147C242.096,54.875,226.42,99.95,238.051,142.158
			c0.855,3.104,5.68,1.785,4.821-1.329c-6.779-24.598-4.285-50.357,7.218-73.146c11.728-23.234,32.061-40.795,55.505-51.544
			c13.886-6.367,29.091-9.901,44.297-10.928c11.144-0.753,20.375,1.133,30.676,5.257c18.27,7.314,38.208,16.968,46.763,35.675
			c5.346,11.69,6.156,25.588,3.156,37.981c-1.682,6.952-3.451,13.646-4.459,20.757c-1.107,7.814-2.219,15.526-4.762,23.029
			c-3.811,11.242-10.051,21.625-18.578,29.881c-7.728,7.48-17.106,12.955-26.177,18.607c-15.352,9.566-35.633,21.402-40.104,40.42
			c-1.053,4.476-0.447,8.861,0.232,13.334c1.069,7.042,2.399,14.043,3.446,21.089c2.021,13.601,1.689,26.847-3.087,39.861
			c-3.003,8.183-7.781,13.127-13.478,19.413c-4.02,4.434-9.08,10.044-9.545,16.328c-0.445,5.997,4.066,10.704,9.542,12.494
			c6.731,2.201,15.675-0.308,22.413-1.379c7.945-1.264,15.815-3.061,23.718-0.82c8.834,2.504,17.029,7.062,26.337,7.69
			c19.156,1.292,19.951-26.038,32.726-34.307c-1.01-0.13-2.02-0.261-3.029-0.391c6.984,7.621,14.068,15.161,16.895,25.356
			c3.693,13.323,1.566,28.525-0.689,41.882c-4.764,28.228-10.926,56.331-13.607,84.875c-2.49,26.501,0.184,53.556,14.299,76.657
			c10.725,17.554,29.197,32.494,50.381,23.514c20.453-8.671,30.551-34.46,36.436-54.123c8.557-28.591,11.707-59.11,13.463-88.793
			c0.943-15.959-2.428-31.172-4.223-46.914c-0.834-7.322-0.438-14.607,1.293-21.77c1.66-6.882,6.061-12.279,8.984-18.603
			c2.039-4.413,1.889-8.01,1.361-12.634c-0.557-4.912-0.699-9.875-0.82-14.813c-0.279-11.337-0.076-22.682-0.193-34.021
			c-0.096-9.047,0.324-19.012-2.398-27.74c-3.777-12.114-10.699-23.271-17.084-34.138c-3.086-5.252-6.197-10.489-9.104-15.845
			c-2.564-4.73-4.881-9.339-8.5-13.379c-5.277-5.895-12.703-8.575-20.436-9.037c-16.324-0.976-33.598,8.254-49.246,0.347
			c-9.418-4.759-16.67-16.486-19.975-26.196c-0.846-2.485-1.789-5.205,1.551-4.229c4.699,1.373,9.029,5.383,12.629,8.487
			c4.91,4.234,9.416,8.903,14.568,12.861c3.287,2.525,8.924,6.975,13.242,4.164c5.695-3.707,1.432-14.484,0.502-19.301
			c-1.066-5.541-7.867-10.104-11.908-13.336c-6-4.799-12.438-9.186-17.791-14.736c-1.215-1.261-3.629-3.668-3.299-5.661
			c0.494-2.991,6.354-3.441,8.535-3.423c7.439,0.061,12.996,7.846,17.309,12.925c4.664,5.492,9.611,11.067,16.705,13.279
			c3.061,0.954,6.322,0.769,9.424,0.186c0.979-0.184,1.971-1.391,1.836-2.411c-1.744-13.092-8.955-23.503-16.594-33.918
			c-2.605-3.555-5.107-6.973-8.273-10.055c-2.504-2.439-5.293-4.597-7.656-7.179c-0.936-1.022-1.631,0.821-0.293,0.65
			c2.09-0.268,4.285-0.027,6.373,0.125c5.49,0.4,10.377,1.557,15.146,4.335c8.076,4.706,13.656,12.97,18.289,20.846
			c9.486,16.125,15.111,34.819,27.168,49.355c15.037,18.128,32.988,33.43,45.076,53.924c14.816,25.119,20.4,55.992,20.525,84.814
			c0.07,16.073-1.861,32.101-4.76,47.888c-2.801,15.268-4.904,30.453-6.027,45.947c-4.08,56.286,1.885,116.064-18.635,169.832
			c-5.627,14.746-14.43,28.593-28.045,37.075c-14.674,9.144-32.715,10.315-49.529,9.173c-11.686-0.795-23.51-2.78-34.865-5.629
			c-9.742-2.442-19.141-6.618-26.672-13.357c-13.59-12.159-17.125-31.16-18.705-48.465c-2.832-31.022,1.623-63.153-6.062-93.637
			c-2.564-10.171-8.095-23.56-20.532-23.396c-18.269,0.241-25.109,23.909-30.808,37.407c-1.888,4.471-3.854,8.911-6.216,13.154
			c-2.764,4.965-7.069,8.71-11.264,12.455c-9.097,8.121-18.934,15.36-27.348,24.233c-17.308,18.253-20.513,43.058-18.874,67.234
			c1.783,26.291,9.076,51.801,13.815,77.623c2.515,13.7,5.267,27.029,9.842,40.225c4.337,12.511,9.87,24.589,15.745,36.441
			c6.352,12.815,13.217,25.37,19.756,38.09c7.007,13.631,14.362,27.363,17.641,42.442c6.008,27.63-1.785,56.326,1.382,84.271
			c1.637-0.222,3.274-0.443,4.911-0.665c-3.976-22.976-7.006-46.63-16.357-68.2c-4.559-10.515-10.548-20.198-18.499-28.489
			c-7.766-8.099-17.657-14.198-27.264-19.855c-15.529-9.145-32.237-16.312-43.902-30.599
			c-16.703-20.459-21.762-49.805-25.847-75.123c-9.591-59.455-5.365-120.096-8.037-180.016c-0.469-10.527-1.735-21.053-1.685-31.593
			c0.041-8.587,0.639-17.169,1.021-25.745c0.798-17.914,1.419-36.837-4.32-54.077c-4.734-14.222-16.14-26.169-31.71-27.412
			c-12.375-0.987-18.713,10.605-21.408,20.912c-3.933,15.043-3.368,31.353-2.676,46.746c0.593,13.197,2.91,26.781,1.892,39.986
			c-3.454,44.781-53.325,61.516-91.68,54.294c-46.56-8.767-62.057-59.56-64.748-100.973c-1.972-30.347,5.337-59.648,12.726-88.82
			c3.669-14.486,6.583-29.1,11.827-43.13c4.652-12.447,10.948-24.202,17.896-35.501c6.651-10.815,13.993-21.193,21.083-31.721
			c7.75-11.506,14.508-23.671,22.706-34.852c8.24-11.237,16.573-22.327,23.315-34.56c5.831-10.58,9.53-21.784,13.857-33.007
			c3.546-9.198,8.317-17.677,15.688-24.346c3.073-2.78,7.149-4.226,11.02-5.503c11.038-3.644,22.814-5.334,34.367-6.22
			c9.52-0.729,53.686-3.04,43.942,17.208c0.941-0.383,1.882-0.766,2.823-1.149c-19.092-6.838-39.798-11.06-60.06-7.937
			c-0.766,0.118-1.623,0.984-1.746,1.746c-1.054,6.496-1.768,14.176,2.428,19.786c3.258,4.357,8.573,5.69,13.746,6.046
			c12.647,0.87,25.976-4.846,38.417-1.208c5.26,1.538,10.477,8.773,7.907,14.342c-2.362,5.117-14.314,2.398-18.363,1.827
			c-6.37-0.899-13.217-2.63-19.645-1.4c-6.314,1.208-18.51,6.385-18.288,14.373c0.203,7.258,10.759,10.169,16.231,11.455
			c8.235,1.936,16.401,1.651,24.759,1.209c6.718-0.354,17.46-1.834,22.763,3.391c2.366,2.331,1.705,6.762-0.29,9.054
			c-2.475,2.846-6.927,3.61-10.443,4.164c-8.308,1.309-17.045,0.276-25.367-0.395c-9.337-0.753-18.805,0.118-28.068,1.375
			c-19.965,2.71-39.002,9.127-55.284,21.215c-17.039,12.651-29.771,30.212-40.542,48.27c-11.26,18.876-20.046,39.265-27.458,59.922
			c-15.635,43.573-26.511,92.577-19.763,138.96c2.78,19.106,9.541,40.243,25.655,52.2c13.054,9.687,30.359,7.831,42.937-1.571
			c17.21-12.865,21.31-33.647,22.584-53.851c1.977-31.346-2.093-62.707-1.244-94.068c0.682-25.202,6.496-49.588,15.67-73.012
			c3.98-10.163,9.018-20.346,18.59-26.177c6.271-3.82,12.875-5.551,19.048-0.566c2.59,2.092,4.801,5.658,5.023,9.054
			c0.125,1.907-1.366,3.793-2.229,5.379c-4.408,8.098-2.72,19.075-1.051,27.737c1.933,10.033,6.056,19.689,11.531,28.285
			c10.788,16.938,28.438,29.031,48.863,29.467c44.245,0.945,65.156-47.74,64.574-85.494c-0.33-21.38-8.61-39.147-21.958-55.485
			c-13.821-16.916-30.353-31.609-39.394-51.923c-1.21-2.718-2.159-5.552-3.029-8.393
			C241.931,137.755,237.104,139.066,238.051,142.158z"/>
	</g>
</g>
<g id="eyes">
	
		<ellipse id="eyewhite_1_" transform="matrix(-0.9604 -0.2787 0.2787 -0.9604 577.1241 338.3314)" style="fill:#FFFFFF;stroke:#000000;stroke-width:1.0927;stroke-miterlimit:10;" cx="312.616" cy="128.134" rx="34.112" ry="66.666"/>
	
		<ellipse id="eyewhite" transform="matrix(-0.9157 0.4019 -0.4019 -0.9157 761.347 -1.8718)" style="fill:#FFFFFF;stroke:#000000;stroke-miterlimit:10;" cx="380.87" cy="78.928" rx="28.571" ry="66.667"/>
	<g id="pupil_1_">
		<g>
			<path d="M303.856,71.656c4.611,27.595,10.042,54.939,20.635,80.952c1.199,2.945,6.038,1.658,4.821-1.329
				c-10.592-26.013-16.024-53.357-20.635-80.952C308.147,67.152,303.33,68.503,303.856,71.656L303.856,71.656z"/>
		</g>
	</g>
	<g id="pupil">
		<g>
			<path d="M373.608,29.721c-1.519,29.12,1.647,58.937,14.627,85.389c1.42,2.895,5.732,0.359,4.317-2.523
				c-12.583-25.643-15.415-54.667-13.944-82.865C378.776,26.498,373.775,26.514,373.608,29.721L373.608,29.721z"/>
		</g>
	</g>
</g>
</svg>
