<?xml version="1.0" encoding="iso-8859-1"?>
<!-- Generator: Adobe Illustrator 16.0.4, SVG Export Plug-In . SVG Version: 6.00 Build 0)  -->
<!DOCTYPE svg PUBLIC "-//W3C//DTD SVG 1.1//EN" "http://www.w3.org/Graphics/SVG/1.1/DTD/svg11.dtd">
<svg version="1.1" xmlns="http://www.w3.org/2000/svg" xmlns:xlink="http://www.w3.org/1999/xlink" x="0px" y="0px"
	 width="660.493px" height="954.432px" viewBox="0 0 660.493 954.432" style="enable-background:new 0 0 660.493 954.432;"
	 xml:space="preserve">
<g id="person">
	<g id="body">
		<path d="M439.325,254.083c0.233,29.93-1.587,68.689,7.937,95.673c10.979,31.106-17.386,54.068-22.265,86.867
			c-4.583,30.808-6.992,61.681-12.61,91.716c-10.289,54.998-18.786,111.936-22.186,168.602
			c-1.604,26.73-14.267,49.074-20.369,74.604c-6.547,27.385-7.59,52.785-16.175,79.447c-4.128,12.818-6.425,30.32-12.396,42.504
			c-6.402,13.064-16.428,14.543-28.484,21.305c-10.282,5.766-21.777,14.23-32.54,18.244c-13.353,4.98-27.923,3.23-40.431,9.576
			c18.414,1.889,38.81,7.381,56.745,6.783c22.113-0.736,46.355-5.529,69.525-6.666c0.161-3.463,2.183-5.572,2.093-9.018
			c11.735-4.018,11.769-61.311,14.015-73.363c4.484-24.059,15.123-45.664,17.813-70.201c4.545-41.451,6.98-84.242,20.624-123.678
			c11.525-33.314,15.741-69.002,13.943-104.381c-0.819-16.113-0.819-16.113,9.529-31.816c5.521-8.378,31.426-1.227,39.589,3.256
			c18.545,10.182,20.559,65.529,23.545,87.213c3.729,27.092-0.865,56.725,3.445,84.045c4.35,27.574,11.662,53.232,14.404,81.035
			c2.811,28.492,4.898,60.396,4.719,88.926c-0.125,19.996,0.32,60.143-23.324,66.713c18.508-0.318,34.395,3.598,52.256,4.68
			c23.936,1.447,62.982,10.436,84.912,1.504c-19.1,0.434-33.543-10.322-50.27-14.285c-14.5-3.436-21.246,0.512-26.707-12.971
			c-2.357-5.82-1.316-15.641-1.939-21.867c-1.572-15.709-1.244-32.883-4.416-48.289c-14.051-68.242-10.385-138.715-22.928-207.695
			c-11.92-65.553-12.123-148.076,0.354-214.285c6.059-32.151-7.75-38.763,13.596-64.355c19.743-23.671,3.975-97.178,8.871-127.505
			c14.473,2.714,33.148,51.237,39.438,64.958c12.6,27.489,16.367,65.618,20.686,96.083c5.291,37.328,14.34,74.844,12.654,113.012
			c-0.713,16.119-0.434,32.312-8.33,45.986c-6.404,11.09-9.998,16.812-13.811,28.963c-2.695,8.586-20.406,27.354-6.395,25.781
			c12.135-1.359,14.193-20.562,17.854-28.518c13.578,19.363-11.109,23.232-12.92,37.412c6.9,0.592,18.525-4.672,23.211-9.631
			c6.709-7.098,4.785-12.244,9.908-19.807c4.771,12.064-0.189,23.396-9.744,32.266c22.475-3.289,25.26-54.717,25.27-72.424
			c0.02-35.664-5.523-72.289-9.133-108.018c-2.799-27.696-4.736-56.934-11.584-84.045c-6.887-27.27-16.166-53.282-20.553-80.953
			c-4.176-26.341-9.721-54.877-22.268-79.012c-19.312-37.148-43.254-0.863-72.459-6.942c7.943-26.177,0.945-60.92-7.742-85.469
			c-7.484-21.148-26.438-35.534-33.739-56.554c-5.635-16.225-9.265-26.664-25.604-36.07c-27.598-15.888-65.694-14.026-91.805,3.73
			c-39.682,26.984-23.809,85.714,17.461,103.174c19.048,6.349,44.444,7.937,63.492,3.174c22.222-7.937,33.333-22.222,49.206,4.762
			c7.938,11.111,14.285,38.095,9.523,50.793c-6.348,20.635-20.635,14.286-41.269,14.286c-50.806,0-52.208,35.036-54.829,75.918
			c-1.275,19.902-4.312,42.291-15.082,59.487c-8.542,13.639-33.726,37.452-50.371,22.246c-14.469-13.218-18.461-50.708-19.4-69.489
			c-1.533-30.651-9.562-66.53-22.222-95.238c-10.641-24.129-27.754-31.667-24.245-58.414c8.372-63.809-54.666-59.687-63.057-54.285
			c-21.013,13.527,40.456,56.597,48.967,55.316c-0.181-2.815-42.799-27.78-43.765-30.189c-2.915,10.93,29.405,48.868,43.765,30.189
			c19.287,60.557,24.486,114.438,32.339,170.087c4.036,28.598,6.804,51.703,24.69,74.951c20.104,26.13,44.834,26.314,63.845,4.409
			c5.885-6.781,6.851-9.171,14.681-15.478c7.358-5.927,10.095-13.314,15.079-21.112
			C418.674,331.206,431.108,261.118,439.325,254.083"/>
		<g>
			<path d="M436.825,254.083c0.178,26.815-1.038,53.929,3.849,80.436c2.257,12.24,7.935,23.296,6.12,36.015
				c-1.626,11.397-7.355,21.878-12.338,32.084c-5.206,10.665-9.98,21.543-11.87,33.34c-2.487,15.526-4.1,31.208-6.006,46.812
				c-3.96,32.417-10.447,64.366-15.567,96.604c-5.062,31.868-9.125,63.903-11.785,96.063c-1.3,15.718-1.805,31.106-6.076,46.387
				c-3.844,13.755-9.384,26.974-13.479,40.653c-8.744,29.214-9.729,60.069-18.864,89.24c-4.058,12.957-5.585,26.685-11.083,39.19
				c-5.22,11.874-16.234,15.395-26.882,21.003c-11.785,6.207-22.269,14.855-34.949,19.311c-12.864,4.521-26.851,3.266-39.353,9.24
				c-2.486,1.188-0.941,4.42,1.262,4.658c20.784,2.248,40.966,7.7,62.021,6.537c21.504-1.188,42.735-5.278,64.25-6.42
				c1.49-0.079,2.329-1.089,2.5-2.5c0.38-3.128,1.913-5.825,2.093-9.018c-0.612,0.804-1.224,1.607-1.835,2.411
				c4.987-1.985,6.915-7.639,8.337-12.386c2.4-8.01,3.305-16.522,4.182-24.809c1.848-17.479,1.885-34.689,6.465-51.759
				c3.805-14.18,8.939-27.96,12.212-42.289c3.294-14.426,3.997-29.468,5.499-44.154c3.171-31.018,7.034-62.142,16.909-91.851
				c9.719-29.238,14.812-59.18,15.024-90.017c0.048-7.105-0.297-14.193-0.614-21.289c-0.202-4.521-0.284-8.991,1.576-13.209
				c1.959-4.441,5.056-9.96,8.387-13.438c2.883-3.011,9.469-2.102,13.115-1.745c7.867,0.77,18.813,2.939,24.994,8.276
				c6.154,5.314,8.788,14.444,10.867,21.973c5.152,18.652,6.244,38.167,8.438,57.307c1.579,13.772,2.177,27.342,2.055,41.21
				c-0.134,15.271-0.354,30.514,1.708,45.683c2.099,15.422,5.749,30.648,8.814,45.895c3.127,15.551,5.35,31.113,6.772,46.908
				c2.543,28.223,3.959,56.527,3.677,84.868c-0.172,17.233,0.035,41.085-13.816,53.681c-2.162,1.966-4.858,3.234-7.628,4.071
				c-2.674,0.809-2.208,4.938,0.665,4.911c13.319-0.127,26.417,1.905,39.603,3.5c11.317,1.369,22.702,2.021,34.025,3.416
				c20.514,2.524,44.3,6.923,64.205-0.821c2.511-0.978,2.328-4.927-0.665-4.911c-14.059,0.074-26.363-6.032-39.203-10.929
				c-5.529-2.108-11.179-3.638-17.035-4.484c-4.17-0.603-8.804-0.527-12.632-2.478c-10.104-5.146-7.07-23.084-7.866-32.246
				c-1.269-14.594-1.25-29.262-3.847-43.721c-5.781-32.193-9.421-64.272-11.738-96.9c-2.26-31.809-4.167-63.653-8.71-95.24
				c-2.114-14.698-5.035-29.25-6.911-43.987c-1.8-14.146-2.998-28.364-3.796-42.599c-1.639-29.239-1.27-58.605,0.982-87.801
				c1.112-14.407,2.785-28.77,5.037-43.043c1.859-11.784,4.294-23.179,3.946-35.176c-0.237-8.179-1.432-16.235,1.078-24.198
				c2.961-9.396,10.922-15.652,14.924-24.429c8.226-18.036,6.579-40.613,5.786-59.869c-0.822-19.981-4.104-41.083-1.044-60.989
				c-1.025,0.582-2.051,1.164-3.076,1.746c6.846,1.554,11.601,10.309,14.95,15.754c5.251,8.538,9.546,17.672,13.676,26.791
				c8.879,19.61,16.713,39.011,21.09,60.199c5.801,28.08,8.46,56.792,13.188,85.066c2.727,16.301,5.419,32.608,6.996,49.068
				c1.496,15.627,1.282,31.169,0.551,46.827c-0.408,8.745-1.373,17.398-4.248,25.708c-2.8,8.09-8.314,15.212-12.039,22.908
				c-2.911,6.014-4.326,12.654-7.652,18.439c-2.714,4.72-6.021,9.118-8.217,14.123c-4.142,9.442,5.19,12.156,12.493,8.058
				c9.486-5.324,10.23-18.905,14.132-27.824c-1.438,0-2.878,0-4.316,0c5.164,7.689,4.138,13.203-2.137,19.531
				c-4.621,4.66-9.921,9.117-11.036,15.954c-0.267,1.635,0.664,3.091,2.411,3.165c7.788,0.332,16.413-3.358,22.441-8.132
				c7.656-6.062,7.932-14.809,12.836-22.544c-1.522-0.199-3.046-0.398-4.569-0.597c4.198,11.561-0.647,21.731-9.101,29.833
				c-1.95,1.869,0.119,4.579,2.433,4.179c15.82-2.74,20.988-23.207,23.615-36.407c3.769-18.938,3.894-38.405,3.011-57.615
				c-1.479-32.157-6.27-64.07-9.369-96.088c-2.962-30.601-6.202-60.659-14.397-90.383c-6.536-23.703-13.732-47.07-17.654-71.396
				c-3.675-22.785-8.446-45.472-17.505-66.791c-6.295-14.815-15.218-29.712-33.322-27.25c-15.543,2.113-28.744,12.798-45.104,9.715
				c0.582,1.025,1.164,2.05,1.746,3.075c7.4-25.415,2.582-53.445-4.928-78.263c-3.713-12.271-9.269-22.761-16.799-33.118
				c-7.717-10.613-15.872-20.799-20.233-33.348c-3.311-9.527-6.811-18.881-13.672-26.474c-7.67-8.488-18.95-13.691-29.682-17.042
				c-23.225-7.252-49.583-4.248-70.92,7.189c-17.768,9.523-29.264,26.255-30.391,46.491c-1.056,18.961,7.655,37.778,20.894,50.997
				c17.094,17.068,41.989,20.772,65.236,20.074c6.013-0.181,12.014-0.924,17.909-2.108c5.236-1.052,10.177-3.537,14.999-5.77
				c7.125-3.299,15.582-8.27,23.31-4.01c8.909,4.911,14.589,17.772,17.644,26.988c3.352,10.111,5.789,22.2,3.198,32.744
				c-1.124,4.574-3.229,9.559-7.108,12.45c-3.524,2.626-8.217,2.797-12.428,2.777c-10.767-0.05-21.29-1.623-32.062-0.142
				c-17.569,2.415-31.001,11.482-37.718,28.091c-7.252,17.932-6.422,38.583-8.072,57.521c-2.231,25.601-9.038,50.367-29.55,67.205
				c-8.109,6.656-19.771,12.502-29.576,5.986c-8.29-5.509-11.751-17.903-14.174-26.892c-5.934-22.017-5.276-44.884-8.495-67.302
				c-3.856-26.854-10.792-55.767-24.254-79.56c-5.375-9.499-13.137-17.682-17.391-27.806c-4.687-11.155-1.312-22.515-1.536-34.093
				c-0.295-15.275-6.473-29.597-19.421-38.167c-9.822-6.501-22.364-8.746-33.973-8.241c-7.475,0.325-18.071,1.7-19.579,10.795
				c-0.956,5.762,2.406,11.415,5.655,15.875c4.897,6.723,11.148,12.428,17.554,17.678c6.05,4.958,12.47,9.517,19.217,13.477
				c3.558,2.088,8.837,5.638,13.22,5.204c1.637-0.162,2.815-1.469,2.411-3.165c-0.613-2.566-4.304-4.506-6.242-5.886
				c-4.666-3.322-9.519-6.388-14.34-9.477c-5.189-3.325-10.403-6.612-15.57-9.973c-1.83-1.19-3.65-2.396-5.444-3.642
				c-0.617-0.428-1.235-0.86-1.823-1.326c-0.271-0.215-0.961-1.131-0.598-0.482c-1.023-1.828-4.106-1.537-4.569,0.597
				c-2.282,10.522,9.46,22.729,16.429,28.969c8.536,7.643,22.609,14.591,31.514,3.652c-1.393-0.368-2.786-0.735-4.178-1.103
				c18.207,57.536,24.863,117.217,33.273,176.717c3.64,25.754,9.101,49.987,25.521,70.849c7.188,9.133,17.022,16.784,28.62,19.021
				c10.129,1.954,20.164-1.469,28.34-7.378c6.636-4.796,11.27-11.385,16.657-17.413c2.945-3.296,6.527-5.869,9.739-8.875
				c3.437-3.216,5.966-7.381,8.314-11.41c2.617-4.492,5.436-8.771,7.237-13.658c1.827-4.957,3.176-10.101,4.542-15.198
				c3.52-13.141,6.601-26.396,10.129-39.535c1.571-5.853,3.229-11.691,5.215-17.418c1.049-3.025,2.167-7.146,4.607-9.398
				c2.374-2.191-1.17-5.718-3.535-3.535c-3.473,3.206-4.966,8.857-6.428,13.162c-2.718,8.004-4.817,16.226-6.924,24.407
				c-4.051,15.73-7.069,32.125-12.86,47.341c-1.179,3.098-3.155,5.814-4.796,8.674c-3.593,6.263-7.202,11.702-12.845,16.322
				c-9.166,7.504-14.845,18.119-25.027,24.552c-25.648,16.205-48.854-10.76-59.185-31.96c-7.561-15.515-10.094-32.972-12.502-49.88
				c-2.694-18.924-5.134-37.882-7.786-56.811c-5.682-40.56-13.112-80.8-25.487-119.906c-0.517-1.633-2.923-2.646-4.178-1.103
				c-7.335,9.01-18.495,1.673-25.204-4.334c-4.044-3.621-7.548-7.855-10.458-12.429c-1.822-2.863-4.706-7.393-3.924-10.994
				c-1.523,0.199-3.046,0.398-4.569,0.597c1.233,2.203,4.38,3.734,6.385,5.084c4.781,3.219,9.67,6.28,14.53,9.378
				c4.941,3.15,9.883,6.3,14.754,9.557c1.861,1.244,3.705,2.515,5.51,3.839c0.795,0.583,2.529,2.557,2.333,1.733
				c0.804-1.055,1.607-2.11,2.411-3.165c-3.809,0.378-8.952-3.473-12.062-5.329c-6.748-4.027-13.115-8.725-19.122-13.782
				c-5.859-4.933-11.565-10.38-15.88-16.746c-2.528-3.729-5.781-9.649-2.063-13.647c5.045-5.424,18.391-3.92,24.903-2.99
				c13.188,1.882,25.321,8.394,31.75,20.413c4.347,8.126,5.134,17.696,4.706,26.737c-0.277,5.851-1.364,11.516-0.946,17.4
				c0.362,5.092,1.874,9.925,3.968,14.549c4.467,9.864,12.096,18.096,17.416,27.499c6.94,12.266,11.262,26.362,15.095,39.858
				c4.019,14.149,6.904,28.647,8.731,43.24c1.385,11.061,1.601,22.208,2.779,33.287c1.141,10.725,2.934,21.427,5.975,31.786
				c2.552,8.691,6.265,17.748,12.939,24.103c15.875,15.114,38.196-2.853,48.874-15.408c16.132-18.968,19.396-45.398,20.927-69.343
				c1.146-17.92,1.198-38.22,10.769-54.071c11.06-18.317,34.359-18.851,53.332-17.586c7.958,0.53,16.953,1.46,23.746-3.601
				c6.927-5.162,9.434-15.075,9.788-23.271c0.465-10.744-2.224-21.981-6.07-31.936c-3.309-8.563-8.884-18.61-16.542-23.977
				c-6.458-4.525-13.471-3.963-20.552-1.269c-3.951,1.503-7.747,3.417-11.586,5.177c-6.098,2.797-11.947,4.569-18.612,5.448
				c-24.508,3.233-52.915-0.104-71.332-17.85c-14.327-13.805-22.2-34.86-18.595-54.614c4.311-23.62,25.608-37.324,47.459-42.833
				c24.161-6.092,54.904-2.051,73.303,15.986c8.127,7.967,10.795,19.195,14.817,29.432c4.59,11.679,12.771,21.478,20.073,31.52
				c5.32,7.317,10.054,14.94,13.055,23.516c2.958,8.454,5.292,17.121,7.152,25.878c3.935,18.519,5.463,38.501,0.108,56.888
				c-0.356,1.227,0.421,2.825,1.746,3.075c9.694,1.827,18.92-0.265,28.076-3.492c8.141-2.869,17.13-7.572,26.016-6.252
				c12.488,1.856,18.306,17.565,22.447,27.615c5.61,13.614,9.242,27.996,12.197,42.389c3.033,14.775,4.911,29.738,8.338,44.437
				c3.587,15.382,8.248,30.496,12.51,45.698c8.546,30.484,11.865,61.294,14.906,92.71c3.886,40.145,10.931,80.516,9.524,120.972
				c-0.435,12.507-1.77,25.083-4.899,37.22c-2.489,9.654-7.075,23.318-18.389,25.276c0.812,1.394,1.622,2.786,2.433,4.179
				c9.66-9.258,15.169-21.527,10.388-34.698c-0.736-2.026-3.356-2.511-4.569-0.597c-4.129,6.512-4.621,14.456-10.271,20.046
				c-4.961,4.908-13.732,8.45-20.689,8.153c0.804,1.055,1.607,2.109,2.411,3.165c1.25-7.668,8.734-11.928,13.245-17.631
				c5.531-6.993,4.156-14.659-0.578-21.708c-0.932-1.388-3.506-1.854-4.316,0c-3.426,7.828-4.231,17.211-9.902,23.918
				c-1.06,1.253-9.142,5.688-8.551,2.448c0.724-3.966,3.825-7.841,5.92-11.178c5.544-8.833,8.049-18.728,12.938-27.902
				c2.863-5.372,6.42-10.443,8.783-16.065c2.694-6.407,4.05-13.056,4.883-19.932c3.719-30.701,0.405-61.796-4.433-92.149
				c-4.624-29.01-8.438-58.169-13.267-87.139c-2.586-15.52-5.951-31.005-11.536-45.748c-3.422-9.033-7.62-17.886-11.547-26.71
				c-4.689-10.54-9.664-21.03-15.809-30.811c-3.833-6.102-9.181-14.428-16.753-16.147c-1.207-0.274-2.862,0.355-3.076,1.746
				c-2.81,18.284-0.367,37.402,0.562,55.753c0.997,19.681,2.632,41.081-3.395,60.152c-2.887,9.135-10.183,15.436-14.513,23.82
				c-3.722,7.208-4.386,14.884-3.996,22.853c0.543,11.089,0.298,21.47-1.709,32.448c-2.438,13.337-4.224,26.793-5.617,40.277
				c-5.844,56.545-4.319,114.598,5.566,170.607c11.221,63.573,9.655,128.489,20.046,192.154c1.565,9.592,3.847,19.059,4.93,28.724
				c1.01,9.013,1.276,18.102,1.849,27.148c0.482,7.639,0.742,15.253,1.166,22.89c0.325,5.862,2.09,11.146,5.7,15.799
				c2.699,3.479,7.027,4.771,11.187,5.393c6.519,0.977,12.813,1.719,19.135,3.733c15.11,4.814,28.621,12.752,44.94,12.666
				c-0.222-1.637-0.443-3.273-0.665-4.911c-19.442,7.565-42.827,3.111-62.875,0.644c-10.735-1.322-21.502-2.026-32.245-3.209
				c-13.806-1.52-27.447-3.84-41.383-3.707c0.222,1.637,0.443,3.273,0.665,4.911c17.911-5.417,22.356-26.151,24.12-42.437
				c2.572-23.755,1.087-48.323-0.252-72.089c-1.716-30.471-5.075-60.349-11.235-90.248c-3.217-15.611-6.828-31.285-8.026-47.211
				c-1.18-15.677-0.293-31.445-0.452-47.146c-0.212-20.81-3.137-42.165-6.028-62.78c-1.384-9.871-3.193-19.746-6.263-29.246
				c-2.259-6.992-5.443-14.389-11.122-19.292c-5.871-5.07-15.146-7.014-22.516-8.444c-6.96-1.351-17.112-2.785-22.597,2.941
				c-3.338,3.486-6.007,8.754-8.235,13.039c-1.771,3.407-2.562,6.994-2.757,10.807c-0.302,5.895,0.404,11.885,0.58,17.776
				c0.241,8.071,0.089,16.15-0.32,24.214c-0.805,15.869-3.079,31.632-6.635,47.113c-3.455,15.04-9.105,29.4-12.986,44.318
				c-7.672,29.49-10.315,60.058-13.377,90.283c-1.566,15.461-3.921,30.182-8.395,45.091c-3.962,13.205-8.827,26.354-11.017,40.015
				c-2.515,15.685-2.157,31.786-4.385,47.538c-0.72,5.089-1.652,10.168-3.128,15.096c-0.71,2.371-1.963,7.04-4.605,8.092
				c-1.098,0.438-1.767,1.194-1.835,2.411c-0.175,3.102-1.716,5.917-2.093,9.018c0.833-0.833,1.667-1.667,2.5-2.5
				c-21.514,1.142-42.755,5.063-64.25,6.42c-20.998,1.324-41.292-4.295-62.021-6.537c0.42,1.553,0.841,3.105,1.262,4.658
				c13.191-6.303,28.488-4.481,41.903-10.15c12.839-5.425,23.827-14.231,36.287-20.382c9.999-4.935,18.812-9.141,24.162-19.489
				c5.941-11.493,7.731-24.96,10.976-37.35c3.795-14.498,7.745-28.593,10.23-43.417c2.533-15.112,4.644-30.309,8.469-45.167
				c3.568-13.861,9.102-27.132,13.413-40.763c4.48-14.166,5.921-28.109,6.969-42.848c2.35-33.053,6.416-65.969,11.452-98.714
				c4.837-31.447,11.38-62.604,15.456-94.165c2.12-16.416,3.904-32.874,6.189-49.27c1.83-13.129,5.834-24.728,11.582-36.646
				c4.818-9.993,10.076-19.881,12.717-30.729c2.789-11.453,0.245-21.166-2.956-32.146c-8.355-28.661-5.894-59.973-6.09-89.46
				C441.804,250.859,436.804,250.857,436.825,254.083L436.825,254.083z"/>
		</g>
	</g>
	<g id="eyes_1_">
		<g id="eyes">
			<ellipse style="fill:#FFFFFF;stroke:#000000;stroke-miterlimit:10;" cx="408.625" cy="93.982" rx="42.316" ry="26.767"/>
			<ellipse style="fill:#FFFFFF;stroke:#000000;stroke-miterlimit:10;" cx="415.768" cy="37.057" rx="35.173" ry="19.047"/>
		</g>
		<g id="pupil_1_">
			<g>
				<path d="M367.897,95.113c24.868,0,49.735,0,74.603,0c3.225,0,3.225-5,0-5c-24.868,0-49.735,0-74.603,0
					C364.673,90.113,364.673,95.113,367.897,95.113L367.897,95.113z"/>
			</g>
		</g>
		<g id="pupil">
			<g>
				<path d="M386.944,44.319c19.326,0.107,38.562,2.901,57.808-0.089c3.179-0.494,1.824-5.311-1.329-4.821
					c-18.745,2.913-37.652,0.015-56.479-0.089C383.719,39.301,383.721,44.301,386.944,44.319L386.944,44.319z"/>
			</g>
		</g>
	</g>
</g>
<g id="flower">
	<g id="stem">
		<path style="fill:#098A44;" d="M221.865,168.803c33.333-28.571,53.968-114.286,4.762-138.095
			c-36.508-17.46-93.651-14.286-109.523,28.571C142.5,2.136,245.675-2.626,266.31,60.866c9.524,28.571,0,63.492-9.524,92.063
			c-3.174,7.937-14.286,38.095-23.81,41.27c-17.46,4.762-26.984-17.46-9.523-25.397"/>
		<g>
			<path style="fill:#284821;" d="M223.633,170.57c12.803-11.149,21.212-26.784,26.994-42.526
				c6.293-17.136,9.429-36.263,6.981-54.454c-2.258-16.786-9.782-32.263-24.111-41.872c-15.516-10.405-36.859-13.913-55.184-13.399
				c-27.322,0.765-53.479,13.783-63.62,40.295c-1.01,2.641,3.402,4.497,4.569,1.926c14.878-32.759,53.7-46.59,87.656-42.447
				c16.928,2.066,33.318,9.499,44.864,22.199c16.797,18.477,17.854,45.107,14.087,68.539c-3.694,22.986-11.167,46.041-21.576,66.89
				c-3.959,7.93-8.851,18.74-19.451,16.19c-4.406-1.06-7.654-5.125-8.123-9.546c-0.575-5.429,3.541-9.218,7.995-11.403
				c2.895-1.42,0.359-5.732-2.523-4.317c-7.421,3.641-11.998,10.674-9.916,19.016c1.916,7.679,9.687,11.957,17.169,11.656
				c8.154-0.328,12.629-7.455,16.357-13.838c4.667-7.991,8.176-16.679,11.577-25.265c15.521-39.187,28.39-96.208-8.461-127.655
				c-39.067-33.338-112.35-20.146-133.972,27.459c1.523,0.642,3.046,1.284,4.569,1.926c15.737-41.141,70.121-43.367,104.832-27.557
				c36.865,16.791,32.38,66.165,20.261,97.508c-5.333,13.793-13.267,27.35-24.509,37.141
				C217.662,169.156,221.213,172.678,223.633,170.57L223.633,170.57z"/>
		</g>
	</g>
	<g id="petals">
		<path style="fill:#A73173;" d="M113.929,62.454c22.222-23.81-19.048-50.793-42.857-46.032
			c-39.682,7.937,3.175,26.984,15.873,41.27c-19.047-1.587-73.016-22.223-82.54,3.174C-8.293,97.374,48.849,89.438,64.722,83.088
			C48.849,95.787,31.389,95.787,18.69,113.247c-6.349,7.937-20.635,34.921-4.762,41.27c17.46,6.349,68.254-46.032,85.714-53.968
			c4.762,15.873,15.873,101.587,44.444,69.841c23.81-25.397-25.397-63.492-17.46-85.714c14.286-1.587,92.063,12.698,63.492-20.635
			c-4.762-4.762-39.683-17.46-42.857-17.46c-17.46-1.587-15.873,4.762-28.571,15.873"/>
		<g>
			<path style="fill:#8E2561;" d="M115.696,64.221c23.595-26.334-18.019-53.246-42.658-50.617
				c-9.852,1.052-27.241,7.008-18.279,19.508c7.844,10.941,21.41,16.491,30.417,26.347c0.589-1.422,1.178-2.845,1.768-4.268
				c-17.017-1.573-33.354-7.664-50.471-9.124C20.87,44.738,4.235,47.749,0.617,65.255c-6.784,32.824,44.194,26.917,62.151,21.184
				c0.884-0.282,1.755-0.602,2.619-0.94c-0.811-1.393-1.622-2.786-2.432-4.178c-9.792,7.613-21.778,11.099-32.271,17.5
				c-8.411,5.13-14.708,12.82-19.426,21.358c-5.646,10.219-14.19,36.657,5.815,37.369c6.167,0.22,12.48-3.271,17.656-6.207
				c7.745-4.392,14.932-9.805,21.963-15.241c13.581-10.499,26.352-22.795,41.069-31.714c1.017-0.617,2.067-1.173,3.144-1.679
				c-1.224-0.498-2.448-0.996-3.672-1.494c3.509,11.956,5.252,24.451,8.379,36.52c3.279,12.656,7.095,28.018,16.606,37.611
				c9.542,9.625,21.241,1.437,27.228-7.848c9.479-14.701-0.833-33.182-8.138-46.355c-5.425-9.783-16.163-23.914-12.27-35.8
				c-0.804,0.612-1.607,1.224-2.411,1.835c11.784-1.167,24.225,1.277,36.032,1.631c9.854,0.296,26.496,1.727,33.911-6.511
				c3.274-3.638,2.473-8.424,0.562-12.498c-2.858-6.093-7.299-9.437-13.168-12.257c-7.85-3.773-16.064-6.868-24.26-9.792
				c-6.575-2.345-12.288-4.166-19.358-3.843c-10.843,0.494-16.084,10.221-23.422,16.78c-2.409,2.153,1.14,5.677,3.535,3.535
				c6.691-5.98,11.303-14.924,21.084-15.37c6.694-0.305,13.062,2.336,19.742,4.769c8.09,2.945,16.266,6.039,23.866,10.113
				c3.988,2.138,9.39,8.007,8.715,13.009c-0.589,4.365-7.018,5.473-10.442,6.12c-6.783,1.28-13.895,1.126-20.764,0.946
				c-11.822-0.311-24.236-2.8-36.032-1.632c-1.167,0.116-2.035,0.689-2.411,1.835c-4.814,14.697,8.387,31.498,14.935,43.593
				c7.952,14.689,15.288,33.956-1.771,45.441c-19.804,13.333-30.596-51.934-32.778-62.222c-0.775-3.657-1.494-7.349-2.548-10.938
				c-0.484-1.651-2.209-2.181-3.672-1.494c-12.557,5.895-23.413,16.765-34.106,25.381c-12.381,9.977-25.635,21.87-40.773,27.451
				c-5.958,2.197-12.3,1.67-14.057-5.608c-1.948-8.069,3.305-17.992,7.151-24.729c5.116-8.962,12.36-15.674,21.455-20.499
				c9.661-5.125,19.709-8.744,28.438-15.53c1.953-1.518-0.159-5.067-2.432-4.178C49.679,86.3,0.646,94.386,5.438,66.584
				C8.478,48.951,28.198,49.94,42.104,51.66c15.104,1.868,29.699,7.132,44.841,8.532c2.319,0.214,3.108-2.801,1.768-4.268
				c-7.127-7.8-16.554-13.223-24.5-20.115c-2.706-2.347-7.114-5.882-7.105-9.84c0.011-4.801,11.564-6.493,14.629-7.137
				c20.217-4.246,60.665,19.263,40.425,41.854C110.017,63.079,113.541,66.627,115.696,64.221L115.696,64.221z"/>
		</g>
	</g>
	
		<ellipse id="middle" style="fill:#FFF200;stroke:#F7941E;stroke-miterlimit:10;" cx="101.969" cy="76.366" rx="24.758" ry="20.261"/>
</g>
</svg>
