<?xml version="1.0" encoding="utf-8"?>
<!-- Generator: Adobe Illustrator 22.1.0, SVG Export Plug-In . SVG Version: 6.00 Build 0)  -->
<svg version="1.1" id="figure" xmlns="http://www.w3.org/2000/svg" xmlns:xlink="http://www.w3.org/1999/xlink" x="0px" y="0px"
	 viewBox="0 0 1203.5 1711.6" style="enable-background:new 0 0 1203.5 1711.6;" xml:space="preserve">
<style type="text/css">
	.st0{fill:#FFFFFF;stroke:#000000;stroke-miterlimit:10;}
</style>
<g id="body">
	<path d="M503.1,52c3.2-13.4,7.7-27.4,18.3-36.2c9.5-7.8,22.2-10.1,34.4-11.6c48.6-6.1,101-3.9,142,22.9
		c63.1,41.1,80.2,131.2,55,202.2c-5.1-9.8-10.2-19.6-15.4-29.5c-3.3,8.3-8.4,15.9-14.9,22.1c-3.9-11.3-7.8-22.7-11.6-34
		c-6,15.1-12,30.2-18,45.3c-6.9-16.3-13.8-32.6-20.8-48.9c-6.6,19.3-13.2,38.6-19.9,57.8c-7.8-15.1-13.5-31.3-17.2-47.9
		c-1.1,4.1-7.6,3.9-10.3,0.6c-2.7-3.3-2.8-7.9-3.5-12.1c-3.2-20-23.4-35.7-43.6-33.9c-23.8,2.2-41.2,25.6-44.8,49.2
		s3.5,47.5,10.4,70.3c4,13.4,8.7,27.6,19.6,36.3c11.4,9.1,28.7,9.9,40.8,1.9c12.2-8,18.3-24.2,14.4-38.2c3.3,11.9,6.5,23.8,9.8,35.8
		c4.8-8.7,10.7-16.8,17.7-23.9c1.4,5.5,2.8,10.9,4.1,16.4c9.3-15.2,18.7-30.4,28-45.6c1.8,12.6,3.5,25.3,5.3,37.9
		c5.8-9.1,11.5-18.2,17.3-27.3c0.8,9.2,1.6,18.4,2.4,27.6c8-12.8,16-25.6,24-38.3c3.1,4.7,4.5,10.4,4.1,15.9
		c6.5-3.9,11.6-10,14.2-17.1c8.7,42.6,15.9,92.1-12.3,125.2c-29.6,34.8-83.1,33.8-128.3,26.8c-31-4.7-68.2-17.1-73.2-48.1
		c-6.4,42.7-2.7,86.9,10.7,127.9c3.9,11.8,9.1,24.1,19.1,31.4c19.9,14.4,48.2,3.2,67.4-12.2s37-35.3,61.2-39.3
		c7.8-1.3,16.3-0.7,22.9,3.8c9.5,6.5,12.5,18.9,14.7,30.2c11.4,58.5,22.9,117.1,34.3,175.6c8.1,41.3,17.4,85.1,46.9,115
		c25.8-20,32.3-55.6,36.4-87.9c12.3-96,19.8-192.6,22.7-289.3c2.4-80.7,2-164.1,33.3-238.6c1.8-4.2,3.7-8.5,7.1-11.5
		c4.7-4.1,11.3-5.1,17.5-5.8c52.3-6.6,104.6-13.2,156.9-19.9c14.3-1.8,30.5-3,41.3,6.5c6.4,5.7,9.5,14.3,12.2,22.5
		c30.2,88.6,60.7,178.5,66.1,271.9c-41.1-76.7-70-160-85.4-245.6c-7.7,15.1-3.5,33.3,0.4,49.8c19.7,83.4,26.7,169.7,20.8,255.2
		c-32.4-88.7-51.4-182.2-56.2-276.5c-12.3,14.7-10.2,36.2-7.8,55.2c12.3,97.5,14.3,196.3,5.9,294.3c-47.5-113-50.2-239.1-52.1-361.6
		c-31-10.3-63.6-15.9-96.3-16.5c-6-0.1-12.6,0.1-17.2,4.1c-5.7,4.9-6.1,13.5-6,21.1c1.3,146.6-16.5,292.6-34.1,438.2
		c-6.6,54-13.9,110.2-44.2,155.3c-6.2,9.2-14.6,18.5-25.6,19.2c-16.7,1.1-27.2-17.1-33.5-32.6c-32.1-80.1-57.8-162.8-76.7-247
		c-12.8,165.9-25.6,331.9-38.3,497.8c-0.4,5-0.6,10.7,2.7,14.5c3.4,4,9.3,4.6,14.3,6.3c17.2,5.6,25.8,24.4,32.4,41.3
		c11.7,29.9,23.4,59.7,35,89.6c11.4,29,18.3,40,40.6,61.5c39.4,37.9,72.2,82.7,96.3,131.8c3.4,6.9,6.7,14.2,6.2,21.9
		c-1.1,18.1-21.2,27.8-38.2,34.1c-132.2,49.1-250.8,135.7-391,159.9c3.7,25.6,7.4,51.2,11,76.7c-21.6-12.6-44.6-26.7-55-49.4
		c-10.5-22.8-0.6-56.3,24.1-60.4c130.3-21.8,255.8-72.4,364.7-147.2c16.1-11,32.5-34.8,17.2-46.7c-79-61.4-139.2-146.7-170.5-241.7
		c-6.2-18.8-24.3-31.6-43.3-36.8c-19-5.2-39.2-4.1-58.9-2.9c-16.1,1-37.9,8.8-34.5,24.6c11.4,52.2-10.6,105.6-36.1,152.5
		c-83.3,153-211.2,281.3-363.8,365.2c0.5,20,3,40,7.3,59.6c18.2-2.4,36.8-0.7,54.3,4.7c-21,2.2-42,4.4-62.9,6.6
		c-5.9,0.6-12.4,1.1-17.1-2.5c-5.4-4-6.3-11.5-6.9-18.2c-2.6-32.6-5.3-65.1-7.9-97.7c42.6-16.6,85.7-33.5,122.4-60.6
		c32.5-24,58.8-55.1,84.9-85.9c25.2-29.8,50.4-59.5,75.5-89.3c21-24.8,42.1-49.8,59.1-77.5c60.6-98.4,64.7-220.2,67-335.7
		c2.1-103.2,4.1-206.4,6.2-309.5c0.4-18.7-7.4-44.9-25.8-41.3c-10.8,2.1-16.1,14.3-19.6,24.7c-44.8,134.4-89.7,268.8-134.5,403.2
		c-10.6,31.7-21.9,64.7-45.7,88.2c-71.7-173.2,4.2-381-67.7-554.1c-21-50.5-34.4-104.1-39.8-158.5c-0.5-5.3-0.7-9.1-5-12
		c-28.3,28.8-22.8,101.7-20.6,138.5c2.9,47,10.3,93.9,7.7,140.9c-40.8-82.5-35.4-179.8-23.1-271c-28.5,102-32,210.8-10.3,314.5
		c-9.4-7.2-14.3-18.8-18.3-30C56.6,587.4,59.3,487,95.4,400.1c4.3-10.3,9.1-21.9,4.8-32.2c-18.8,10.3-26.2,33.1-31.6,53.9
		C39.4,535.1,23.3,651.8,20.9,768.9C6.4,753.6,3.5,730.8,2.4,709.8C-2.1,620.3,13.3,531,33.2,443.7c8.6-37.7,19.3-77.4,47.5-104
		c27.6-26,70.3-34.6,105.8-21.3c3.2,129.7,49.9,254,70.6,382c17.1,105.2,16.6,212.3,16.1,318.8c45.2-132.7,90.6-266.2,110.7-404.9
		c3-20.8,5.7-42.4,16.5-60.4c10.8-18,32.3-31.5,52.6-26c11.3,3.1,20.8,11.6,32.3,13.4c18,2.8,34.9-12.1,40.7-29.3
		c5.8-17.2,3.4-36,0.8-54c-12-85.3-24-170.6-35.9-255.8c-3.4-24.1-0.4-42.6,3-65.7C498.1,108.2,496.4,80.3,503.1,52z"/>
	<g>
		<path d="M504.5,52.4c3.9-15.9,9.6-32.4,25.3-40.1c14.2-7,31.7-7.6,47.2-8.6c31.2-2.1,63.5-0.2,93,11.1
			c53.5,20.4,85,70.9,91.3,126.4c3.3,29.6-0.1,59.7-9.8,87.8c0.9-0.1,1.8-0.2,2.7-0.4c-5.1-9.8-10.2-19.6-15.4-29.5
			c-0.5-0.9-2.1-1-2.6,0c-3.5,8.3-8.3,15.4-14.7,21.8c0.8,0.2,1.7,0.4,2.5,0.7c-3.9-11.3-7.8-22.7-11.6-34c-0.5-1.5-2.4-1.4-2.9,0
			c-6,15.1-12,30.2-18,45.3c0.9-0.1,1.8-0.2,2.7-0.4c-6.9-16.3-13.8-32.6-20.8-48.9c-0.5-1.3-2.4-0.7-2.7,0.4
			c-6.6,19.3-13.2,38.6-19.9,57.8c0.9-0.1,1.8-0.2,2.7-0.4c-7.6-15.2-13.3-31-17-47.5c-0.3-1.2-2.2-1.5-2.7-0.4
			c-7.1,13.5-9.6-4.1-10.3-6c-0.5-1.4-0.5-3.7-0.7-5.1c-0.5-2.7-1.2-5.3-2.2-7.8c-1.8-4.6-4.4-8.7-7.7-12.4
			c-6.7-7.5-15.9-12.8-25.9-14.4c-22.3-3.5-41.5,13-50.2,32.3c-12.2,26.9-4.4,57.3,3.7,84.2c6.3,21.2,14.5,46.4,40.1,49.3
			c25.6,2.8,44.7-21,39-45.4c-1,0.3-1.9,0.5-2.9,0.8c3.3,11.9,6.5,23.8,9.8,35.8c0.3,1.2,2.1,1.5,2.7,0.4
			c4.9-8.6,10.6-16.5,17.5-23.6c-0.8-0.2-1.7-0.4-2.5-0.7c1.4,5.5,2.8,10.9,4.1,16.4c0.3,1.3,2.1,1.4,2.7,0.4
			c9.3-15.2,18.7-30.4,28-45.6c-0.9-0.1-1.8-0.2-2.7-0.4c1.8,12.6,3.5,25.3,5.3,37.9c0.2,1.4,2.1,1.3,2.7,0.4
			c5.8-9.1,11.5-18.2,17.3-27.3c-0.9-0.3-1.9-0.5-2.8-0.8c0.8,9.2,1.6,18.4,2.4,27.6c0.1,1.5,2,2.1,2.8,0.8c8-12.8,16-25.6,24-38.3
			c-0.9,0-1.7,0-2.6,0c2.8,4.8,4,9.6,3.9,15.2c0,1.1,1.3,1.9,2.3,1.3c6.9-4.5,11.7-10.3,14.8-18c-1,0-1.9,0-2.9,0
			c9.2,45.3,18.2,105.1-25.4,136.1c-18.6,13.3-42.1,17.4-64.5,17.8c-22.1,0.4-45.1-1.9-66.5-7.3c-23.2-5.8-49.6-17.5-54.5-43.5
			c-0.3-1.4-2.7-1.5-2.9,0c-6.6,45.5-3.7,96.1,14.5,138.8c6.4,15.2,17.7,27.5,34.9,28.9c17.5,1.4,34.9-7.3,48.4-17.6
			c17.7-13.4,33.1-31.8,55-38.7c12.5-3.9,27.3-3.7,35.4,8.2c6.4,9.4,7.6,22.1,9.8,33c9.9,50.8,19.9,101.6,29.8,152.4
			c8.8,45.2,16.7,94.4,49.9,129c0.6,0.6,1.5,0.5,2.1,0c23-18.5,30.8-48,35-76c5.7-37.6,9.4-75.7,12.9-113.6
			c7.4-79.2,10.4-158.5,13-238c1.2-37.2,3.3-74.6,9.7-111.4c3.2-18,7.4-35.8,13-53.2c2.9-8.9,5.9-18,10-26.5
			c6.2-13.1,17.9-13.5,30.6-15.1c39.5-5,79-10,118.5-15c17.6-2.2,37.6-7.5,55.4-4.4c21.7,3.8,25.9,26,32,43.8
			c28.3,83.2,55.5,167.9,60.8,256.2c0.9-0.3,1.9-0.5,2.8-0.8c-41-76.8-69.7-159.6-85.2-245.3c-0.2-1.2-2.2-1.5-2.7-0.4
			c-9.3,20-1.7,41.9,2.8,62.2c6,27.2,10.7,54.7,14.1,82.4c6.4,53.5,7.7,107.4,4.1,161.2c1-0.1,2-0.3,2.9-0.4
			c-32.3-88.7-51.2-181.9-56.2-276.1c-0.1-1.2-1.7-2.2-2.6-1.1c-14.8,19-9.7,44.1-7,66.2c3.8,31.6,6.4,63.4,8,95.1
			c3.2,63,2,126.3-3.3,189.2c1-0.1,2-0.3,2.9-0.4c-47.6-114.1-50.1-239.5-52.1-361.2c0-0.7-0.5-1.2-1.1-1.4
			c-17.1-5.6-34.5-9.9-52.2-12.6c-16.1-2.5-33.4-4.9-49.7-3.8c-10.8,0.8-17.5,6.5-19,17.3c-2.4,16.7-0.3,34.7-0.6,51.5
			c-1.2,76.1-6.9,152.1-14.7,227.7c-3.9,38.2-8.3,76.3-12.8,114.4c-4.2,35.4-7.7,71-13.8,106.2c-5.6,32.1-14.1,64.2-30.6,92.5
			c-8.1,13.9-23,36.4-41.9,25.4c-14-8.2-19.7-26.6-25.2-40.8c-29.9-76.4-53.9-155-71.9-235c-0.4-1.7-2.8-1.2-2.9,0.4
			c-8.1,105-16.2,210-24.2,314.9c-4,51.9-8,103.9-12,155.8c-0.9,11.1-3.7,23.8-2.1,34.8c1,7,4.9,10.5,11.4,12.7
			c10.6,3.5,18.5,7.1,25.3,16.6c6.2,8.7,10.1,18.7,13.9,28.6c9.3,23.7,18.5,47.4,27.8,71.1c6.7,17.1,12.7,34.9,22.9,50.2
			c10.1,15.1,24,26.9,36.5,39.8c16.2,16.8,31.1,34.7,44.6,53.7c13,18.3,24.7,37.5,35,57.5c5.4,10.5,12.9,22.8,8.7,35
			c-3.6,10.4-13.9,16.8-23.3,21.4c-19,9.3-39.6,15.6-59,24.1c-20.6,9-40.9,18.6-61,28.4c-91.5,44.7-182.2,94.9-283.6,112.7
			c-0.9,0.2-1.2,1.1-1,1.8c3.7,25.6,7.4,51.2,11,76.7c0.7-0.6,1.5-1.1,2.2-1.7c-23.3-13.6-53.2-31-57.8-60.3
			c-1.9-12.1,0.7-25.6,8.2-35.4c9.2-12,23.7-12.2,37.4-14.8c62-11.7,122.7-30,181-54.3c56.9-23.7,111.7-53.1,162.6-88
			c12.6-8.6,36.2-31,22.9-47.8c-3.9-4.9-10-8.5-14.8-12.4c-5.7-4.7-11.2-9.5-16.7-14.4c-10.9-9.9-21.3-20.2-31.3-30.9
			c-40.7-43.8-73.7-94.9-96.8-150.1c-9.7-23.2-13.7-49.3-36-64.1c-24-15.9-55.7-15.4-83.2-12.6c-9.3,0.9-19.4,3.3-26.9,9.2
			c-8.3,6.5-7.4,13.6-5.8,23c5.6,33.1-2,66.7-14.2,97.5c-21.9,55.4-56,107.4-91.4,155c-69.7,93.8-157.4,174.4-257,235.6
			c-12.4,7.6-25.1,15-37.8,22c-0.4,0.2-0.8,0.8-0.7,1.3c0.6,20.2,3.1,40.2,7.3,60c0.1,0.6,0.8,1.2,1.4,1.1
			c18.3-2.1,36.3-0.6,53.9,4.6c0.1-1,0.3-2,0.4-2.9c-17.1,1.8-34.2,3.6-51.4,5.3c-7.2,0.7-16.8,3.3-23.9,0.9
			c-10.6-3.5-10-16.7-10.7-25.6c-1.4-18-2.9-35.9-4.3-53.9c-0.6-7.9-1.3-15.7-1.9-23.6c-0.3-3.8-2.1-10,0.7-13.1
			c2-2.3,9.8-3.8,12.8-5c28.4-11.2,56.8-23.1,83.1-38.7c26.3-15.6,49.3-35.4,70.3-57.6c22.7-24,43.6-49.8,64.9-75
			c22-26,44.1-51.8,65.8-78c19.8-23.8,38.5-48.6,53.2-75.9c13.6-25.2,23.9-52.1,31.7-79.7c16.1-57.4,21.4-117.3,23.8-176.7
			c2.7-66.7,3.1-133.5,4.5-200.3c0.7-35.7,1.4-71.4,2.1-107.1c0.3-17,0.7-34,1-51c0.2-12.4,0.9-24.6-3-36.5
			c-4.8-14.8-19.9-28.4-34.2-14.4c-8.3,8.1-11.1,21.1-14.6,31.7c-5.6,16.7-11.1,33.3-16.7,50C401,744.6,378.6,811.8,356.2,879
			c-11.1,33.3-22.2,66.7-33.4,100c-10.1,30.4-18.8,62.1-33,90.9c-6.7,13.6-15.1,26.1-25.7,37c0.8,0.2,1.7,0.4,2.5,0.7
			C229.4,1016.6,232,917,233,820.6c0.5-47.4,0.7-95-4.3-142.2c-2.4-22.8-6-45.6-11.4-67.9c-5.7-23.7-14.4-46-23.2-68.7
			c-10.7-27.4-19.1-55.7-25.3-84.5c-3.3-15.3-5.9-30.7-7.9-46.2c-1.1-9,0.4-22.3-7.2-28.7c-0.6-0.5-1.5-0.6-2.1,0
			c-12.7,13.4-17.7,32.1-20.3,49.9c-3,20.3-3,40.9-2.2,61.4c2.2,56.4,12.1,112.6,9.3,169.2c0.9-0.3,1.9-0.5,2.8-0.8
			c-40.9-83.9-34.9-180.3-22.9-270.3c0.2-1.7-2.5-2-2.9-0.4c-28.4,102.6-31.9,211.1-10.3,315.3c0.8-0.5,1.7-1,2.5-1.5
			c-11.6-9.6-16.3-24.1-20.8-37.9c-4.7-14.3-8.5-28.8-11.4-43.6c-5.8-29.3-8.2-59.3-7.2-89.2c1-29.9,5.5-59.7,13.3-88.5
			c3.9-14.5,8.8-28.7,14.4-42.7c4.7-11.5,10.2-23.3,6-35.8c-0.3-0.9-1.3-1.4-2.2-0.9c-17.7,10.4-25.4,29.8-30.6,48.7
			c-7.7,27.8-13.9,56.1-19.6,84.4c-11.3,55.9-19.4,112.4-24.4,169.3c-2.9,33.3-4.7,66.6-5.4,100c0.9-0.4,1.7-0.7,2.6-1.1
			C8.3,752.6,5.2,732.1,4.1,712.4c-1.2-20.7-1.2-41.5-0.4-62.2c1.8-44.1,7.5-87.9,15.4-131.3c7.1-39.1,14.2-79.2,26.8-117
			c11.9-35.9,33.1-68.8,70.2-82c16.7-6,35-7.8,52.6-4.8c4,0.7,8.8,1.3,12.5,3c5.4,2.4,4,7.5,4.2,13c0.5,10.6,1.3,21.2,2.3,31.7
			c3.8,40.2,11.1,80.1,19.8,119.5c17.8,81.4,40.9,161.8,52.1,244.5c13.1,96.8,12.6,194.8,12.2,292.3c0,1.7,2.4,2,2.9,0.4
			c24.2-71,48.4-142.1,68.8-214.3c10.2-36,19.4-72.3,27.2-109c7.6-35.6,11.6-71.7,18.8-107.3c3.4-16.7,9-33.8,21.5-46.1
			c13.2-13,31.5-18.8,48.9-10.9c12.1,5.5,22.8,13.4,36.7,10.3c11.7-2.6,21.4-11.4,27.2-21.7c7.6-13.4,8.1-29.6,6.9-44.6
			c-1.5-17.5-4.5-34.9-7-52.2c-5.4-38.7-10.9-77.4-16.3-116.1c-3.1-21.9-6.1-43.8-9.2-65.6c-3-21.3-7.5-43-7.1-64.6
			c0.4-19.3,4.6-38.2,6.2-57.4C499.2,97.5,499.5,74.7,504.5,52.4c0.4-1.9-2.5-2.7-2.9-0.8c-4,17.8-5.2,35.8-6.3,54
			c-1.1,17.9-3.9,35.5-5.9,53.3c-4.1,36,4.2,72.1,9.1,107.7c5.4,38.7,10.9,77.4,16.3,116.1c2.7,19.1,5.4,38.2,8,57.2
			c2.6,18.8,6.9,38.4,4.8,57.5c-1.9,17.9-12.1,37.1-30.8,41.9c-17.4,4.5-30-10.1-46-13.4c-26.2-5.3-48.6,16.7-57.7,39.1
			c-6.3,15.6-8.4,32.4-10.8,48.9c-2.7,18.3-5.7,36.5-9.2,54.6c-7,36.8-15.7,73.2-25.3,109.4c-21.8,81.4-49,161.3-76.2,241
			c1,0.1,2,0.3,2.9,0.4c0.5-94.3,0.9-188.9-10.9-282.6C252.6,647,227,560.4,208.3,472.2c-10.8-50.7-18.9-102-20.3-153.8
			c0-0.7-0.5-1.2-1.1-1.4c-30.1-10.8-64.4-7.2-91.7,9.7c-28.6,17.7-44.2,48.5-53.9,79.7C29.4,444.8,22,485.1,15.1,524.7
			c-7.4,42-12.8,84.5-14.4,127.2c-0.9,23.2-1.1,46.8,1.1,69.9c1.7,17.6,6,34.8,18.1,48.2c0.9,1,2.5,0.2,2.6-1.1
			c2.4-110.9,16.9-221.5,43.3-329.3c6.1-24.9,11.2-56.3,35.3-70.5c-0.7-0.3-1.5-0.6-2.2-0.9c5.4,16-6,33.5-11.3,48.3
			c-5.1,14.1-9.3,28.6-12.7,43.2c-6.6,28.4-9.9,57.6-10,86.8c-0.1,29.2,3,58.4,9.4,86.8c3.3,14.7,7.4,29.1,12.5,43.3
			c4.1,11.5,9.1,22.7,18.7,30.7c1.2,1,2.8,0.1,2.5-1.5c-21.5-103.7-18-211.6,10.3-313.7c-1-0.1-2-0.3-2.9-0.4
			C103,482.2,97.3,579,138.4,663.5c0.7,1.4,2.7,0.6,2.8-0.8c3.3-66.2-11.1-131.9-9.6-198.2c0.6-24.8,2.4-54.3,17.6-75
			c0.4-0.5,2.6-3.9,3.1-3.9c2,0.1,2.8,3.9,3.2,5.3c1,4.4,1,9.3,1.5,13.8c1,8.5,2.1,17,3.5,25.4c3,18.7,7,37.2,11.9,55.5
			c9.3,34.6,24.5,66.8,35,100.9c10,32.1,15.7,65.5,18.8,98.9c6.3,67.3,2.8,134.9,3.1,202.4c0.4,74.7,5.6,150.6,34.1,220.4
			c0.4,1,1.6,1.5,2.5,0.7c16.6-16.9,27.4-37.9,35.8-59.8c10.2-26.5,18.5-53.8,27.5-80.7c19.4-58.1,38.7-116.1,58.1-174.2
			c19.4-58.1,38.7-116.1,58.1-174.2c3.7-11,9.5-29,24.3-27c10.9,1.5,15.6,14.6,17.6,23.9c2.7,12.4,1.4,25.5,1.1,38.1
			c-0.3,15.3-0.6,30.6-0.9,45.9c-1.2,61.2-2.4,122.5-3.7,183.7c-1.1,55.2-1.3,110.5-5.4,165.6c-3.8,52.1-11.4,104.3-28.3,153.8
			c-8.6,25.1-19.6,49.4-33.4,72.1c-15.2,25-33.8,47.7-52.6,70c-37.5,44.6-74.3,90.1-113.4,133.2c-18.9,20.8-39.2,40.4-62.5,56.3
			c-23,15.6-48.3,27.7-73.9,38.5c-13.1,5.5-26.3,10.7-39.5,15.8c-0.6,0.2-1.2,0.8-1.1,1.4c1.6,19.7,3.2,39.3,4.8,59
			c0.8,9.5,1.5,19.1,2.3,28.6c0.6,7,0.4,14.9,2.8,21.7c4.4,12,15.9,11.4,26.8,10.3c19.9-2,39.8-4.1,59.6-6.2
			c1.6-0.2,2.1-2.4,0.4-2.9c-15.3-4.5-31.2-6.6-47.1-5.5c-5.9,0.4-6.6,0-7.7-5.9c-0.8-4.1-1.5-8.3-2.2-12.5
			c-1.5-9.8-2.5-19.6-3.1-29.5c-0.3-5.1-0.7-7.7,3.7-10.8c2.9-2.1,6.4-3.6,9.5-5.4c6.7-3.9,13.4-7.8,20-11.8
			c12.9-7.8,25.5-16,38-24.4c49.1-33.4,95.1-71.5,136.9-113.6c41.9-42.1,79.7-88.3,112.7-137.7c16.9-25.2,32.6-51.3,46.8-78.2
			c15.1-28.7,28.3-59.3,33.2-91.6c2.2-14.5,2.6-29.2,0.6-43.7c-1.1-8.2-4.4-16.1,2.3-22.7c4.9-4.9,12.2-7.4,18.8-8.9
			c15.5-3.5,33.4-3.2,49.2-1.9c17.1,1.4,34,6.4,47.2,17.9c12.5,10.8,15.9,25.9,21.5,40.7c5.1,13.4,10.7,26.6,16.9,39.6
			c13,27.3,28.5,53.5,46.2,78.1c17.2,24,36.4,46.5,57.5,67.1c10.8,10.6,22.1,20.7,33.8,30.3c5.1,4.2,12.9,8.4,14.9,15.1
			c2.2,7.9-2.6,16.4-7.1,22.5c-9.4,12.8-24.1,20.9-37.3,29.3c-14.2,9.1-28.7,17.9-43.4,26.2c-28.5,16.2-57.9,30.8-88,43.8
			c-61,26.4-124.9,46-190.1,58.5c-11.1,2.1-24.2,2.3-33.6,9.3c-8.2,6.1-13.1,15.7-15.2,25.5c-4.9,23.9,7.9,44.6,25.8,59.5
			c10.2,8.5,21.6,15.3,33,22c1.2,0.7,2.4-0.5,2.2-1.7c-1.9-13.3-3.8-26.7-5.8-40c-1-6.7-1.9-13.3-2.9-20c-0.5-3.1-1.5-6.8-1.4-10
			c0.1-5.9,0.9-5.3,6.7-6.4c23.9-4.6,47.4-11,70.4-18.7c44.4-14.9,87-34.5,129-55c43-21,85.5-43.1,129.3-62.6
			c21.3-9.5,43.7-16.9,64.8-26.6c13.8-6.4,28.9-16.9,28.1-33.9c-0.4-9.8-6-19.1-10.3-27.6c-5.8-11.3-12.1-22.3-18.8-33.1
			c-12.4-20-26.4-39.1-41.7-57c-14.4-17-31.2-31.6-45.9-48.3c-13.7-15.5-21.3-33.8-28.8-52.9c-9.7-24.7-19.3-49.4-29-74.2
			c-6.5-16.7-12.8-36.9-28.5-47.4c-3.4-2.3-6.9-3.7-10.8-4.8c-8.7-2.6-13.9-6.1-13.8-16.1c0.1-14.3,2.2-28.9,3.3-43.2
			c2.1-27.1,4.2-54.2,6.3-81.3c9.6-125.3,19.3-250.6,28.9-375.9c-1,0.1-2,0.3-2.9,0.4c11,48.9,24.3,97.4,39.8,145.1
			c7.8,24.1,16.2,48,25.2,71.8c6.6,17.6,12.2,38.9,24.9,53.3c29.8,34,57.8-21.7,67.3-44.9c16.5-40.4,21.4-84.4,26.6-127.4
			c12.5-103,24.9-206.1,30.4-309.8c1.4-25.9,2.3-51.8,2.7-77.7c0.2-12.4,0.3-24.8,0.2-37.2c-0.1-15.2-0.5-29.7,19-30.4
			c24.7-0.9,50.4,3.5,74.2,9.4c5.8,1.4,12.9,2.5,18.3,5.1c6.3,3,5,6.3,5.1,12.9c0.2,12.4,0.4,24.8,0.7,37.2
			c2.5,105.8,10.1,213.7,51.2,312.4c0.6,1.5,2.8,1.4,2.9-0.4c5-59.6,6.3-119.4,3.8-179.1c-1.3-29.6-3.5-59.1-6.6-88.5
			c-2.7-24.9-12.7-58.9,4.3-80.7c-0.9-0.4-1.7-0.7-2.6-1.1c5,94.5,23.9,188,56.3,276.9c0.6,1.6,2.8,1.3,2.9-0.4
			c3.5-51.5,2.4-103.3-3.4-154.6c-2.7-24.1-6.5-48.2-11.2-72c-2.5-12.5-5.5-24.9-8.2-37.3c-2.9-13.5-4.6-27.3,1.4-40.2
			c-0.9-0.1-1.8-0.2-2.7-0.4c15.5,85.9,44.4,169,85.5,246c0.7,1.3,2.9,0.7,2.8-0.8c-3.8-63.6-18.9-125.6-37.7-186.3
			c-9.4-30.4-19-61.1-30.1-90.9c-3.8-10.1-9.1-19.3-19.6-23.5c-10.6-4.3-22.6-3-33.6-1.6c-34,4.1-67.9,8.6-101.8,12.9
			c-16.7,2.1-33.4,4.2-50.1,6.3c-10.9,1.4-21.9,2.3-28,12.5c-7,11.8-11,26.5-14.9,39.6c-4.3,14.6-7.7,29.5-10.3,44.5
			c-5.2,29.4-7.6,59.2-8.9,89c-3,65.2-3.9,130.4-8.5,195.5c-2.4,33.7-5.4,67.3-8.9,100.9c-3.3,31.2-5.7,63.2-12.3,94
			c-2.9,13.3-6.9,26.6-14,38.4c-3.3,5.5-7.2,10.6-11.7,15c-2.6,2.5-3.3,3.8-6.2,2c-3.4-2-6.7-7.9-8.9-11c-16.1-22.6-24-49.8-30-76.6
			c-14.2-63.9-25.4-128.6-37.9-192.9c-2.2-11.1-3.7-23.6-11.1-32.6c-6.6-8.1-16.9-10.6-27-9.5c-25.4,2.7-43.7,23.3-62.5,38.4
			c-23,18.6-60.7,32.6-79,0.1c-7.5-13.4-11.3-29.6-14.5-44.5c-3.5-16.3-5.6-33-6.2-49.7c-0.6-16.7,0.5-33.4,2.9-50c-1,0-1.9,0-2.9,0
			c8.6,46,75.7,51.7,112.7,52.9c23.6,0.8,48.4-1.7,69.4-13.3c21.4-11.8,35.1-32.4,39.9-56.1c5.9-29.2,0.5-59.6-5.3-88.3
			c-0.3-1.6-2.4-1.2-2.9,0c-2.8,6.9-7.2,12.1-13.5,16.2c0.8,0.4,1.5,0.9,2.3,1.3c0.1-6.2-1.3-11.3-4.3-16.7c-0.6-1-2-0.9-2.6,0
			c-8,12.8-16,25.6-24,38.3c0.9,0.3,1.9,0.5,2.8,0.8c-0.8-9.2-1.6-18.4-2.4-27.6c-0.1-1.5-2-2.1-2.8-0.8
			c-5.8,9.1-11.5,18.2-17.3,27.3c0.9,0.1,1.8,0.2,2.7,0.4c-1.8-12.6-3.5-25.3-5.3-37.9c-0.2-1.4-2.1-1.3-2.7-0.4
			c-9.3,15.2-18.7,30.4-28,45.6c0.9,0.1,1.8,0.2,2.7,0.4c-1.4-5.5-2.8-10.9-4.1-16.4c-0.3-1.1-1.7-1.5-2.5-0.7
			c-7,7.4-13,15.4-17.9,24.2c0.9,0.1,1.8,0.2,2.7,0.4c-3.3-11.9-6.5-23.8-9.8-35.8c-0.5-1.9-3.3-1.1-2.9,0.8
			c3.9,16.9-5,35.3-22.1,40.4c-17.4,5.2-33.4-4-41.6-19.3c-7.6-14.2-11.6-31.6-15.3-47.2c-4-17-6.4-35.4-1.5-52.5
			c8.1-28.3,38.9-52.4,67.1-32.7c6.6,4.6,12,11.2,14.9,18.9c2,5.4,1.3,12,4.1,17c2.9,5.4,10.9,7.9,14.2,1.5
			c-0.9-0.1-1.8-0.2-2.7-0.4c3.8,16.8,9.6,32.8,17.4,48.2c0.6,1.2,2.4,0.8,2.7-0.4c6.6-19.3,13.2-38.6,19.9-57.8
			c-0.9,0.1-1.8,0.2-2.7,0.4c6.9,16.3,13.8,32.6,20.8,48.9c0.6,1.3,2.3,0.7,2.7-0.4c6-15.1,12-30.2,18-45.3c-1,0-1.9,0-2.9,0
			c3.9,11.3,7.8,22.7,11.6,34c0.4,1,1.7,1.5,2.5,0.7c6.5-6.5,11.5-13.8,15.1-22.4c-0.9,0-1.7,0-2.6,0c5.1,9.8,10.2,19.6,15.4,29.5
			c0.6,1.2,2.3,0.8,2.7-0.4c18.2-52.4,15.1-114.5-14.9-162C704,11.5,638.3-3.8,575.6,0.7c-16.6,1.2-36.2,1.8-50.7,10.8
			c-14.1,8.7-19.5,24.8-23.2,40.1C501.2,53.5,504.1,54.3,504.5,52.4z"/>
	</g>
</g>
<g id="eye_2_">
	
		<ellipse id="eye_1_" transform="matrix(0.5858 -0.8104 0.8104 0.5858 170.0784 484.0362)" class="st0" cx="558.6" cy="75.6" rx="62.9" ry="49.5"/>
	
		<ellipse id="eye" transform="matrix(0.866 -0.5 0.5 0.866 44.9747 353.2199)" class="st0" cx="681.6" cy="92.7" rx="49.5" ry="71.1"/>
	<g id="pupil_1_">
		<g>
			<path d="M569,126.1c-8.3-19.4-15.4-39.2-21.5-59.4c-0.6-1.8-3.5-1.1-2.9,0.8c6.2,20.4,13.5,40.5,21.8,60.1
				C567.2,129.4,569.7,127.8,569,126.1L569,126.1z"/>
		</g>
	</g>
	<g id="pupil">
		<g>
			<path d="M712.3,147.7c-4.7-26.4-11-52.5-18.9-78.1c-0.6-1.8-3.5-1.1-2.9,0.8c7.9,25.6,14.3,51.7,18.9,78.1
				C709.7,150.4,712.6,149.6,712.3,147.7L712.3,147.7z"/>
		</g>
	</g>
</g>
</svg>
