<?xml version="1.0" encoding="utf-8"?>
<!-- Generator: Adobe Illustrator 22.1.0, SVG Export Plug-In . SVG Version: 6.00 Build 0)  -->
<svg version="1.1" id="shocked" xmlns="http://www.w3.org/2000/svg" xmlns:xlink="http://www.w3.org/1999/xlink" x="0px" y="0px"
	 viewBox="0 0 794.3 1577.9" style="enable-background:new 0 0 794.3 1577.9;" xml:space="preserve">
<style type="text/css">
	.st0{fill:#FFFFFF;stroke:#000000;stroke-miterlimit:10;}
		.opacity{ opacity: 0.7;}
	</style>
	
<defs>
	<script>
		(() => {
 		let iconEleven = document.querySelector("#shocked");

		function logThisIconEleven() {
			console.log(this.id);
		}

		iconEleven.addEventListener("click", logThisIconEleven);

		document.querySelector("#shocked").addEventListener("click", opacity);

		function opacity() {
  		document.getElementById("shocked").classList.add("opacity");
		}
		
		})();
	</script>
</defs>
<g id="body">
	<path d="M510.3,187.9c1.8-47.9-37.1-80.9-67-118.3c-36.1-45.1-101.3-51-159-53.2c-38.1-1.4-83.8,1-103.4,33.7
		c-7.2,11.9-9.4,26.1-10,40c-2.5,60.3,26.4,121,74.7,157.2s114.7,46.7,171.9,27.2c-18.6,133.7-51.8,235.7-99.6,360.9
		c-0.9,2.4-4.2,2.8-5.6,0.6c-14.9-23.4-47.7-10.8-77.3-22c-11.6-4.4-24.4-8.8-36.2-5c-18.7,6.1-25,29-28.1,48.4
		C153.4,768.9,150.4,882.7,162,995c1.3,12.5,2.7,25.5-1.3,37.5c-4,11.9-15.3,22.5-27.8,21.2c-10.5-1-18.5-9.6-24.9-17.9
		C68.8,985.1,50,921.6,40.2,858.4C13,684.1,48,505.6,103.1,338.1c6.9-21.1,17.6-45.2,39.3-49.6c12.9-2.6,25.9,2.8,39,4.3
		c13.1,1.6,29.4-3.4,31.9-16.3c-10.9-7.8-25.7-5.2-39-4.9c-13.4,0.3-29.9-4.8-32-18c-1-6,1.4-11.9,3.6-17.5
		c20.8-54.3,23.8-115.3,8.2-171.3c-2.1,48.8-14.1,97.2-35.3,141.3c-20.1-16.7-31.2-43.7-28.7-69.8c1.4-14.8,6.9-29.5,4.3-44.1
		S75.3,64.1,62.5,71.7c-8.1,4.9-10.3,15.6-11.1,25c-3.2,42.9,8.3,86.7,32.2,122.5c5.3,7.9,11.4,16.1,11.8,25.6
		c0.5,11.6-7.4,21.5-14.2,30.9C39.8,333,30,406.6,22.6,476.8C15.5,545,9.7,613.3,5.5,681.8c-5.9,94-8.4,191.1,24.8,279.2
		c15.5,41.2,39.5,80.4,75,106.5c24.9,18.3,65.5,26.8,82.8,1.2c5.3-7.9,7.2-17.5,8.6-26.9c9.8-64.2,9.1-129.7-2.2-193.7
		c-9-50.9-9.7-85.7,12.8-132.1c40.9,13.4,41.5,42.7,49.6,84.9c28.7,149.4,67.2,299.7,75.8,451.6l0,0c56.1,94.2,64.5,215.1,22,316.2
		c58-1.8,116.1,0.8,173.7,7.8c-5-22.9-39.1-14.7-62.2-18.6c-31.5-5.3-48-42.1-47.2-74c0.8-31.9,13.2-62.7,14.8-94.6
		c2.9-56.5-27.6-108.4-48.2-161.1c-21.8-55.7-33-114.9-44.1-173.7c-6.2-32.6-9.6-72.9,17.2-92.6c18.8-13.9,46.3-10.5,65.9,2.3
		c19.6,12.8,32.9,33,44.6,53.3c90.9,157.2,118,341.9,150.1,520.6c1.2,6.5,2.6,13.5,7.6,17.8c5.1,4.3,12.4,4.7,19,4.7
		c36.5,0.5,73.1,1,109.6,1.5c-1.5-13.3-17.1-20.2-30.5-20.6s-27.3,3.1-40-1.1c-28.3-9.2-36-106-33.3-76.4
		c0.8,9.3-35.9-140.7-40.6-153.5c-2.4-6.5,0,0-1.8-6.7c-12-44.7-25.6-78.6-36-108c-14.1-39.8,12.8-61.1-10-96.6
		c-23.8-36.9-47.5-73.9-74.1-108.9c-35.9-47.4-77-91.2-107.4-142.2c-30.5-51.1-23.1-38.2-10.5-96.4c4.6-21.2,94.7-28.6,103.3-23.8
		c45.2,25,92.9,45.3,142.2,60.5c29.2,9,62.1,15.9,89.2,1.9c20.6-10.6,33.9-31.6,43.3-52.8c24-54.5,27.9-115.4,31.4-174.8
		c3.2-53.7,6.5-107.5,9.7-161.2c2.4-39.2,4.7-78.9-3.2-117.4c-5.6-27.7-16.4-54-24.9-80.8c-11.1-34.9-18.8-71.4-36.5-103.5
		c-24.3-44-67.4-77.1-116.1-89.3c-21.4-5.3-43.6-6.8-65.6-8.1c-26.7-1.7-56.6-2.3-76.1,15.9C491,19,515.9,20.5,533,35.6
		c-30.5,5.7-61.8,7.3-92.8,4.5c-3.9,12.5,13.2,20.3,26.2,22.1l73,10.2c3.5,0.5,6.7,2.6,8.2,5.8c4.6,9.5-9.9,15.1-19.3,19.3
		c-16.3,7.1-25.2,27.8-19,44.5c14.5,2.6,28.7-7.7,36.4-20.3c7.7-12.6,10.7-27.4,15.7-41.3c1.4-3.9,3.1-7.8,6.2-10.4
		c3.8-3.1,9.1-3.7,14-3.8c53.8-0.7,97.3,44.5,122.3,92.1c8.6,16.4,15.9,33.6,20.1,51.6c6,26.2,5.2,53.5,4.3,80.4
		c-4,122.2-8,244.3-14.6,366.4c-0.7,13-1.7,26.7-9.1,37.4c-6.1,8.8-15.9,14.4-25.6,19c-16.2,7.9-33.4,13.7-51,17.4
		c-8.6,1.8-17.6,3.1-26.1,0.9c-7.6-1.9-14.2-6.4-21.1-10c-13.5-7.1-28.5-10.9-43.3-14.6c-65.4-16.5-130.7-33-196.1-49.5
		c0.6-32.4,22.3-62.4,31.8-93.4c29.1-95.2,46-191.8,75-287C456.4,250.8,482.3,255.9,510.3,187.9"/>
	<g>
		<path d="M511.8,187.9c0.6-27.5-11.9-51.3-28.3-72.6c-8.7-11.3-18.2-21.9-27.5-32.7C447,72,438.8,60.8,427.9,52
			c-41.5-33.4-101.1-36.4-152.1-37.3c-24.1-0.4-50.4,0.8-72.1,12.3c-24.1,12.8-33.1,36.9-34.2,63.1c-2.4,57,23.1,114.5,66.5,151.4
			c49.5,42.1,120.5,54.9,181.9,34.5c-0.6-0.6-1.2-1.2-1.8-1.8c-8.6,61.2-21.2,121.6-38.1,181.1c-16.5,58.1-36.9,115.1-58.3,171.6
			c-1.2,3.1-2.1,9-7.4,6.4c-1.8-0.9-3.7-4.3-5.4-5.6c-3.6-2.9-7.9-4.9-12.3-6.2c-10.6-3.1-22.1-2.8-33-3.7
			c-6.9-0.6-13.7-1.4-20.3-3.3c-7.5-2.1-14.6-5.5-22.3-7.2c-11-2.3-22.4-1.2-31.1,6.5c-18,15.7-18.9,46-21.9,67.7
			c-4.5,32.7-7.7,65.5-9.7,98.4c-4.2,68.7-3,137.6,3.6,206.1c1.6,16.4,5.7,35.7-2.4,51c-3.6,6.7-9.6,12.8-17.2,14.7
			c-9.6,2.5-18.1-2.7-24.6-9.3c-21-21.6-35.7-51.9-46.6-79.6c-23-58-32-121.4-35.3-183.3c-3.5-66.1,0.9-132.5,10.9-197.8
			c10-65,25.4-129.1,44.2-192.1c4.7-15.6,9.5-31.2,14.6-46.6c4-12.4,8.4-25,15.9-35.8c10.4-14.8,24.7-19.5,42.3-16.4
			c11.9,2.1,23.4,5.9,35.5,2.7c8.5-2.3,15.5-7.5,17.8-16.2c0.2-0.7-0.1-1.3-0.7-1.7c-17.4-11.3-38.4-0.7-56.9-7.8
			c-4.7-1.8-9.4-4.8-11.8-9.4c-3.7-7.1-0.5-14.7,2-21.5c4.1-11,7.7-22.1,10.4-33.5c10.9-45.5,10.1-93.4-2.2-138.5
			c-0.5-1.7-2.9-1.3-2.9,0.4c-2.3,48.7-14.2,96.5-35.1,140.6c0.8-0.1,1.6-0.2,2.4-0.3c-16-13.8-26.5-33.3-28.3-54.5
			c-1.8-20.1,9.2-41,3.8-60.8c-3.3-11.9-16.1-24.9-29.5-21.1c-15.8,4.5-16.2,25.7-16.4,38.8c-0.7,41,11.7,80.7,34.3,114.7
			c7.6,11.4,13.5,22.5,7.1,36c-4.3,9.2-11.4,17-16.9,25.4c-10.9,16.7-19.5,34.9-26.2,53.7C34.2,375.5,28,415.8,23.4,455.9
			c-5.6,48.2-9.9,96.6-13.7,145C2.4,692.6-6.8,786.8,7.4,878.2c6.5,42.1,18.4,84.1,39,121.7c17.1,31.3,42.5,64.5,76.1,79.1
			c26.7,11.6,62.2,10.7,72.4-21.7c6.3-20.1,7.2-43.2,8.7-64.1c1.7-24.2,1.9-48.6,0.7-72.8c-1.2-23.4-3.8-46.7-7.8-69.9
			c-3.6-21-6.9-42-6.2-63.4c0.6-20.1,5.2-39.7,12.9-58.3c1-2.3,1.8-5,3.1-7.1c2-3.3,1.2-3.6,4.9-3c3.9,0.7,8.7,3.8,12,5.9
			c6.4,4,11.8,9.3,15.9,15.7c7.8,12.4,10.4,27.5,13,41.8c3.9,21.3,8,42.6,12.3,63.9c9.5,47,19.5,93.9,28.9,140.9
			c9.6,48,18.5,96.2,25.5,144.6c3.6,25,6.7,50.1,9,75.3c1,11.1,1.9,22.2,2.7,33.4c0.3,4-0.2,9,0.9,12.9c1.5,5.2,6.2,10.8,8.8,15.7
			c38.8,73.9,49.6,161.9,31.1,243.2c-4.4,19.2-10.4,37.9-18,56.1c-0.4,0.9,0.6,1.9,1.4,1.9c58-1.8,116.1,0.8,173.7,7.8
			c1,0.1,1.7-1.1,1.4-1.9c-4-15.2-19.7-17.4-33.2-18.1c-20.4-0.9-40.1,0.5-55.6-15.4c-37.9-39.1-12.4-96-6.8-141.7
			c6.4-52.5-16.6-101-36.9-148c-22.6-52.4-36.6-106.8-47.6-162.7c-7.3-37.2-29.3-107.7,15.5-130.7c24.1-12.4,53-1.2,71.3,16.1
			c19.1,18.1,31.8,42.5,44,65.5c50.1,94.3,79.1,198,101,302c11,52.2,20.2,104.7,29.5,157.2c2.3,13.1,4.5,26.2,7,39.3
			c1.6,8.1,4.1,16.4,12.2,20.1c10.5,4.8,25,2.6,36.1,2.7c14.6,0.2,29.2,0.4,43.9,0.6c15.1,0.2,30.3,0.4,45.4,0.6
			c1.1,0,1.6-1,1.4-1.9c-3.7-21.5-29.6-22.2-46.4-21.2c-10.2,0.6-22.8,2.1-31.1-5.1c-4.7-4.1-7.9-9.9-10.6-15.4
			c-6-12.5-9.5-26.3-12.3-39.9c-1.5-7.2-1.9-15.1-3.9-22.1c-0.4-1.4-2.5-1.5-2.9,0c-0.3,1.1-0.1,3.4,0.3,4.3
			c-0.1-0.3,0.7,7.2,2.8,1.3c0.1-0.4-0.6-1.3-0.6-1.8c-0.1-5.8-3.6-13-5.1-18.6c-5.9-22.7-11.7-45.4-17.4-68.1
			c-5-19.6-9.8-39.2-15.3-58.6c-0.6-2-1.2-4.1-1.8-6.1c-0.4-1.1-0.8-2.2-1.2-3.3c-0.4-1.1,0.2,2.4-0.2,0.9c-0.3-1.3-0.2-3.1-0.6-4.5
			c-5.3-21.4-12.5-42.5-19.8-63.3c-6.1-17.2-14.1-34.5-18.4-52.3c-4.2-17.5,0.4-34.1,1.7-51.5c1.4-18.8-6.2-32.5-16.1-47.9
			c-13-20.1-26-40.2-39.6-60c-25.8-37.5-54.7-72.3-83.1-107.8c-14.6-18.3-28.9-36.9-41.8-56.5c-9.8-14.9-20-30.5-27.6-46.8
			c-4.5-9.6-4.7-18-2.4-28.3c1.6-6.7,3.4-13.3,5.1-20c1.6-6.5,1.8-15.7,6.2-21c6.3-7.7,19.4-10.6,28.6-12.9
			c12.9-3.2,26.2-5.1,39.4-6.3c9-0.8,19.5-2.3,28.4-0.3c7.1,1.5,14,7,20.5,10.3c10.4,5.4,20.9,10.5,31.5,15.4
			c20.5,9.4,41.3,17.9,62.6,25.5c20.8,7.4,42.2,14.8,64.1,18.3c18.2,2.9,37.4,2.7,54.4-5.3c16.4-7.7,28.5-21.8,37.5-37.2
			c21.3-36.6,29.8-80.3,34.7-121.9c5.5-47.2,7.1-94.9,9.9-142.3c2.9-49,7.8-98.3,7.7-147.3c-0.1-23.1-1.9-46.3-7.4-68.9
			c-5.5-22.7-13.9-44.6-21.2-66.7c-13.5-41.1-21.6-85.1-45.9-121.7c-20-30.2-49.1-54.3-82.4-68.6c-19.2-8.2-39.4-12.5-60.1-14.8
			c-21.1-2.3-43-4.4-64.3-3.1c-16.8,1.1-33.1,5.4-46,16.8c-1,0.9-0.2,2.5,1.1,2.6c22.2,0.7,46.1,1.9,63.9,16.9
			c0.2-0.8,0.4-1.7,0.7-2.5c-30.5,5.6-61.5,7.1-92.4,4.5c-0.6-0.1-1.3,0.5-1.4,1.1c-5.9,24.3,37.8,25.5,53.1,27.6
			c12.9,1.8,25.8,3.6,38.8,5.4c2.8,0.4,5.6,0.6,8.4,1.2c9.7,2.2,8.9,11.1,1.9,15.8c-3.9,2.6-8.3,4.2-12.5,6.2
			c-17.5,8.1-26.7,28.1-20.6,46.6c0.1,0.5,0.5,1,1,1c21.8,2.9,37-15.3,44.3-33.7c2.6-6.5,4.5-13.1,6.6-19.7
			c2.7-8.4,5-19.2,14.8-21.6c11.9-2.9,26.7,0.4,38,4.1c48.8,16,82.6,64.5,101,110.1c11.5,28.3,14.2,57.9,13.7,88.2
			c-0.5,31-1.9,62.1-3,93.1c-2.1,63.2-4.4,126.3-7.1,189.5c-1.4,31.3-2.8,62.6-4.5,93.9c-0.8,14.5-0.2,31-8,43.8
			c-7.4,12.2-21.6,18.7-34.2,24.3c-13.8,6-28.2,10.6-42.9,13.6c-8.7,1.8-17.9,3.1-26.5,0.5c-7-2.1-13.1-6.2-19.5-9.5
			c-25.3-13.1-55.4-17.7-82.8-24.7c-30.7-7.7-61.3-15.5-92-23.2c-15.1-3.8-30.2-7.6-45.2-11.4c-4.8-1.2-17.3-2.2-18.3-7.3
			c-1.2-6.3,2.5-16.1,4.4-22.2c7.9-25.5,21.7-48.7,29.4-74.4c8.8-29.3,16.5-59,23.8-88.7c14.8-59.8,28-120,45.5-179.2
			c2.3-7.8,4-15.9,8.9-22.5c3.1-4.3,7.2-7.8,11.1-11.4c11.3-10.2,21.1-21.1,29.1-34.1c6.4-10.4,11.6-21.5,16.4-32.9
			c0.7-1.8-2.2-2.6-2.9-0.8c-10.5,25.2-24.1,46.9-44.3,65.2c-5,4.5-10.1,9-13.7,14.8c-6.9,11.2-9.1,26-12.7,38.5
			c-22,78.5-37.7,158.6-60.3,236.9c-6.2,21.4-14,41.3-23,61.6c-7.5,16.9-14.3,34.2-14.9,52.8c0,0.6,0.5,1.3,1.1,1.4
			c59.3,15,118.6,30,178,45c14.3,3.6,28.9,6.8,42.9,11.5c12.7,4.2,23.4,12,35.8,16.5c12.2,4.4,25.3,1.7,37.5-1.3
			c12.6-3,24.8-7.2,36.7-12.4c10.8-4.8,22.4-10.1,30.5-19c7-7.7,10.1-17.7,11.4-27.9c3.9-29.4,3.6-59.9,4.9-89.5
			c2.8-61.6,5.1-123.2,7.3-184.8c1.1-30.8,2.1-61.6,3.1-92.4c0.9-28.6,2.8-57.7-2.1-86.1c-8.1-46.4-35.6-94.1-71.7-124.5
			c-16.5-13.9-36-24.5-57.5-27.9c-8.7-1.4-19.9-3-28.1,0.9c-9.4,4.5-11.5,17.4-14.3,26.4c-4.3,13.8-8.9,28.4-20,38.4
			c-5.2,4.6-12.3,9-19.5,9.2c-4.5,0.1-6.1-0.7-6.8-4.9c-0.6-3.8-0.6-7.7,0.2-11.5c2.2-11.7,9.8-21,20.5-26c6.5-3,16.4-6,19.4-13.4
			c4.5-11.2-9.1-14-16.9-15.1c-13.8-1.9-27.5-3.9-41.3-5.8c-9.3-1.3-19-2.1-28.2-4.1c-5-1.1-10.2-2.9-14.5-5.7
			c-2.6-1.7-5.1-3.9-6.4-6.8c-2.3-5.2,1.1-5.7,5.6-5.4c15,1,30.1,1,45,0c13.6-0.9,27.2-2.7,40.6-5.2c1.1-0.2,1.5-1.8,0.7-2.5
			c-18.5-15.6-42.9-17-66-17.8c0.4,0.9,0.7,1.7,1.1,2.6C495.4-4,537.7,2.8,569.8,5.8c35.6,3.2,69.1,12.6,98.8,33.2
			c27.9,19.3,49.7,45.9,63.6,76.8c15.4,34.4,23.1,71.9,35.3,107.5c6,17.5,12.2,34.9,16.6,52.9c4.9,20.3,6.9,41.2,7.2,62
			c0.6,39.7-3.2,79.6-5.5,119.3c-2.4,39.9-4.7,79.7-7.2,119.6c-2.4,37.6-5.4,75.5-14.4,112.2c-8,32.4-20.2,70.6-47.1,92.4
			c-30.8,25-72.4,14.3-106.6,3.4c-37.5-11.9-74-26.8-109.1-44.5c-7.8-3.9-15.6-8-23.3-12.2c-2.5-1.3-4.1-2.1-6.8-2.5
			c-7.3-1.1-14.9-0.5-22.2-0.1c-19.7,1.3-40.3,3.9-58.9,10.7c-6.1,2.2-13.1,5-17.4,10.2c-2,2.4-2.6,4.8-3.3,7.8
			c-1.7,7.3-3.5,14.7-5.4,22c-4.2,16-7.3,28.6,0.2,44.1c14.2,29.2,33.6,56.6,53.3,82.3c22.4,29.3,46.5,57.1,68.9,86.4
			c23.9,31.3,45.5,64.2,66.9,97.3c9.5,14.7,18.8,28.2,18.3,46.3c-0.3,13-3.9,25.6-3.9,38.6c0.1,14.6,5.3,27.8,10.2,41.3
			c5.5,15.1,11,30.2,16.1,45.5c2.6,7.8,5.1,15.6,7.5,23.5c1.4,4.7,2.8,9.4,4.1,14.1c0.6,2.1,2.6,11.4,3.8,10.5
			c-0.6,0.4-0.8,1-0.7,1.7c1.6,7.2,4.4,14.4,6.3,21.6c3.4,13,6.8,26,10.1,39c7,27.4,13.9,54.9,21.1,82.3c0.6,2.4,2.2,15,5.6,15.3
			c0.5,0,1.1-0.3,1.3-0.7c0.8-1.8-0.5-5.7-0.3-6.4c-1,0-1.9,0-2.9,0c2,7,2.4,14.9,3.9,22.1c2.7,13,6.1,26,11.5,38.1
			c4,9,9.6,19.3,19.4,22.8c12.9,4.6,27.1,0.5,40.4,1.1c12.3,0.5,26.8,5.9,29.1,19.5c0.5-0.6,1-1.3,1.4-1.9
			c-30.8-0.4-61.6-0.9-92.4-1.3c-13.8-0.2-34.9,3.4-40.5-13c-4.1-12.2-5.1-26-7.4-38.7c-9.5-53.9-18.9-107.7-30.1-161.3
			c-21.9-105.2-51-210.1-101.5-305.6c-20.3-38.3-48.3-92.3-99.5-89.3c-19.1,1.1-35.4,12.4-42.8,30.1c-7.7,18.1-6.6,39-4,58.1
			c3.6,26.4,9.5,52.7,15.1,78.8c6.1,28.3,13,56.4,22.1,83.9c17,51.5,47.1,99.6,55.7,153.7c4.7,29.9-1.1,58-7.2,87.3
			c-4.8,22.7-8.5,46.1-2,68.8c4.8,17.2,15,34.3,31.3,42.7c16.5,8.5,35.6,4.6,53.3,6.9c9.7,1.3,18.6,4.8,21.3,15.1
			c0.5-0.6,1-1.3,1.4-1.9c-57.6-7-115.7-9.6-173.7-7.8c0.5,0.6,1,1.3,1.4,1.9c21.8-52.4,30.3-109.7,25.6-166.2
			c-2.3-27.4-7.7-54.6-16.1-80.8c-4.2-13.1-9.2-26-15-38.6c-2.8-6.2-5.9-12.4-9.1-18.4c-1.6-3-3.4-5.9-5-9c-2.5-4.8-2.7-9.1-3-14.3
			c-8.8-135.1-40.2-267.2-66.9-399.5c-3.5-17.2-7-34.4-10.1-51.6c-2.1-11.7-3.9-23.5-7.5-34.9c-6.6-21-20.6-34.3-41.4-41.4
			c-0.6-0.2-1.4,0.1-1.7,0.7c-10.2,21.3-17.2,43.8-18.6,67.4c-1.5,24.7,2.9,49,6.9,73.3c10,61.1,10.5,124.2,0.9,185.4
			c-2.1,13.4-5.5,27.4-17.4,35.4c-8.6,5.8-19.3,7.1-29.4,6.2c-24.6-2.3-45.3-16.9-62.3-33.9c-38.3-38.3-59.2-91.4-70.6-143.5
			C3.3,849.3,2.1,791.2,4.3,733.8c2.3-60.4,7.1-120.8,12.5-181c5-56.5,8.9-114,21.1-169.5c5.8-26.1,13.8-51.8,25.8-75.7
			c5.6-11.2,12.2-21.9,19.5-32.1c6.3-8.7,13.6-18.1,13.7-29.4c0.1-11.5-7.6-20.7-13.5-29.8c-7.7-11.9-14.1-24.7-19-38
			c-9.5-25.8-13.8-54-11.5-81.5c0.5-6.2,1.4-13,4.9-18.3c5.1-7.8,14.1-9.1,21.8-4.6c15,8.8,14.9,26.3,12.4,41.4
			c-2,12.3-4.7,24.1-3.4,36.6c1,10.1,3.9,20,8.5,29.1c5,10.1,12.1,18.9,20.6,26.3c0.7,0.6,1.9,0.6,2.4-0.3
			c21.1-44.6,33.2-92.8,35.5-142.1c-1,0.1-2,0.3-2.9,0.4c10.3,37.8,12.5,77.5,6.3,116.2c-2.9,18.1-7.6,35.8-14.1,52.9
			c-4.1,11-7.5,22.6,2.9,31.1c10.3,8.5,24.2,7.7,36.7,7.1c4.2-0.2,8.5-0.4,12.8,0c3.1,0.3,12.5,1.2,13.7,4.6
			c2.9,8.6-15.7,13.7-21.4,14.2c-16.4,1.3-32-8.1-48.5-4.2c-11.8,2.8-20.6,11.7-26.8,21.8c-8.1,13.1-12.4,28.2-17.1,42.7
			c-6,18.8-11.8,37.7-17.2,56.7c-10.6,37.1-20,74.6-27.7,112.4C36.8,596.2,28,673,29.4,749.9c1.4,72.6,10.1,148.2,37.5,216
			c6.2,15.3,13.4,30.2,21.9,44.3c8,13.4,17.3,29.5,30.1,39.1c9.7,7.3,21.6,7.9,31.4,0.5c12.1-9.2,15.1-24.4,14.6-38.7
			c-0.6-19.7-3.6-39.4-5-59c-1.4-20.5-2.4-41-2.9-61.5c-0.9-40.5,0-81.1,2.8-121.6c2.7-39.7,5.9-80.5,14-119.5
			c2.9-14.1,8.2-31.1,22.2-37.9c18.1-8.8,38,5.3,56,7.9c13.8,2,28.3,0.7,41.8,4.7c3.5,1,6.8,2.4,9.8,4.5c3.4,2.4,4.7,5.6,7.8,8.2
			c2.2,1.9,4.5,2.6,6.9,0.6c2.6-2.2,3.3-7.1,4.4-10c1.5-4.1,3.1-8.2,4.6-12.3c3.5-9.4,7-18.7,10.4-28.1c6.2-16.9,12.2-33.8,18-50.8
			c22.9-67.3,41.8-135.8,54.5-205.7c3.4-18.5,6.3-37.1,8.9-55.7c0.1-1-0.6-2.2-1.8-1.8c-53.1,17.7-113.4,10.4-160.5-20
			c-47-30.3-78.1-83-83.4-138.5c-2.6-27.4-1.1-59.9,22.1-78.4c19.2-15.3,45.8-18.1,69.6-18.4c25-0.4,50.4,1.2,75.1,4.5
			c25.2,3.5,50.6,9.7,72.6,22.8c12.2,7.3,22.3,16.6,31.3,27.6c9.3,11.4,19.1,22.3,28.5,33.5c19.7,23.6,37.3,49.9,36.6,81.8
			C508.8,189.8,511.8,189.8,511.8,187.9L511.8,187.9z"/>
	</g>
</g>
<g id="eyes">
	<ellipse class="st0" cx="297.3" cy="149.9" rx="70" ry="90"/>
	<ellipse class="st0" cx="413.3" cy="157.8" rx="33.2" ry="62"/>
	<g>
		<g>
			<path d="M300.5,108.4c-7.4,3.3-11.1,10.8-13.4,18.2c-2.9,9.1-4.7,18.7-5.4,28.3c-1.3,18.7,2.3,37.6,14.2,52.5
				c1.2,1.5,3.3-0.6,2.1-2.1c-11-13.8-14.4-31.5-13.4-48.8c0.5-8.7,2-17.2,4.4-25.6c2.2-7.8,5.1-16.3,13.1-19.9
				C303.8,110.2,302.3,107.6,300.5,108.4L300.5,108.4z"/>
		</g>
	</g>
	<g>
		<g>
			<path d="M431.5,131.8c-15.2,11.9-20.1,33.7-11.7,51c0.8,1.7,3.4,0.2,2.6-1.5c-7.8-16.2-2.9-36.4,11.3-47.4
				C435.1,132.7,433,130.6,431.5,131.8L431.5,131.8z"/>
		</g>
	</g>
	<g>
		<g>
			<path d="M424.5,189.6c-0.3-0.9-1-1.5-2-1.6c-0.7,0-1.4,0.4-2,0.8c-1.1,1-1.4,3.2,0.2,3.9c0.7,0.3,1.6,0.2,2.1-0.5
				c0.4-0.6,0.2-1.7-0.5-2.1c-0.1,0-0.2-0.2-0.1,0c0.2,0.3-0.1-0.2,0.1,0.1c0.1,0.2,0.2,0.4,0.2,0.6c0-0.2,0,0.2,0,0.2
				c0.1-0.3-0.2,0.3,0,0c0.1-0.2-0.1,0.1-0.1,0.1c0,0,0.1-0.1,0.1-0.1c0,0,0.1-0.1,0.1-0.1c0.1-0.1-0.3,0.2-0.1,0.1
				c0.3-0.2-0.2,0,0,0c-0.3,0.1-0.9-0.1-1-0.6c0.3,0.8,1,1.3,1.8,1C424.2,191.3,424.7,190.4,424.5,189.6L424.5,189.6z"/>
		</g>
	</g>
</g>
</svg>
