<?xml version="1.0" encoding="utf-8"?>
<!-- Generator: Adobe Illustrator 22.1.0, SVG Export Plug-In . SVG Version: 6.00 Build 0)  -->
<svg version="1.1" id="chill" xmlns="http://www.w3.org/2000/svg" xmlns:xlink="http://www.w3.org/1999/xlink" x="0px" y="0px"
	 viewBox="0 0 701.7 1776.1" style="enable-background:new 0 0 701.7 1776.1;" xml:space="preserve">
	<style type="text/css">
	.color{fill:#FFB1EE;}
	.st0{fill:#020202;}
	.st1{fill:#FFF5F5;stroke:#000000;stroke-miterlimit:10;}
	</style>

<defs>
	<script>
		(() => {
 		let iconTwelve = document.querySelector("#chill");

		function logThisIconTwelve() {
			console.log(this.id);
		}

		iconTwelve.addEventListener("click", logThisIconTwelve);

		document.querySelector("#chill").addEventListener("click", color);

		function color() {
  		document.getElementById("chill").classList.add("color");
		}
		
		})();
	</script>
</defs>
<g id="body">
	<path class="st0" d="M381.2,191.7c0.1,45,0.1,90,0.2,135c0,24.9,11.9,90.4-6.5,107.4c-9.5,8.8-41.1,11.4-54,16.4
		c-16.6,6.3-32.8,13.8-48.4,22.4c-15.5,8.5-61.2,93.6-63.1,112.7c-14.4,140.9,38.4,234.9-5,369.7c-18.8,58.4-58.9,118.3-37.5,175.9
		c10.8-24.8,18.3-50.9,22.3-77.7c-3.1,32.2,1.3,65.1,12.9,95.3c5.4-23.4,10.8-46.8,16.3-70.2c9,23,14.2,47.6,15.2,72.3
		c43.6-155.2,75.3-249,35.9-405.4c-6.4-25.3-7.6-50-5.3-76c2.2-26-0.7-88,29.3-116c15.1-14.1,19.7-19.4,36.4-31.6
		c-26,127.8-9.3,260.2-18.7,390.3c-14.2,196.5-87.8,383.7-172.5,561.6c-17.9,37.6-45.6,80.7-87.2,78.5
		c-16.5-57.2-33-114.5-49.5-171.7c-2.9,96.4,6.3,193.1,27.1,287.3c157-106.6,263.2-284.8,282.3-473.5c5.8-56.8,4.2-115.2,23-169.1
		c2.2-6.3,4.9-12.8,10.2-16.8c6.6-5,15.6-5,23.9-4.7c21.5,0.6,43,1.3,64.6,1.9c23.1,218-96.4,425.3-117.9,643.5
		c-2,19.9-6.3,44.3-25.3,50.7c-31-39.9-59.7-81.5-86.2-124.6c28.2,67.9,66.5,131.7,113.3,188.5c5.4,6.6,13.9,13.7,21.4,9.6
		c4.7-2.6,6.2-8.5,7.2-13.8c67.5-340.6,135.1-683.3,143.4-1030.4c1-42.8-2.1-145.4,12.5-185.6c-1.3,85.4,0.9,229.5-0.4,314.9
		c-0.2,12.5-0.4,25.2,2.4,37.4c8.6,38.4,48.9,67,88,62.2c40.5-4.9,71.8-40.6,84.1-79.4c12.3-38.8,9.5-80.6,6.5-121.3
		c-10-135.5-19.9-271-29.9-406.4c-0.7-9.7-1.3-19.9,3.1-28.5c4.6-8.8,13.7-14.5,18.7-23.1c14.8-25.4-13.1-53.9-37.7-70.1
		c14.3,6,29.9,13.3,35.7,27.7s-8.1,35-22.2,28.6c3.2-13.4,6.5-26.9,9.7-40.3c-0.3,12-9.2,23.3-20.8,26.3
		c-15.7-21.5-1.5-52.1,16.5-71.7c18-19.6,41.2-37.8,45.3-64.1c-49.9,20.6-90.4,63.1-108.6,113.9c-7.1-28.2-16.5-55.9-28-82.7
		c-6.7,67.9,26.3,132.5,44.5,198.3c18.8,68.1,21.9,139.4,24.9,210c4.1,96.3,8.2,193.2-4.1,288.8c-2.2,17.5-6.3,36.9-20.9,46.6
		c-36.5,24.3-40.4-33.2-40.5-52.3c-0.3-42.8-0.6-85.6-0.9-128.4c-0.6-84-1.2-167.9-1.8-251.9c0-5-0.4-10.8-4.4-13.8
		c-3.3-2.5-7.8-2.2-11.9-2.6c-11.8-1.3-21.3-9.7-31.5-15.8c-30.8-18.5-69.3-16.4-105.2-13.7c-3.2-76.5-6.3-153.1-9.5-229.6
		c-0.3-6.1-0.4-12.4,2.2-17.9c4.5-9.3,15.5-13,24.4-18.3c32.4-19.3,38.9-67,21.3-100.3c-26.3-49.6-112.9-95.4-153.8-36.7
		c-14.1,20.3-17.9,45.9-18.5,70.6c-0.6,24.1,2,49.6,15.8,69.4C312.4,196,351.7,206.1,381.2,191.7z"/>
	<g>
		<path d="M379.7,191.7c0.1,45.8-1.1,91.8,0.2,137.7c0.8,27.7,6.8,55.8,2.4,83.4c-0.9,5.6-2.2,11.6-5.4,16.5
			c-4.1,6.4-11.5,8.7-18.5,10.7c-14.1,4-28.7,5.4-42.4,10.8c-8.4,3.3-16.7,6.9-24.8,10.8c-7.1,3.4-15.4,6.6-21.6,11.5
			c-6.5,5.1-11.4,12.9-16,19.7c-14.4,21.5-27,44.7-37.4,68.4c-3.3,7.4-6.9,15.3-8.2,23.3c-3.1,19.1-2.9,39.4-2.7,58.7
			c0.8,75.4,19.2,150.1,14.1,225.7c-3.2,47.9-17.6,91.7-35.7,135.8c-16.4,40-33.6,83.8-18.4,126.9c0.4,1.1,2.2,1.7,2.7,0.4
			c10.7-25,18.3-51.1,22.4-78c-1-0.1-2-0.3-2.9-0.4c-2.9,32.6,1.5,65.1,12.9,95.7c0.5,1.3,2.5,1.6,2.9,0
			c5.4-23.4,10.8-46.8,16.3-70.2c-1,0-1.9,0-2.9,0c8.9,23.1,14,47.2,15.2,71.9c0.1,1.7,2.5,2.1,2.9,0.4
			c24.3-86.5,52.7-174,53.9-264.8c0.6-46-5.8-91.8-16.7-136.4c-9.7-39.7-7.6-79.8-4.3-120.3c1.7-20,4.8-41.1,14.4-59.1
			c5.2-9.7,12.7-16.6,20.5-24.1c8.8-8.4,17.9-16.2,27.7-23.5c-0.7-0.6-1.5-1.1-2.2-1.7c-17,84.5-15.8,171-15.5,256.8
			c0.3,86.6-3.3,172.1-19.8,257.3c-15.8,81.9-40.5,161.9-70.1,239.9c-15,39.6-31.4,78.6-48.5,117.3c-15.7,35.4-30.5,72.3-50.4,105.6
			c-9.5,16-21.2,31.8-36.8,42.2c-7.4,4.9-15.7,8.5-24.5,9.9c-7.7,1.2-9.9,1.3-12.1-6.6c-1.7-6.1-3.5-12.1-5.2-18.2
			c-13.9-48.4-27.9-96.8-41.8-145.3c-0.5-1.6-2.9-1.3-2.9,0.4c-2.7,96.6,6.4,193.3,27.2,287.7c0.2,0.9,1.4,1.4,2.2,0.9
			c82.3-56.2,150.8-131.5,200.1-218.1c50.4-88.5,78.3-186.1,85.5-287.4c2.2-31.6,3.7-63.3,9.3-94.5c2.6-14.7,6-29.5,11.2-43.5
			c2.8-7.8,6.1-14.8,14.1-18.3c7.7-3.3,17.1-2.1,25.3-1.9c15.9,0.5,31.7,0.9,47.6,1.4c4.2,0.1,7.6-0.7,9.2,3.4
			c1.1,3,0.7,7.5,0.9,10.7c0.5,7.1,0.9,14.2,1.2,21.3c1,28.8-0.2,57.6-3.2,86.2c-12,116-51.2,226.9-81.4,338.9
			c-14.9,55.2-27.8,111.2-34.5,168.1c-1.5,12.5-2.1,25.2-5.5,37.3c-1.7,5.8-4,11.5-7.6,16.3c-1.7,2.3-4.4,5.6-7.1,6.7
			c-5.1,2.1-8.9-3.4-11.8-7.2c-18.6-24.5-36.4-49.6-53.4-75.2c-8.5-12.8-16.7-25.8-24.8-38.9c-0.8-1.4-3.4-0.5-2.7,1.2
			c19,45.6,42.3,89.2,69.8,130.2c13.6,20.2,27.8,40.5,43.8,58.9c4.4,5,10.5,11.5,17.9,11.2c7.8-0.2,11.1-7.2,12.7-13.8
			c6.4-26.1,10.5-53,15.7-79.4c5.3-26.8,10.5-53.7,15.7-80.5c10.4-53.7,20.6-107.5,30.3-161.3c38.7-213.9,70.3-429.7,80-647
			c2-44.9,2.1-89.7,2.8-134.7c0.3-21.3,1-42.6,2.8-63.8c1.5-17.3,3.3-35.1,9.1-51.6c-1-0.1-2-0.3-2.9-0.4
			c-1.1,77.9-0.1,155.9,0,233.8c0,18.6,0,37.2-0.2,55.9c-0.1,18.8-1.8,38.2,1,56.8c5.2,34.5,34.1,62.5,68.2,68.7
			c34.4,6.2,66.6-12.5,86.9-39.3c25.4-33.5,30.8-76.1,30-117c-1-51-6.7-102.1-10.4-152.9c-3.8-52.1-7.7-104.2-11.5-156.3
			c-2.1-28.9-4.3-57.9-6.4-86.8c-1.1-15.1-2.2-30.1-3.3-45.2c-1-13.3-3.8-28.5,3.5-40.5c5.7-9.3,15.6-15,19.7-25.5
			c2.9-7.5,2.5-15.5-0.1-23c-6.6-19.1-24.2-33.5-40.4-44.4c-0.5,0.9-1,1.7-1.5,2.6c15.6,6.6,41.1,18.3,35.4,39.5
			c-1.3,4.7-3.9,9.1-7.8,12.1c-2,1.5-5,3.4-7.7,3.1c-3.8-0.4-3.6-0.7-3.1-4.3c1.8-11.8,5.7-23.6,8.5-35.3c-1-0.1-2-0.3-2.9-0.4
			c-0.6,8.8-6.1,20.5-15.5,23.2c-8,2.3-9.3-14.2-9.1-19.9c0.6-17,10.1-33.2,21.1-45.7c18-20.7,42.2-38.1,47.5-66.7
			c0.2-1-0.7-2.3-1.8-1.8c-50.7,21.4-90.7,63.3-109.6,115c1,0,1.9,0,2.9,0c-7.3-28.4-16.7-56.1-28.1-83.1c-0.6-1.5-2.7-0.5-2.8,0.8
			c-3.6,40.1,6,79.1,18.1,117c12.8,39.9,27.4,79,35.5,120.3c8.4,43.2,11.8,87.3,14.1,131.2c2.2,43.6,4,87.3,5.2,131
			c1.1,44.2,1.2,88.4-1.5,132.5c-1.3,22.5-3.2,45-6.4,67.4c-2.5,17.9-7.4,37.6-25.2,46.1c-26,12.4-31.3-25.8-32.5-43.1
			c-2.6-37.5-0.9-75.8-1.1-113.4c-0.6-89.2-1.3-178.4-1.9-267.6c-0.1-13.1,1.6-26.1-14.2-28c-19.1-2.3-32.7-16.9-50.4-23.6
			c-16.5-6.2-34.2-7.9-51.7-8c-9.4-0.1-18.7,0.4-28.1,1c-1.4,0.1-6.3,1.2-7.3,0.5c-2.4-1.6-1.3-3-1.7-5.2
			c-1.3-6.5-0.6-14.3-0.9-20.9c-1.9-44.7-3.7-89.3-5.6-134c-0.9-22.6-2.1-45.2-2.8-67.8c-0.4-12.5,2.1-21.1,13-27.9
			c6.2-3.8,12.9-6.5,18.7-11c21.5-16.7,28.7-46.2,24.6-72.1c-4.3-26.7-21.6-48.7-42.5-64.9C397.8,11.2,372.9-0.4,347.5,0
			c-26.8,0.5-48.2,16.7-59.5,40.6c-7.5,15.8-10.3,33.3-11.3,50.6c-1,17.4-0.6,35.4,3.8,52.3c7.8,29.6,30.5,51.3,61.1,55.6
			c13.9,1.9,27.7-0.1,40.3-6.1c1.7-0.8,0.2-3.4-1.5-2.6c-24.2,11.3-54.1,7.1-74.5-10.1c-23.3-19.6-27.3-51.9-26.6-80.6
			c0.7-28.2,5.7-59.4,26.8-79.9c16.1-15.6,38.7-19.4,60.1-14.9c40.4,8.6,83,42.8,90.6,84.9c4.2,23.4-0.9,50.1-18.5,67.1
			c-8,7.8-18.6,11.1-27.3,17.8c-9.9,7.5-10.6,17.6-10.2,29.3c3,76,6.3,151.9,9.5,227.9c0,0.8,0.7,1.6,1.5,1.5
			c23.2-1.7,46.9-3.3,69.9,0.9c11.2,2.1,22.1,5.6,32,11.1c8.9,5,16.8,12,26.5,15.5c5.1,1.8,10.4,1.1,15.3,2.7
			c8.8,2.8,7.8,10.9,7.8,17.7c0.1,13.8,0.2,27.6,0.3,41.4c0.2,26.5,0.4,52.9,0.6,79.4c0.4,53,0.7,106,1.1,158.9
			c0.2,26.6,0.4,53.2,0.6,79.8c0.1,13.7-0.2,27.4,1.9,40.9c2.8,18.6,12.2,44.4,35.7,33.1c15.9-7.7,22.4-24,25.4-40.5
			c4.4-23.7,5.9-48.1,7.4-72.1c3.3-52.7,2.8-105.6,1-158.3c-1.7-51.6-3.3-103.5-7.5-155c-4.4-54.9-14.1-108.2-31.5-160.6
			c-17.4-52.3-38.2-105.4-33.2-161.5c-0.9,0.3-1.9,0.5-2.8,0.8c11.4,26.7,20.6,54.2,27.8,82.4c0.4,1.5,2.4,1.3,2.9,0
			c18.5-50.6,57.9-92,107.5-112.9c-0.6-0.6-1.2-1.2-1.8-1.8c-5.5,30.1-32.4,47-50.2,69.6c-14.7,18.5-26.2,45.6-11.5,67.4
			c0.4,0.5,1,0.9,1.7,0.7c12.6-3.9,21-14.6,21.9-27.7c0.1-1.7-2.6-2-2.9-0.4c-3.2,13.4-6.5,26.9-9.7,40.3c-0.2,0.8,0.3,1.6,1,1.8
			c14.5,5.3,26.1-10.6,25.4-23.9c-0.9-19-22.9-28.9-37.7-35.2c-1.7-0.7-3.2,1.5-1.5,2.6c16.1,10.8,34.1,25.5,39.7,44.8
			c3.2,10.8,0.1,21.1-7.2,29.4c-5.6,6.4-12.3,11.8-15.5,19.9c-3.3,8.3-2.6,17.5-2,26.3c0.9,12.7,1.9,25.5,2.8,38.2
			c1.8,24.3,3.6,48.6,5.4,72.9c7.1,96.1,14.1,192.2,21.2,288.3c3.3,44.6,8,92.2-8.4,134.9c-13.4,34.9-43.4,68.1-82.6,71.5
			c-36.9,3.2-74.2-23.1-83.5-59c-4.9-18.9-2.8-39.4-2.6-58.8c0.2-17,0.2-34.1,0.2-51.1c0-81.4-1.2-162.8,0-244.2
			c0-1.8-2.4-1.9-2.9-0.4c-10.3,29.2-10.5,62.8-11.5,93.4c-1,33.1-0.4,66.3-1.3,99.4c-2.7,104.6-10.8,209-22.7,312.9
			c-23.8,209.3-62.7,416.5-103.3,623.1c-5.7,29-10.9,58.2-17.2,87.2c-0.6,2.8-1.1,6.1-2.6,8.6c-5.1,8.5-13.2,4.9-18.9-0.2
			c-4.7-4.2-8.5-9.6-12.4-14.5c-8.9-11.3-17.6-22.8-25.8-34.5c-31.6-44.8-58.1-93-79.2-143.6c-0.9,0.4-1.8,0.8-2.7,1.2
			c26.6,43.1,55.5,84.8,86.5,124.9c0.3,0.4,1,0.6,1.5,0.4c15.2-5.7,21.2-20.8,24.2-35.7c4.4-22.3,5.4-45.3,9.1-67.8
			c8-48.8,20-96.9,33.1-144.6c26.2-95,57.6-189.1,72.5-286.8c8.1-53.2,11-107.1,5.5-160.7c-0.1-0.8-0.6-1.5-1.5-1.5
			c-17-0.5-34-1-51-1.5c-11.7-0.3-26.6-3-37.1,3.8c-9.4,6.1-12.5,19.1-15.5,29.2c-4.4,14.9-7.5,30.1-9.7,45.5
			c-8.6,58.7-7.6,118.1-19.6,176.5c-21.8,105.3-70.2,204.9-138.8,287.6c-38.5,46.4-83.2,87.4-133,121.4c0.7,0.3,1.5,0.6,2.2,0.9
			c-20.7-94.1-29.8-190.5-27.1-286.9c-1,0.1-2,0.3-2.9,0.4c16.5,57.2,33,114.5,49.5,171.7c0.2,0.7,0.8,1.1,1.4,1.1
			c60.3,1.9,87.3-76,107.6-120.1c31.1-67.4,60-135.9,84.4-206c24.4-70.1,44.3-141.9,56.8-215.1c12.7-74.3,15.7-149.1,15.6-224.4
			c-0.2-88.9-2.2-178.4,15.4-266c0.2-1.1-1.1-2.5-2.2-1.7c-14.8,10.9-30.7,23.5-42.2,37.9c-10.2,12.7-15.3,28.8-18.4,44.5
			c-3.2,16.2-4.1,32.6-4.9,49c-0.9,19.7-2.9,39.2-1.3,58.9c2,25.1,9.7,49.2,14.3,73.9c4.6,24.4,7.7,49.1,8.8,73.8
			c2,44.5-2.7,88.9-11.6,132.5c-10.9,53.8-26.9,106.5-41.7,159.3c1,0.1,2,0.3,2.9,0.4c-1.2-25-6.3-49.4-15.3-72.7
			c-0.5-1.3-2.5-1.6-2.9,0c-5.4,23.4-10.8,46.8-16.3,70.2c1,0,1.9,0,2.9,0c-11.3-30.4-15.7-62.6-12.8-94.9c0.1-1.7-2.7-2.1-2.9-0.4
			c-4.1,26.6-11.5,52.5-22.1,77.3c0.9,0.1,1.8,0.2,2.7,0.4c-14.5-41,1-82.8,16.6-121c15.6-38.2,29.7-75.8,35.2-116.9
			c10.1-75.2-7.1-149.7-10.9-224.7c-1-20-1.1-40.1,0-60.1c0.7-13,1.5-24.9,6.3-37c9.4-23.8,22-46.8,35.6-68.5
			c5.5-8.8,11.2-18.4,18.8-25.5c4.5-4.2,10.5-6.6,15.9-9.3c10.6-5.3,21.5-10.2,32.6-14.6c13.8-5.4,28.8-6.5,42.9-10.8
			c9.2-2.8,16.4-6.6,20.4-15.7c5.6-12.9,5.3-28.4,4.9-42.1c-0.4-15.8-2.2-31.5-3.2-47.3c-1.4-21.8-0.5-43.9-0.5-65.8
			c0-26.5-0.1-53.1-0.1-79.6C382.7,189.7,379.7,189.7,379.7,191.7z"/>
	</g>
</g>
<g id="eyes">
	<ellipse transform="matrix(0.5947 -0.804 0.804 0.5947 69.2887 302.9339)" class="st1" cx="335.1" cy="82.7" rx="68.9" ry="28.6"/>
	
		<ellipse transform="matrix(0.3861 -0.9225 0.9225 0.3861 135.6895 431.7796)" class="st1" cx="392.2" cy="113.9" rx="58.7" ry="24.5"/>
	<g>
		<g>
			<path d="M336,48.4c3.3,2.6,3.6,7.8,4.3,11.6c0.8,4.5,1.4,9,1.7,13.5c0.7,8.4,0.6,16.8-0.1,25.2c-0.2,1.9,2.8,1.9,3,0
				c0.9-10.3,0.8-20.6-0.4-30.8c-0.8-6.6-0.7-17.2-6.4-21.7C336.6,45.1,334.5,47.2,336,48.4L336,48.4z"/>
		</g>
	</g>
	<g>
		<g>
			<path d="M393.9,91.6c4,12.6,4.4,25.6,1,38.4c-0.5,1.9,2.4,2.7,2.9,0.8c3.5-13.3,3.2-26.9-1-40C396.2,89,393.3,89.8,393.9,91.6
				L393.9,91.6z"/>
		</g>
	</g>
</g>
</svg>
