<?xml version="1.0" encoding="utf-8"?>
<!-- Generator: Adobe Illustrator 16.0.4, SVG Export Plug-In . SVG Version: 6.00 Build 0)  -->
<!DOCTYPE svg PUBLIC "-//W3C//DTD SVG 1.1//EN" "http://www.w3.org/Graphics/SVG/1.1/DTD/svg11.dtd">
<svg version="1.1" id="parasite" xmlns="http://www.w3.org/2000/svg" xmlns:xlink="http://www.w3.org/1999/xlink" x="0px" y="0px"
	 width="1200px" height="1000px" viewBox="0 0 1200 1000" enable-background="new 0 0 1200 1000" xml:space="preserve">

	 <style type="text/css">
		.opacity{opacity: 0.7}
	</style>

<defs>
	<script>
		(() => {
 		let iconSeven = document.querySelector("#parasite");

		function logThisIconSeven() {
			console.log(this.id);
		}

		iconSeven.addEventListener("click", logThisIconSeven);

		document.querySelector("#parasite").addEventListener("click", opacity);

		function opacity() {
  		document.getElementById("parasite").classList.add("opacity");
		}
		
		})();
	</script>
</defs>
<g id="body">
	<path d="M426.309,978.23c-4.136-14.941-3.076-31.615-3.076-47.729c0-30.516-12.654-56.621-15.122-86.588
		c-2.722-33.041-2.693-66.164-5.221-99.269c-2.349-30.768-5.816-55.03-14.74-83.771c-5.197-16.736-4.493-39.182-6.834-56.869
		c-2.371-17.91-1.161-36.771-1.161-55c0-32.494-1.326-64.76-4.615-96.924c-1.327-12.977-4.795-25.38-8.814-37.345
		c-5.062-15.067-1.727-19.717-0.148-36.311c15.752,8.827,37.014,8.277,55.117,5.957c40.734-5.222,30.379-25.464,35.69-52.229
		c5.674-28.59,14.675-56.195,27.386-81.617c15.385-32.308,7.692-69.231,1.538-104.615c-9.229-44.616,9.231-104.616,60-106.154
		c35.386,0,98.462,1.538,121.539,30.769c21.539,29.231,32.309,163.077-29.229,126.154c-15.385,24.615-38.462-10.769-52.309,20
		c-10.769,26.154,6.154,35.385,26.154,15.385c1.539,1.539,3.077,3.077,6.154,4.615c6.154-6.154,12.308-13.846,16.923-21.539
		c1.538,4.616,4.615,10.77,4.615,16.923c1.538-4.615,9.23-9.231,12.308-12.308c0,3.077,3.077,6.154,3.077,9.23
		c1.538-4.615,6.153-7.692,7.692-10.769l10.77,1.539c4.615,7.692-3.077,43.077-7.693,49.23
		c-10.769,13.846-41.536,15.385-58.461,13.846c-27.691-1.539-26.153-13.846-43.076-32.308c-10.771-10.769-27.692-20-44.616-10.769
		c-29.23,16.923-30.77,66.154-40,96.923c-7.692,27.691-18.461,38.461,12.308,44.614c21.539,4.616,30.771-1.538,49.231-13.846
		c16.923-10.771,29.23-15.385,47.691-18.462c6.154,38.462,7.692,76.923,7.692,115.385c0,24.615-13.846,100,26.154,103.076
		c24.614-52.307,50.77-103.076,76.923-155.384c13.847-27.692,44.616-87.692,72.308-101.539
		c47.692-24.615,75.385,23.077,81.539,63.077c3.076,18.461,18.461,95.385-4.616,103.075l-1.538,4.615
		c-4.615-15.384,3.077-30.769,3.077-46.153c0-21.537-10.77-33.846-18.462-52.308c-20,36.923,7.692,87.692-13.846,124.615
		c-4.615-35.385,4.615-83.077-9.23-116.923c-16.924,23.077-16.924,84.614-10.77,110.769c-44.615-46.153,13.846-116.922-26.154-160
		c-33.846,13.847-47.691,64.616-64.615,92.309c-21.541,35.39-38.463,66.159-52.31,104.62c-7.927,22.02-15.966,54.02-44.038,54.836
		c-28.554,0.83-61.501-0.289-90.895,5.159c-22.054,4.089-46.785,0.289-68.082,7.996c-22.703,8.217-10.088,24.679-9.329,44.355
		c0.466,12.094,2.059,23.592,8.108,33.762c8.484,14.266,32.615,29.533,48.851,30.814c30.896,2.438,36.896-19.08,49.611-41.574
		c13.433-23.762,16.833-44.588,45.769-50.394c23.764-4.766,41.874-20.457,63.504-32.264c30.166-16.463,59.285,7.744,61.195,40.609
		c-10.231-13.578-17.953-22.947-36.572-18.26c39.922-0.671,36.078,52.021,29.106,76.799c4.892-14.613-12.34-43.14-26.307-46.943
		c2.978,7.518,11.418,10.848,14.883,18.178c3.234,6.842,1.886,15.703,1.888,23.42c0.002,14.742,5.225,49.527-19.843,45.5
		c14.326-17.116,3.013-49.953-2.077-68.914c-5.267-19.62-6.591-25.791-27.384-27.696c-18.802-1.726-29.424-3.742-37.363,13.11
		c-7.889,16.738-11.649,40.322-11.794,58.66c-0.316,39.896-3.271,79.604,0.422,119.42c3.491,37.674,4.026,76.32,5.694,114.146
		c0.679,15.35,3.406,29.744,2.995,45.199c-15.104,3.368-25.177-7.718-29.106-20.47c-6.334-20.547-8.302-41.133-16.519-61.93
		c-13.129-33.229-25.672-61.117-66.601-57.404c-35.257,3.197-14.597,73.119-19.886,100.035
		c-2.149,10.943-4.761,24.211-14.316,29.604c-13.775,7.771-32.674-0.972-47.301,4.241"/>
	<g>
		<path d="M428.72,977.565c-4.032-15.364-3.023-31.34-2.986-47.063c0.033-14.393-2.93-28.555-6.311-42.474
			c-3.546-14.601-7.472-29.101-8.812-44.114c-1.473-16.491-2.033-33.071-2.684-49.61c-1.21-30.788-2.417-61.683-7.394-92.141
			c-2.321-14.207-5.743-28.198-9.974-41.953c-4.141-13.462-4.426-27.848-5.391-41.794c-0.636-9.198-2.004-18.317-2.512-27.523
			c-0.595-10.786-0.253-21.614-0.086-32.409c0.347-22.318-0.228-44.671-1.442-66.957c-1.159-21.274-2.184-42.922-7.728-63.581
			c-2.376-8.855-6.499-17.536-6.861-26.798c-0.295-7.547,1.777-15.232,2.537-22.721c-1.254,0.721-2.508,1.439-3.762,2.159
			c11.393,6.131,24.209,7.812,36.994,7.754c11.916-0.052,24.856-1.111,36.12-5.233c6.736-2.466,12.556-6.783,15.69-13.347
			c2.986-6.252,3.296-13.502,3.774-20.295c1.853-26.271,9.856-52.332,19.583-76.692c5.507-13.79,13.028-26.522,16.292-41.126
			c3.062-13.702,2.913-27.959,1.688-41.867c-2.169-24.605-10.022-48.757-8.741-73.584c1.027-19.915,7.307-40.674,20.689-55.818
			c6.446-7.295,14.699-12.687,23.959-15.66c9.475-3.042,19.425-2.505,29.232-2.329c21.895,0.393,44.022,1.92,65.287,7.427
			c16.357,4.236,35.048,11.76,43.209,27.626c5.967,11.602,8.688,25.106,10.713,37.883c2.41,15.198,3.208,30.822,1.83,46.16
			c-1.033,11.498-3.354,25.294-11.729,33.936c-8.528,8.798-20.896,4.505-30.026-0.888c-1.218-0.719-2.678-0.238-3.42,0.897
			c-7.098,10.844-16.617,7.697-27.429,5.889c-10.509-1.758-18.31,2.109-23.556,11.416c-4.449,7.894-8.942,23.496-0.105,30.267
			c9.445,7.239,22.21-2.679,28.861-9.158c-1.18,0-2.356,0-3.535,0c2.031,2.014,4.139,3.638,6.66,5.006
			c0.984,0.535,2.224,0.428,3.028-0.391c6.581-6.69,12.407-14.042,17.314-22.044c-1.523-0.199-3.047-0.398-4.57-0.597
			c1.879,5.361,4.276,10.493,4.526,16.259c0.098,2.247,3.613,3.72,4.658,1.262c2.212-5.206,7.946-8.07,11.916-11.802
			c-1.423-0.589-2.845-1.178-4.268-1.768c0.429,3.32,2.657,5.983,3.077,9.23c0.368,2.844,3.812,3.35,4.911,0.665
			c1.631-3.993,5.277-6.524,7.438-10.172c-0.939,0.383-1.882,0.766-2.822,1.149c2.841,0.406,5.683,0.812,8.522,1.218
			c0.611,0.087,1.224,0.175,1.834,0.262c1.002,0.143-1.152-1.527-0.686-0.191c0.591,1.69,0.626,3.554,0.678,5.322
			c0.271,9.246-1.765,18.735-4.038,27.644c-2.139,8.382-4.334,14.308-12.218,18.74c-9.605,5.399-21.648,6.622-32.446,7.09
			c-10.188,0.442-21.61,0.395-31.249-3.196c-8.241-3.07-12.853-11.19-17.716-17.953c-13.37-18.587-36.975-35.235-59.315-20.081
			c-16.867,11.443-23.478,33.139-28.045,51.909c-4.964,20.4-8.615,40.729-15.238,60.711c-1.959,5.909-4.506,12.769-2.604,19.013
			c1.987,6.525,9.291,9.286,15.189,11.03c10.494,3.103,21.875,4.471,32.504,1.358c11.482-3.36,21.054-11.55,31.186-17.551
			c12.815-7.591,26.496-12.055,41.125-14.557c-1.024-0.582-2.05-1.164-3.075-1.746c4.975,31.487,6.921,63.315,7.456,95.164
			c0.29,17.287-0.809,34.151-1.727,51.38c-1.302,24.436-3.121,70.664,30.528,73.753c0.797,0.073,1.816-0.515,2.157-1.238
			c26.368-55.972,54.271-111.308,82.48-166.372c10.173-19.856,21.057-39.468,33.958-57.699
			c12.279-17.352,26.725-33.624,48.556-37.757c21.417-4.054,38.291,11.027,48.183,28.382c8.813,15.465,11.946,32.604,14.908,49.893
			c2.963,17.287,5.46,34.74,5.863,52.298c0.188,8.177-0.087,16.524-2.097,24.488c-0.736,2.917-1.829,5.696-3.472,8.222
			c-1.658,2.553-4.24,2.834-6.152,4.747c-1.285,1.285-1.628,4.06-2.183,5.718c1.607,0,3.216,0,4.822,0
			c-2.774-10.279-0.442-20.414,1.476-30.623c1.596-8.495,2.107-16.771,0.812-25.346c-2.353-15.55-11.887-28.876-17.924-43.089
			c-0.736-1.736-3.515-1.53-4.316,0c-20.528,39.126,7.933,86.116-13.846,124.615c1.553,0.421,3.104,0.841,4.658,1.262
			c-4.833-38.76,5.505-80.331-9.319-117.587c-0.823-2.067-3.249-2.449-4.569-0.597c-10.81,15.149-13.013,36.13-14.293,54.146
			c-1.37,19.289-1.075,39.618,3.271,58.548c1.394-0.812,2.786-1.622,4.179-2.433c-43.063-45.479,15.263-114.38-26.154-160
			c-0.819-0.903-2.018-0.82-3.028-0.391c-19.197,8.132-31.306,26.508-40.817,44.2c-5.173,9.619-9.685,19.577-14.4,29.423
			c-4.796,10.016-10.269,19.466-15.971,28.986c-14.642,24.442-28.146,49.502-39.139,75.812
			c-4.711,11.276-8.634,22.811-12.756,34.305c-3.478,9.694-7.521,19.555-14.204,27.521c-7.84,9.346-17.582,11.095-29.208,11.334
			c-14.906,0.31-29.815,0.299-44.714,0.93c-14.66,0.62-28.99,2.442-43.462,4.727c-14.959,2.361-30.269,1.406-45.301,3.127
			c-10.159,1.163-24.401,3.183-31.146,11.925c-5.156,6.686-3.537,15.223-1.955,22.875c2.422,11.722,2.292,23.667,4.796,35.341
			c2.538,11.839,8.925,21.396,17.948,29.256c15.555,13.55,39.576,24.895,60.067,15.888c8.347-3.669,14.162-10.396,18.932-17.974
			c5.658-8.988,10.485-18.736,15.382-28.156c4.745-9.13,8.694-18.747,14.73-27.14c6.822-9.487,16.728-13.913,27.864-16.277
			c13.125-2.786,25.133-9.455,36.467-16.383c11.444-6.995,22.965-16.299,36.104-19.743c26.341-6.904,45.648,18.842,47.314,42.411
			c1.553-0.421,3.104-0.841,4.657-1.262c-4.807-6.363-9.649-12.887-16.515-17.168c-6.925-4.317-15.224-4.034-22.881-2.241
			c-2.78,0.65-2.128,4.921,0.665,4.911c37.077-0.132,33.553,48.877,26.696,73.634c-0.862,3.117,3.899,4.41,4.821,1.33
			c2.975-9.944-1.492-20.863-6.334-29.452c-4.751-8.43-12.112-17.627-21.719-20.567c-2.29-0.7-3.665,1.809-2.823,3.673
			c2.05,4.544,5.595,7.758,9.19,11.092c5.046,4.679,7.162,9.533,7.487,16.4c0.385,8.146-0.132,16.396,0.122,24.57
			c0.379,12.152,0.623,33.83-17.05,31.361c0.367,1.395,0.735,2.786,1.104,4.18c13.807-17.344,6.452-42.9,1.134-62.103
			c-2.452-8.85-4.195-18.349-8.268-26.631c-3.339-6.788-9.816-9.821-16.931-11.205c-9.319-1.812-20.202-3.032-29.626-1.463
			c-9.412,1.567-14.707,9.431-18.272,17.569c-11.208,25.578-10.675,53.439-11.347,80.749c-0.529,21.523-1.277,43.047-0.856,64.58
			c0.418,21.415,2.87,42.705,4.081,64.079c1.209,21.323,1.826,42.679,2.616,64.021c0.379,10.215,0.729,20.419,1.687,30.6
			c1.001,10.648,2.205,21.247,2.008,31.962c0.612-0.805,1.225-1.607,1.835-2.411c-14.175,2.745-22.861-8.233-26.58-20.535
			c-4.514-14.941-6.89-30.438-11.068-45.47c-3.274-11.774-8.054-23.249-13.191-34.33c-3.999-8.624-8.806-16.919-15.228-23.977
			c-12.147-13.349-33.622-19.812-51.112-14.501c-14.242,4.325-17.11,21.351-17.868,34.1c-1.216,20.472,3.088,40.877,1.846,61.322
			c-0.707,11.661-3.914,28.312-15.128,34.159c-7.059,3.682-16.263,2.379-23.868,1.84c-7.249-0.515-14.53-0.801-21.528,1.47
			c-3.054,0.99-1.747,5.818,1.329,4.821c12.279-3.982,25.113,0.685,37.624-1.193c11.548-1.733,18.224-8.794,22.083-19.473
			c6.041-16.716,4.697-33.961,3.518-51.31c-1.1-16.172-3.833-35.682,3.026-50.974c3.094-6.897,8.701-10.361,16.108-10.968
			c10.789-0.883,21.642,0.753,31.002,6.372c9.641,5.787,16.074,15.587,21.177,25.329c6.978,13.322,12.497,27.792,16.388,42.292
			c4.436,16.525,5.879,34.869,13.344,50.404c5.547,11.547,16.811,17.889,29.459,15.439c1.095-0.212,1.815-1.362,1.835-2.41
			c0.29-15.779-2.394-31.388-3.079-47.123c-0.702-16.133-1.196-32.272-1.812-48.408c-1.231-32.393-4.907-64.692-5.539-97.085
			c-0.318-16.306,0.104-32.617,0.534-48.916c0.408-15.396,0.182-30.896,1.124-46.266c0.844-13.761,3.416-27.538,7.935-40.57
			c3.631-10.478,8.579-19.975,20.658-20.736c4.924-0.311,9.929,0.332,14.823,0.796c5.312,0.502,10.873,0.858,15.807,3.082
			c8.061,3.633,9.663,14.098,11.706,21.704c2.876,10.71,6.115,21.312,8.038,32.253c2.048,11.645,2.851,25.771-4.956,35.576
			c-1.008,1.266-0.977,3.888,1.104,4.179c7.658,1.069,14.459-0.689,18.832-7.415c4.404-6.773,4.604-16.111,4.628-23.899
			c0.025-9.281-0.236-18.539-0.177-27.825c0.039-6.104-1.058-12.032-4.746-17.004c-3.913-5.272-9.864-8.475-12.643-14.626
			c-0.939,1.224-1.882,2.447-2.823,3.673c8.409,2.573,14.48,11.066,18.731,18.27c4.277,7.247,8.369,17.107,5.829,25.599
			c1.606,0.442,3.215,0.887,4.821,1.33c7.808-28.193,9.527-80.108-31.519-79.964c0.222,1.637,0.443,3.272,0.665,4.91
			c7.061-1.653,13.697-1.587,19.977,2.329c5.655,3.527,9.831,9.564,13.772,14.781c1.337,1.771,4.854,1.494,4.658-1.262
			c-1.475-20.848-13.468-41.448-34.58-47.216c-10.322-2.819-21.103-0.432-30.377,4.447c-12.38,6.513-23.73,14.837-35.961,21.621
			c-6.033,3.347-12.311,6.171-18.871,8.309c-6.253,2.036-12.746,2.828-18.849,5.381c-8.662,3.623-15.236,10.003-20.374,17.736
			c-5.829,8.778-9.759,18.756-14.736,28.017c-4.923,9.159-9.509,18.712-15.31,27.355c-5.88,8.766-14.086,14.393-24.699,15.482
			c-12.386,1.272-23.875-3.491-34.256-9.812c-11.1-6.758-20.66-15.815-25.179-28.206c-4.339-11.897-3.163-24.785-5.628-37.062
			c-1.698-8.453-5.505-19.321,2.686-25.582c5.099-3.896,12.201-5.304,18.354-6.521c7.883-1.562,15.998-1.896,24.007-2.23
			c7.106-0.297,14.211-0.507,21.299-1.129c7.604-0.667,15.067-2.312,22.629-3.292c15.001-1.946,30.173-2.422,45.28-2.709
			c7.115-0.136,14.231-0.197,21.346-0.303c6.281-0.095,12.685,0.134,18.872-1.086c9.021-1.778,16.184-7.878,21.602-14.999
			c5.96-7.834,9.618-17.358,12.95-26.532c4.17-11.48,8.088-23.005,12.756-34.304c11.176-27.055,25.445-52.679,40.502-77.731
			c11.187-18.614,19.398-38.597,29.771-57.637c8.839-16.228,20.175-32.618,37.756-40.065c-1.01-0.13-2.02-0.261-3.028-0.391
			c20.427,22.5,13.706,54.188,10.012,81.433c-3.788,27.936-4.533,56.732,16.143,78.566c1.794,1.895,4.719-0.083,4.18-2.433
			c-4.062-17.683-4.237-36.496-3.261-54.526c0.97-17.916,3.027-39.248,13.776-54.315c-1.521-0.199-3.046-0.397-4.568-0.597
			c14.646,36.808,4.363,77.947,9.142,116.258c0.285,2.291,3.316,3.634,4.658,1.262c10.36-18.315,9.663-39.467,8.136-59.79
			c-1.62-21.562-4.753-44.883,5.71-64.824c-1.438,0-2.878,0-4.315,0c6.248,14.712,15.757,28.161,17.76,44.364
			c2.236,18.095-7.489,35.484-2.628,53.499c0.671,2.484,4.061,2.283,4.821,0c0.514-1.539,1.025-3.077,1.539-4.615
			c-0.582,0.582-1.164,1.164-1.746,1.746c12.589-4.568,13.783-21.884,14.233-33.149c0.713-17.808-1.776-35.779-4.539-53.329
			c-5.105-32.458-12.39-74.188-46.661-88.391c-17.969-7.446-38.985-0.094-53.086,11.919c-16.379,13.954-28.312,33.574-39.11,51.91
			c-11.574,19.655-21.57,40.163-31.806,60.53c-14.736,29.329-29.583,58.604-44.095,88.045c-8.11,16.453-16.098,32.967-23.914,49.562
			c0.719-0.413,1.438-0.825,2.158-1.238c-14.648-1.345-21.008-14.22-23.774-27.164c-3.312-15.499-2.395-31.896-1.401-47.6
			c2.989-47.285,1.142-95.017-6.259-141.862c-0.229-1.438-1.856-1.955-3.075-1.746c-12.331,2.108-24.057,5.562-35.255,11.183
			c-11.605,5.824-21.609,14.652-33.602,19.689c-11.078,4.652-23.242,2.852-34.438-0.459c-6.844-2.023-11.996-5.449-10.822-13.142
			c1.31-8.585,5.178-16.889,7.591-25.198c2.896-9.97,4.966-20.116,7.069-30.276c4.247-20.524,8.506-44.002,23.527-59.715
			c10.175-10.642,24.149-12.675,37.202-6.101c10.894,5.487,17.898,15.234,24.754,24.911c4.576,6.459,9.442,11.795,16.888,14.871
			c9.086,3.753,20.333,3.593,30.016,3.449c15.44-0.229,41.662-2.362,48.668-19.12c3.316-7.934,5.059-16.627,6.382-25.088
			c1.058-6.755,2.742-15.591-0.086-22.139c-1.622-3.756-9.233-3.136-12.719-3.634c-1.136-0.162-2.197,0.092-2.823,1.149
			c-2.428,4.095-6.096,6.841-7.944,11.366c1.638,0.222,3.273,0.443,4.91,0.665c-0.429-3.32-2.656-5.983-3.076-9.23
			c-0.271-2.098-2.539-3.392-4.269-1.768c-4.315,4.057-10.284,7.13-12.699,12.813c1.555,0.42,3.106,0.841,4.659,1.262
			c-0.271-6.258-2.661-11.758-4.704-17.588c-0.708-2.021-3.389-2.524-4.569-0.597c-4.691,7.651-10.24,14.637-16.531,21.033
			c1.01-0.13,2.02-0.261,3.029-0.391c-2.144-1.163-3.919-2.511-5.648-4.224c-0.977-0.968-2.557-0.954-3.535,0
			c-4.827,4.701-18.841,16.366-24.24,6.213c-2.513-4.725-0.433-11.456,1.104-16.109c1.795-5.439,4.972-10.947,10.247-13.579
			c6.698-3.342,15.988,0.865,22.906,1.597c8.712,0.921,15.402-3.356,20.062-10.478c-1.14,0.299-2.28,0.598-3.42,0.897
			c9.637,5.691,21.811,9.85,32.107,3.344c9.423-5.955,13.321-18.116,15.426-28.425c2.962-14.514,2.861-29.661,1.618-44.359
			c-1.218-14.371-3.712-28.82-8.228-42.538c-4.374-13.295-11.13-23.078-23.236-30.624c-17.681-11.017-39.623-14.649-59.98-16.863
			c-10.657-1.16-21.378-1.685-32.091-1.945c-9.479-0.23-19.045-0.68-28.382,1.258c-18.472,3.834-32.734,17.358-41.386,33.607
			c-9.226,17.33-12.473,37.76-11.504,57.211c0.58,11.635,3.305,23.116,5.24,34.57c2.505,14.826,4.48,29.762,4.312,44.827
			c-0.173,15.339-3.522,29.85-10.243,43.62c-6.506,13.331-11.876,27.212-16.403,41.331c-4.368,13.622-8.21,27.75-10.367,41.908
			c-1.194,7.848-1.104,15.828-2.31,23.668c-2.004,13.047-11.034,18.555-23.322,21.271c-19.159,4.235-43.073,5.08-60.769-4.443
			c-1.785-0.961-3.571,0.277-3.762,2.159c-1.116,11.007-3.789,21.315-1.153,32.309c1.644,6.852,4.3,13.485,6.129,20.303
			c2.205,8.214,3.546,16.527,4.379,24.982c3.227,32.749,4.499,65.759,4.188,98.661c-0.149,15.842-0.803,31.688,0.961,47.469
			c1.547,13.833,2.006,27.759,3.638,41.579c1.616,13.686,6.392,26.585,9.55,39.944c3.333,14.104,5.474,28.452,7.005,42.854
			c2.323,21.857,3.214,43.835,4.074,65.789c0.842,21.485,0.968,43.381,4.423,64.643c3.24,19.938,10.082,39.115,12.582,59.199
			c2.603,20.907-1.375,42.091,4.044,62.736C424.716,982.012,429.539,980.688,428.72,977.565L428.72,977.565z"/>
	</g>
</g>
<g id="baby">
	<path d="M522,609.078c-23.077,15.385-47.692-3.077-58.461,23.077c-9.231,23.077,13.846,63.077,43.077,56.923
		c15.385-4.615,20-21.538,27.691-33.846c3.077-6.154,4.615-15.386,12.309-21.539c4.616-3.077,13.846-1.538,16.923-4.615
		c23.077-29.23-27.692-23.077-44.616-18.462"/>
	<g>
		<path d="M520.738,606.92c-10.08,6.442-21.051,6.571-32.584,7.158c-8.598,0.438-17.25,2.395-22.692,9.643
			c-11.643,15.502-6.007,37.142,4.75,51.491c10.984,14.653,31.38,23.378,47.198,10.742c8.193-6.545,12.213-17.293,17.137-26.204
			c2.422-4.384,4.125-8.808,6.073-13.418c1.172-2.774,2.66-5.4,4.549-7.75c2.658-3.308,5.824-4.125,9.829-4.619
			c4.479-0.553,8.553-0.842,11.458-4.604c2.469-3.201,4.712-6.977,5.334-11.027c0.929-6.05-3.06-10.009-8.321-12.071
			c-6.913-2.709-15.271-2.276-22.521-1.759c-7.619,0.545-15.309,1.729-22.69,3.705c-3.111,0.833-1.79,5.656,1.329,4.822
			c12.775-3.42,29.013-6.263,41.905-2.175c7.065,2.238,5.844,7.896,2.586,13.192c-3.219,5.235-8.191,4.611-13.656,5.585
			c-5.386,0.959-8.82,4.955-11.655,9.357c-2.764,4.294-4.116,9.345-6.145,13.986c-2.173,4.973-5.308,9.789-7.859,14.601
			c-5.386,10.155-12.469,19.749-25.032,19.626c-20.406-0.199-34.672-23.591-35.717-41.849c-0.35-6.118,1.14-11.812,4.299-17.045
			c3.596-5.956,9.852-8.251,16.439-8.975c13.622-1.494,26.398-0.355,38.51-8.098C525.969,609.507,523.464,605.178,520.738,606.92
			L520.738,606.92z"/>
	</g>
</g>
<g id="eyes">
	
		<ellipse id="eyewhite" fill="#FFFFFF" stroke="#000000" stroke-miterlimit="10" cx="549.571" cy="149.848" rx="19.879" ry="60.769"/>
	
		<ellipse id="eyewhites" transform="matrix(-0.7132 -0.701 0.701 -0.7132 998.3017 621.819)" fill="#FFFFFF" stroke="#000000" stroke-width="1.3711" stroke-miterlimit="10" cx="626.366" cy="106.672" rx="70.415" ry="32.252"/>
	<g id="pupil_1_">
		<g>
			<path d="M545.654,133.694c0.151,24.188,6.023,48.087,4.614,72.308c-0.188,3.223,4.813,3.205,5,0
				c1.409-24.221-4.463-48.12-4.614-72.308C550.634,130.471,545.634,130.469,545.654,133.694L545.654,133.694z"/>
		</g>
	</g>
	<g id="pupil">
		<g>
			<path d="M613.346,59.848c1.561,24.969,2.978,50.203,9.32,74.511c0.814,3.118,5.637,1.794,4.822-1.329
				c-6.234-23.885-7.609-48.646-9.144-73.182C618.146,56.646,613.145,56.626,613.346,59.848L613.346,59.848z"/>
		</g>
	</g>
</g>
</svg>
