<?xml version="1.0" encoding="iso-8859-1"?>
<!-- Generator: Adobe Illustrator 16.0.4, SVG Export Plug-In . SVG Version: 6.00 Build 0)  -->
<!DOCTYPE svg PUBLIC "-//W3C//DTD SVG 1.1//EN" "http://www.w3.org/Graphics/SVG/1.1/DTD/svg11.dtd">
<svg version="1.1" id="man" xmlns="http://www.w3.org/2000/svg" xmlns:xlink="http://www.w3.org/1999/xlink" x="0px" y="0px"
	 width="440.568px" height="841.236px" viewBox="0 0 440.568 841.236" style="enable-background:new 0 0 440.568 841.236;"
	 xml:space="preserve">
<g id="body">
	<path d="M136.529,21.709c-4.881,2.01,27.724,2.643,34.149,3.577c11.335,1.649,23.977,2.845,33.45,9.927
		c-11.685,3.741-52.219-5.466-56.672,9.267c9.976,3.532,20.853,4.31,30.452,8.261c-12.156,23.155-44.236-8.5-62.795,0.085
		c7.355,7.43,19.732,13.431,27.411,20.81c-2.37,2.101-7.605,7.562-10.651,6.724c-13.969-3.842-30.753-27.942-44.952-25.182
		C66.531,59.14,67.63,73.92,57.84,98.411c-11.792,29.5-14.274,99.293-16.661,120.257c-1.555,13.654-15.023,66.828,7.657,66.154
		c13.689-0.407,16.412-18.924,21.881-27.386c7.663-11.856,15.108-14.529,28.889-15.727c24.827-2.158,50.988,18.013,58.42-10.774
		c6.488-25.13,1.06-51.487-10.267-74.185c-9.979-19.996-20.182-46.844-3.538-70.426c9.23-13.846,24.615-27.692,41.539-33.846
		c38.461-12.308,80,10.77,103.077,43.077c12.308,15.384,16.923,38.461,4.616,58.461c-10.77,15.385-41.354,30.716-59.816,32.254
		c-20,1.539-29.415-7.639-40.184,12.361c-3.077,6.154-4.616,46.154,0,50.77c0,0,0,3.077,0,4.615
		c118.461-50.769,75.384,110.769,110.769,161.539c32.308,46.153,41.539-56.923,43.077-75.385
		c3.077-38.461,1.538-81.539-6.154-118.461c-6.154-27.692-21.538-47.692-32.308-70.77c13.846-1.538,23.077,13.846,33.846,21.539
		c4.616-23.077,30.77-58.461,55.385-63.077c1.539,13.846-21.539,24.615-29.231,38.461c15.385-4.615,50.769-26.154,58.462-1.539
		c-13.847,7.692-30.77,3.077-43.078,13.846c13.846,3.077,53.846-3.077,53.846,18.461c-18.462,4.616-43.077-13.846-58.461-9.23
		c-16.923,4.615-15.385,27.692-15.385,41.539c-1.539,40,1.539,76.923-3.077,115.384c-3.077,24.616-1.538,87.692-23.077,104.616
		c-36.923,33.844-72.308-33.847-76.923-61.539c-3.077-20,1.539-109.231-29.23-70.77c-20,23.077-6.154,101.539-6.154,132.309
		c-1.539,86.153-1.539,166.153-32.308,249.229c-12.308,32.309-29.231,49.23-58.462,66.154c-12.308,6.154-35.384,16.924-40,27.691
		c-3.077,9.232,4.616,35.385,4.616,46.154c13.846,4.615,29.23,4.615,43.077,6.154c0,1.539,1.539,6.154,1.539,7.691
		c-12.308,4.617-33.846,6.154-46.154,1.539c-21.539-7.691-16.923-20-21.539-43.076c-3.077-16.924-10.769-36.924,1.539-47.693
		c3.077-3.076,18.461-4.615,23.077-7.691c10.77-4.615,20-16.924,29.231-23.078c38.461-29.23,53.846-55.383,61.539-103.076
		c1.539-16.924,4.615-33.846,6.154-52.307c1.539-21.539,4.615-30.77-15.385-36.924c-12.308-3.076-36.923-1.539-49.23,1.539
		c3.077,41.537-21.539,78.461-53.846,104.615c-13.846,10.77-38.461,49.23-46.154,64.615c-7.692,13.846-11.109,27.752-3.417,46.215
		c1.539,6.152,18.801,41.477,17.263,49.17c-4.616,18.461-16.923,3.076-23.077,0c-15.385-10.77-23.034-55.779-21.496-74.242
		c1.539-18.461,12.265-38.066,24.573-50.373c3.077-1.539,57.066-92.219,61.681-98.371c24.615-29.232,15.242-18.553,24.473-55.477
		c9.23-35.385,0-69.229,3.077-104.614c3.077-30.769,18.461-80,1.539-110.769c-33.846-58.461-47.692,43.077-73.846,38.461
		c-20.952-3.492-32.308,0.478-32.308-58.461c-1.539-41.539,12.308-155.385,26.154-195.385c13.846-35.384,60-53.846,87.692-66.154
		c12.308-4.615,58.461-18.461,61.539-1.539C173.452,15.555,162.683,10.94,136.529,21.709z"/>
	<g>
		<path d="M135.267,19.55c-3.918,1.876-0.577,5.206,2.141,5.714c5.581,1.043,11.415,1.119,17.068,1.438
			c16.109,0.908,34.792,1.025,48.391,10.669c0.199-1.523,0.398-3.046,0.597-4.569c-4.549,1.33-9.622,0.938-14.301,0.823
			c-6.291-0.155-12.573-0.475-18.867-0.373c-8.722,0.141-21.828,0.733-25.25,10.562c-0.467,1.341,0.523,2.662,1.746,3.075
			c9.993,3.375,20.607,4.411,30.452,8.261c-0.498-1.224-0.996-2.448-1.494-3.672c-6.612,11.875-20.227,6.465-30.385,2.908
			c-9.925-3.475-21.166-8.134-31.513-3.72c-1.499,0.639-1.555,2.906-0.506,3.926c8.277,8.047,18.967,12.974,27.411,20.81
			c0-1.178,0-2.357,0-3.535c-1.817,1.65-3.573,3.351-5.563,4.798c-2.509,1.826-4.298,0.856-6.812-0.432
			c-4.943-2.534-9.256-6.309-13.534-9.797c-6.8-5.545-14.859-13.176-24.083-13.893c-20.712-1.608-26.513,19.787-31.646,35.109
			c-3.141,9.374-6.733,18.294-8.894,27.976c-2.263,10.139-3.729,20.453-5.025,30.753c-2.542,20.209-3.894,40.536-5.486,60.834
			c-1.083,13.812-4.003,27.286-5.566,41.038c-1.223,10.765-3.975,32.989,9.227,38.142c19.351,7.554,24.186-21.422,32.4-31.735
			c14.279-17.928,40.306-8.344,59.025-5.917c7.596,0.985,15.794-0.089,20.748-6.54c7.232-9.418,7.861-24.097,7.746-35.474
			c-0.143-14.12-3.623-28.116-8.834-41.169c-4.818-12.066-11.294-23.126-14.566-35.815c-3.617-14.028-2.321-28.312,5.481-40.683
			c7.668-12.16,18.733-22.371,31.129-29.546c23.708-13.722,52.848-7.98,75.372,5.218c11.29,6.615,21.182,15.444,29.625,25.397
			c8.896,10.486,15.693,21.998,16.627,35.996c0.905,13.564-4.555,26.03-14.628,34.893c-9.254,8.142-20.811,14.104-32.292,18.395
			c-10.236,3.826-20.189,5.018-31.042,4.1c-7.31-0.618-15.002-1.455-21.038,3.627c-12.617,10.626-11.332,29.631-11.047,44.594
			c0.086,4.518,0.371,9.058,1.166,13.511c0.279,1.563,0.741,3.047,1.41,4.485c0.591,1.273,0.295,1.594,0.295,0
			c0,1.428,0,2.855,0,4.283c0,2.077,2.083,2.872,3.762,2.159c14.425-6.124,31.094-11.655,46.935-8.583
			c11.096,2.152,19.512,9.398,25.178,18.928c6.498,10.927,9.494,23.779,11.794,36.153c2.68,14.424,4.079,29.059,5.694,43.629
			c2.746,24.776,4.458,53.772,20.476,74.152c6.229,7.925,15.973,13.271,24.129,4.791c8.505-8.841,11.416-23.473,13.924-34.996
			c6.624-30.419,8.717-62.321,8.406-93.35c-0.27-26.849-2.102-54.896-8.954-80.96c-6.28-23.89-20.876-44.176-31.301-66.262
			c-0.72,1.254-1.439,2.508-2.159,3.762c13.749-1.021,22.698,13.891,32.584,21.197c1.268,0.937,3.36-0.021,3.672-1.494
			c2.882-13.58,10.463-26.111,19.095-36.806c8.776-10.874,20.455-21.625,34.543-24.525c-1.055-0.804-2.11-1.607-3.165-2.411
			c0.544,7.923-6.59,13.915-11.874,18.814c-6.124,5.679-12.743,11.084-17.016,18.386c-1.083,1.85,0.699,4.332,2.823,3.672
			c13.657-4.24,47.823-25.568,55.387-3.285c0.383-0.941,0.767-1.882,1.149-2.823c-13.978,7.323-30.862,3.734-43.583,14.237
			c-1.424,1.175-0.648,3.815,1.103,4.178c9.502,1.969,19.531,1.141,29.165,1.996c8.826,0.782,22.538,2.773,22.846,14.055
			c0.612-0.804,1.224-1.607,1.835-2.411c-11.312,2.514-23.092-2.672-33.663-6.143c-8.649-2.839-18.816-6.037-27.639-2.074
			c-18.516,8.315-14.291,36.418-14.671,52.712c-0.735,31.438,0.927,62.913-1.635,94.299c-1.601,19.618-2.888,39.351-4.89,58.932
			c-1.064,10.411-2.617,20.806-5.346,30.92c-2.19,8.118-5.342,16.592-11.382,22.659c-6.295,6.324-14.382,10.773-23.475,10.064
			c-8.448-0.66-15.921-6.406-21.725-12.117c-12.989-12.781-22.036-30.609-27.304-47.9c-3.648-11.976-3.151-24.764-3.761-37.152
			c-0.505-10.257-1.946-68.951-25.233-50.288c-12.543,10.053-15.933,25.49-17.354,40.747c-1.949,20.907-0.129,42.149,1.543,63.012
			c0.739,9.209,1.57,18.413,2.089,27.638c0.664,11.794,0.063,23.65-0.152,35.451c-0.551,30.287-1.366,60.582-3.916,90.775
			c-2.575,30.488-7.232,60.783-14.878,90.426c-6.727,26.08-14.638,53.918-31.876,75.203c-8.544,10.549-19.333,18.914-30.733,26.154
			c-11.591,7.361-24.452,12.379-35.817,20.156c-4.546,3.111-8.913,6.721-11.9,11.402c-2.462,3.859-2.039,9.035-1.701,13.379
			c0.931,11.963,4.925,23.689,5.123,35.693c0.019,1.15,0.756,2.066,1.835,2.412c14.173,4.518,29.074,4.682,43.741,6.242
			c-0.833-0.832-1.667-1.666-2.5-2.5c0.244,2.619,1.295,5.088,1.539,7.691c0.612-0.803,1.224-1.607,1.835-2.41
			c-11.224,4.039-23.698,5.023-35.509,3.727c-9.336-1.025-20.38-5.168-24.11-14.52c-3.397-8.518-3.094-18.619-4.722-27.57
			c-2.169-11.932-7.109-24.709-4.893-36.945c0.901-4.975,3.791-9.521,8.663-11.168c4.811-1.625,9.885-2.396,14.744-3.873
			c10.643-3.234,18.677-11.865,26.625-19.158c8.918-8.186,19.044-14.893,27.828-23.301c7.545-7.225,14.306-15.252,20.062-23.971
			c9.933-15.043,15.786-32.311,19.587-49.82c2.397-11.045,3.36-22.219,4.829-33.408c1.681-12.797,3.272-25.559,4.336-38.424
			c0.558-6.738,1.619-13.982-0.479-20.564c-2.007-6.301-7.679-9.697-13.471-12.035c-8.084-3.266-17.496-3.162-26.068-2.998
			c-9.408,0.18-19.027,1.057-28.191,3.262c-1.024,0.246-1.906,1.338-1.835,2.41c1.762,26.795-8.035,51.762-23.874,73.01
			c-8.022,10.762-17.709,20.285-28.017,28.84c-6.919,5.742-12.571,12.496-18.024,19.623c-12.299,16.078-23.762,33.566-32.493,51.869
			c-5.188,10.875-6.542,22.438-3.803,34.172c1.784,7.641,5.303,15.109,8.361,22.316c3.64,8.576,7.366,17.17,10.166,26.064
			c0.743,2.361,2,5.523,1.62,8.057c-0.934,6.23-4.45,8.369-9.64,5.344c-6.336-3.691-12.612-8.473-16.437-14.766
			c-5.234-8.613-7.963-18.805-10.14-28.557c-2.158-9.67-3.482-19.604-3.635-29.518c-0.197-12.748,3.978-24.945,10.067-36.014
			c4.254-7.732,10.278-13.602,15.514-20.484c2.617-3.439,4.881-7.178,7.204-10.816c16.484-25.832,32.024-52.258,48.198-78.283
			c6.381-10.268,15.666-18.518,21.495-29.082c2.49-4.512,3.196-9.611,4.057-14.617c2.06-11.975,5.604-23.652,7.243-35.693
			c4.179-30.688-2.972-61.588,0.472-92.298c2.697-24.048,8.992-47.514,9.093-71.854c0.079-18.892-4.758-40.758-20.293-53.201
			c-8.778-7.031-17.928-3.419-24.697,4.302c-8.406,9.589-13.718,21.646-20.359,32.43c-2.946,4.784-6.149,9.577-10.461,13.244
			c-3.9,3.318-7.485,2.72-12.203,2.047c-4.454-0.635-9.214-1.061-13.325-3.026c-4.56-2.18-7.017-6.527-8.594-11.145
			c-3.147-9.211-3.494-19.415-3.845-29.045c-0.331-9.08-0.421-18.214-0.186-27.299c1.083-41.785,6.524-83.816,13.564-124.974
			c2.97-17.362,6.217-34.885,11.538-51.706c6.696-21.17,25.854-35.827,44.227-46.624c16.688-9.807,35.093-18.779,53.695-24.287
			c9.099-2.694,18.458-4.898,27.921-5.765c5.808-0.532,17.832-1.567,19.527,6.092c0.582-1.025,1.164-2.05,1.746-3.075
			c-6.717,2.148-13.683,2.346-20.644,3.043c-10.439,1.044-20.409,3.804-30.125,7.727c-2.95,1.191-1.663,6.029,1.329,4.821
			c9.655-3.898,19.5-6.618,29.87-7.655c7.05-0.706,14.097-0.939,20.9-3.114c1.348-0.431,2.05-1.703,1.746-3.075
			c-3.321-15.004-27.944-9.735-38.082-7.707c-16.675,3.335-31.774,9.582-47.137,16.692c-19.699,9.118-39.397,19.921-54.34,35.974
			c-12.589,13.524-17.204,29.803-21.151,47.338c-9.275,41.205-14.454,83.657-17.839,125.72c-1.42,17.652-1.959,35.212-1.685,52.912
			c0.162,10.429,0.652,21.062,3.004,31.26c1.254,5.438,3.399,10.936,7.414,14.937c3.128,3.118,7.376,4.684,11.61,5.594
			c4.631,0.995,9.913,2.11,14.646,2.134c10.317,0.051,17.397-12.272,22.005-19.832c6.512-10.682,11.722-22.895,20.502-31.985
			c2.922-3.026,6.792-5.734,11.19-4.759c6.386,1.416,10.956,8.558,14.191,13.622c13.473,21.085,9.831,49.009,6.238,72.424
			c-1.748,11.391-4.014,22.705-5.526,34.132c-1.941,14.674-1.432,29.452-0.674,44.194c0.811,15.777,1.758,31.539,0.266,47.309
			c-1.218,12.875-5.213,25.289-7.446,38.002c-0.888,5.059-1.467,10.219-3.984,14.781c-4.224,7.654-10.948,13.621-16.09,20.598
			c-5.899,8.004-10.706,17.01-15.883,25.48c-8.811,14.416-17.587,28.854-26.466,43.229c-5.758,9.322-11.589,19.906-18.103,28.27
			c-0.216,0.277-0.44,0.549-0.699,0.787c1.388-1.281-1.905,1.902-1.191,1.172c-1.076,1.1-2.086,2.262-3.095,3.42
			c-4.428,5.086-8.162,10.764-11.406,16.66c-5.761,10.473-9.553,22.312-9.924,34.301c-0.585,18.873,3.595,39.297,11.009,56.594
			c3.07,7.162,7.149,13.246,13.659,17.564c5.129,3.404,11.36,10.344,18.215,7.584c6.676-2.688,7.545-11.467,6.102-17.494
			c-2.058-8.59-5.826-16.871-9.233-24.986c-2.78-6.619-5.404-13.285-8.069-19.939c-5.412-13.512-3.979-27.021,2.441-39.834
			c6.707-13.385,14.853-26.1,23.361-38.396c4.702-6.795,9.641-13.443,15.048-19.697c4.825-5.58,10.51-9.963,16.007-14.84
			c28.544-25.322,49.938-61.02,47.359-100.24c-0.612,0.805-1.224,1.607-1.835,2.412c11.043-2.656,22.674-3.32,33.999-3.082
			c8.727,0.184,21.157,1.076,26.522,9.184c4.435,6.701,1.608,18.074,1.034,25.453c-1.171,15.057-3.566,29.975-5.341,44.963
			c-2.774,23.426-8.148,46.605-20.439,67.012c-5.581,9.266-12.597,17.539-20.272,25.125c-8.632,8.533-18.613,15.258-27.679,23.236
			c-7.675,6.756-14.724,14.908-24.559,18.557c-6.298,2.336-15.337,2.068-20.635,6.533c-15.175,12.789-4.998,37.377-2.097,53.332
			c2.593,14.262,1.191,30.209,15.236,38.629c15.567,9.33,38.53,7.754,55,1.826c0.981-0.354,1.943-1.258,1.835-2.412
			c-0.244-2.619-1.296-5.086-1.539-7.691c-0.137-1.473-1.042-2.344-2.5-2.5c-14.234-1.516-28.657-1.68-42.412-6.064
			c0.612,0.803,1.224,1.607,1.835,2.41c-0.16-9.691-2.817-19.367-4.294-28.91c-0.718-4.643-1.282-9.389-0.932-14.088
			c0.371-4.969,5.423-8.811,9.059-11.594c8.913-6.824,19.34-11.643,29.346-16.613c9.978-4.955,19.451-11.963,27.875-19.217
			c17.916-15.424,28.286-35.934,35.929-57.932c10.072-28.99,16.691-59.066,20.947-89.43c4.122-29.41,5.896-59.088,6.885-88.75
			c0.852-25.545,2.435-51.504,0.733-77.031c-1.359-20.391-3.561-40.71-3.999-61.156c-0.363-16.956-1.09-38.27,8.559-53.111
			c2.508-3.858,7.701-10.653,12.897-10.722c3.883-0.051,5.81,6.209,6.724,9.015c4.477,13.739,4.591,29.117,5.252,43.418
			c0.575,12.432,0.551,24.661,4.318,36.634c5.351,17.006,14.359,33.691,26.53,46.774c10.959,11.779,26.25,19.368,41.9,12.221
			c16.552-7.559,22.949-24.964,26.478-41.528c4.157-19.515,4.881-39.613,6.236-59.458c0.754-11.04,2.238-22.003,2.916-33.052
			c0.953-15.561,0.914-31.169,0.845-46.752c-0.074-16.646,0.5-33.303,0.405-49.937c-0.06-10.478-0.798-22.511,5.353-31.584
			c7.139-10.53,22.118-5.167,31.653-2.037c11.202,3.678,23.067,8.368,35.013,5.713c1.057-0.235,1.863-1.345,1.835-2.411
			c-0.685-25.188-39.889-17.601-55.682-20.872c0.368,1.393,0.735,2.786,1.103,4.178c11.952-9.868,29.204-6.451,42.572-13.455
			c0.943-0.495,1.494-1.806,1.148-2.823c-9.273-27.327-44.407-5.526-61.537-0.208c0.941,1.224,1.882,2.448,2.823,3.672
			c4.692-8.017,12.493-13.733,19.101-20.076c5.406-5.189,11.02-11.667,10.471-19.647c-0.116-1.688-1.501-2.753-3.165-2.411
			c-14.542,2.993-26.5,13.723-35.837,24.708c-9.689,11.4-18.157,25.334-21.293,40.114c1.224-0.498,2.448-0.996,3.672-1.494
			c-10.918-8.069-19.766-23.019-35.108-21.88c-1.979,0.147-2.996,1.988-2.159,3.762c11.854,25.112,27.697,47.481,33.066,75.245
			c5.801,29.993,7.24,60.869,6.266,91.353c-0.936,29.264-3.34,60.759-13.027,88.561c-2.491,7.149-8.246,21.905-18.127,15.874
			c-10.035-6.126-14.979-20.068-17.964-30.76c-7.65-27.398-7.904-56.453-12.308-84.439c-3.118-19.814-7.911-43.403-24.146-56.944
			c-19.521-16.28-47.403-8.082-68.248,0.768c1.254,0.72,2.508,1.439,3.762,2.159c0-6.159-2.355-11.774-2.718-18.126
			c-0.507-8.867-0.171-17.846,0.698-26.68c0.774-7.875,3.151-15.371,10.508-19.661c6.821-3.978,17.727-0.575,25.161-0.599
			c10.497-0.035,20.633-3.523,30.162-7.635c10.568-4.56,20.689-10.7,29.196-18.484c18.312-16.755,17.556-45.256,4.672-64.951
			c-13.346-20.402-33.42-36.85-56.147-45.609c-23.764-9.158-49.578-7.114-70.614,7.443c-20.934,14.485-37.303,37.445-33.272,63.832
			c1.857,12.158,6.574,23.508,12.004,34.465c6.759,13.64,11.233,28.325,12.457,43.527c0.586,7.285,0.208,14.645-0.963,21.851
			c-0.981,6.044-2.366,12.733-6.815,17.235c-6.417,6.492-18.654,2.715-26.278,1.155c-19.191-3.928-40.847-5.353-53.801,11.992
			c-5.573,7.462-6.936,17.295-13.048,24.407c-5.352,6.226-14.049,5.252-16.952-2.33c-2.771-7.236-2.078-15.852-1.463-23.404
			c0.673-8.279,2.105-16.478,3.52-24.655c2.483-14.357,3.062-28.961,4.216-43.469c1.731-21.763,3.682-43.65,8.083-65.062
			c1.963-9.552,5.192-18.364,8.438-27.52c3.179-8.967,5.008-19.794,11.27-27.267c2.817-3.362,6.742-5.178,10.884-6.333
			c5.335-1.488,9.767,0.263,14.353,3.001c9.076,5.419,16.284,13.467,25.387,18.872c2.823,1.676,6.009,3.246,9.333,2.697
			c3.834-0.634,7.363-4.845,10.072-7.306c0.982-0.892,0.964-2.641,0-3.535c-8.447-7.84-19.145-12.773-27.411-20.81
			c-0.168,1.309-0.337,2.618-0.506,3.926c11.033-4.706,25.539,3.873,36.018,6.971c10.736,3.174,21.697,2.783,27.674-7.953
			c0.847-1.521,0.012-3.083-1.494-3.672c-9.845-3.85-20.459-4.887-30.452-8.261c0.582,1.025,1.164,2.05,1.746,3.075
			c2.927-8.405,19.26-6.979,26.03-6.899c9.264,0.109,19.848,2.024,28.896-0.621c2.204-0.644,2.321-3.347,0.597-4.569
			c-11.622-8.242-27.295-9.936-41.2-10.806c-5.598-0.35-11.202-0.603-16.798-0.976c-2.288-0.153-4.574-0.335-6.854-0.581
			c-0.767-0.083-1.526-0.197-2.285-0.339c-2.053-0.384-0.934,3.741-0.463,3.515C140.698,22.476,138.16,18.165,135.267,19.55z"/>
	</g>
</g>
<g id="eyes">
	
		<ellipse id="eyewhite_1_" style="fill:#FFFFFF;stroke:#000000;stroke-miterlimit:10;" cx="189.216" cy="111.625" rx="31.083" ry="33.846"/>
	
		<ellipse id="eyewhite" style="fill:#FFFFFF;stroke:#000000;stroke-miterlimit:10;" cx="266.868" cy="126.287" rx="19.504" ry="30.045"/>
	<g id="pupil_1_">
		<g>
			<path d="M181.876,80.192c-3.303,20.273-5.341,43.103,1.539,62.868c1.053,3.025,5.884,1.724,4.821-1.329
				c-6.572-18.882-4.697-40.821-1.539-60.209C187.211,78.368,182.394,77.016,181.876,80.192L181.876,80.192z"/>
		</g>
	</g>
	<g id="pupil">
		<g>
			<path d="M266.492,103.269c-4.288,17.408-5.914,34.309-3.077,52.098c0.506,3.177,5.324,1.824,4.821-1.329
				c-2.688-16.858-0.984-32.952,3.077-49.44C272.084,101.467,267.263,100.139,266.492,103.269L266.492,103.269z"/>
		</g>
	</g>
</g>
</svg>
