<?xml version="1.0" encoding="iso-8859-1"?>
<!-- Generator: Adobe Illustrator 16.0.4, SVG Export Plug-In . SVG Version: 6.00 Build 0)  -->
<!DOCTYPE svg PUBLIC "-//W3C//DTD SVG 1.1//EN" "http://www.w3.org/Graphics/SVG/1.1/DTD/svg11.dtd">
<svg version="1.1" id="person" xmlns="http://www.w3.org/2000/svg" xmlns:xlink="http://www.w3.org/1999/xlink" x="0px" y="0px"
	 width="649.318px" height="1008.205px" viewBox="0 0 649.318 1008.205" style="enable-background:new 0 0 649.318 1008.205;"
	 xml:space="preserve">
<g id="body">
	<path d="M229.434,73.954c-47.619,12.699-69.841,49.207-76.19,98.413c-9.524,69.841,36.508,152.381,114.286,152.381
		c36.508-1.587,90.477-12.699,101.588-49.207c6.349-19.047,11.11-33.333,22.222-50.793c9.523-15.873,11.111-30.159,20.635-46.032
		c19.048-34.921,33.334-6.349,33.334,19.047c0,23.81-7.937,47.619-7.937,71.429c-1.588,57.143-22.223,114.286-31.746,171.429
		c-17.461-12.699-17.461-33.333-28.571-49.207c-6.35-9.524-15.874-9.524-22.223-23.81c-17.46,12.699-60.317,9.524-82.54,4.762
		c-33.333-6.35-30.159-6.35-28.572,26.984c3.175,42.857-3.174,84.127,0,125.397c0,4.762-1.587,20.635-3.174,23.81
		c0,4.762-6.349,9.523-6.349,12.698c1.587,7.937,6.349,9.523,7.937,12.698c3.174,25.396,4.762,33.334-3.175,55.556
		c-9.524,28.571-19.047,55.556-17.46,84.127c0,19.048,3.175,33.333-4.762,50.794c-3.175,7.937-3.175,14.285-6.349,20.635
		c-28.571-15.873-31.746-15.873-31.746-47.619c0-23.81-1.587-44.444-3.175-68.254c-3.174-34.921-4.762-69.842-7.937-103.175
		c-1.587-9.523-3.174-19.048-3.174-28.571c-1.587-31.746-20.635-60.317-23.81-90.476c-3.175-36.508,12.698-76.19,9.524-115.873
		c-3.175-30.159-7.937-71.429-15.873-103.175c-3.175-11.111-9.524-15.873-12.699-23.81c-7.937-14.286-7.937-17.46-11.111-34.92
		c-3.175-20.635-9.524-49.207-20.635-68.254c-6.35-9.524-12.699-14.286-14.286-25.397c-1.587-6.349,3.175-15.873,1.587-23.81
		C73.879,31.097,56.418,19.986,48.482,2.526c11.111,42.857,9.524,84.127,25.397,126.984c14.286,38.095,14.286,85.714,22.222,126.984
		c-20.635-17.46-23.81-19.048-49.207-11.111c-14.286,4.762-12.698,1.587-23.81,9.524c-9.524,6.349-7.937,15.873-20.635,19.047
		c4.762,11.111,15.873,12.699,20.635,19.048c6.349,11.111,1.587,25.397,7.937,34.92c11.111,15.873,39.683,26.984,53.968,14.286
		c7.937,38.096,30.159,69.841,33.333,109.524c3.174,34.921,6.349,68.254,9.523,103.174c3.175,38.096,9.524,74.604,11.111,112.699
		c1.587,34.92-3.175,84.127,9.524,115.873c6.349,17.46,20.635,22.222,36.508,31.745c23.81,12.699,33.333,20.636,44.444-7.936
		c4.762-17.461,4.762-36.509,12.699-53.969c7.937-15.873,15.873-25.396,20.635-44.444c7.937-42.857,14.286-90.477,12.698-134.921
		c0-36.508-9.523-77.777,4.762-111.111c17.46,47.619,34.92,79.365,30.159,133.333c-3.175,47.619-22.222,96.825-22.222,144.444
		s11.111,95.238,23.81,141.27c3.174,17.46,9.523,31.746,12.698,47.619c3.174,17.46,0,41.27,6.349,57.143
		c1.587,3.175,0,7.937,1.587,12.698c25.397-1.587,50.793,4.763,76.191,6.35c4.762-38.095,0-79.365,4.762-117.46
		c4.762-42.857,26.983-85.715,33.333-130.159c4.762-26.984,26.984-244.444,65.079-223.81
		c20.635,11.111,15.873,85.713,14.286,103.174c-7.213,79.36-6.006,162.096,1.587,241.271c0.742,7.735,1.949,36.645,8.259,41.465
		c6.846,5.23,31.049-0.194,36.226-4.917c7.937-7.242,9.915-24.755,18.091-33.328c6.769-7.098,12.284-7.53,16.474-17.505
		c2.887-6.872,4.719-18.142,6.66-25.674c8.357-32.424,14.847-64.458,25.397-96.58c9.028-27.488,1.593-34.664,1.593-63.461
		c0-33.338,10.141-90.477,4.637-119.048c-5.908-30.669-11.252-57.832-17.342-88.453c-6.988-35.137-17.054-70.637-25.346-105.658
		c-3.36-14.195-10.617-29.031-12.427-42.75c-3.569-27.054,10.232-52.958,14.316-79.41c1.704-11.034,5.537-20.18,8.061-29.678
		c2.622-9.868-1.48-19.283-0.155-28.648c2.783-19.658,21.226-46.79,1.311-59.925c-10.44-6.886-24.446-7.063-34.694-15
		c-5.128-3.972-13.441-11.286-18.96-15.91c-10.586-8.869-21.449-24.95-26.027-37.465c-27.613-2.457-55.26,13.531-78.925-6.51
		c5.867,10.333,22.068,13.238,33.128,14.207c15.747,1.379,22.311-1.755,31.794,9.482c11.703,13.869,22.934,29.155,39.273,39.372
		c-33.244,2.184-44.484-7.898-67.893-27.979c-8.87-7.609-16.801-13.172-26.792-14.562c-16.633-2.315-34.351-0.8-50.811-2.889
		c13.231,12.749,30.312,8.143,45.337,14.083c-15.117-0.254-38.597,5.196-50.028-4.687c8.176,11.517,26.303,5.59,37.892,12.075
		c11.89,6.653,15.57,19.44,24.162,28.685c10.734,11.549,65.6,20.103,65.003,28.648c24.358,8.308,15.807,52.618,16.831,73.287
		c1.73,34.886,8.719,65.714,11.382,100.005c2.672,34.405,13.562,67.213,19.212,100.051c6.125,35.598,4.156,74.551,12.3,109.43
		c12.305,52.702,9.841,117.938,9.841,173.387c0,31.937-28.571,158.402-40.92,146.126c-28.522-28.355-11.461-76.996-11.461-117.883
		c0-39.586,0.487-74.734,4.762-119.047c3.016-31.265-11.158-69.979-7.854-101.904c1.611-15.566,6.773-35.633,1.106-50.395
		c-7.456-19.424-25.671-17.052-43.724-15.95c-2.748,0.168-5.137,0.709-6.582,1.229c1.848,0.084,4.07,0.143,5.967,0.358
		c-14.482-0.033-42.613-4.221-50.817,10.908c-7.821-2.833-13.87-18.588-15.322-19.084c-5.87-38.075,8.493-74.177,14.089-110.84
		c5.775-37.844,13.797-71.87,9.523-111.184c-1.751-16.106-3.337-28.622-3.174-44.71c0.229-22.773-13.817-24.083-33.043-33.119
		c-18.375-8.635-25.613-22.496-36.873-38.172c-20.416-28.425-39.817-32.339-73.999-33.452
		C288.384,64.793,257.517,66.465,229.434,73.954z"/>
	<g>
		<path d="M228.77,71.543c-20.389,5.565-38.69,16.274-52.095,32.784c-13.343,16.435-20.531,36.924-24.324,57.522
			c-7.641,41.483,1.426,85.244,26.788,119.249c12.126,16.259,28.083,29.581,46.741,37.669c19.512,8.458,39.827,9.441,60.665,6.872
			c20.521-2.53,41.499-7.599,59.313-18.449c7.977-4.859,14.982-11.226,20.143-19.031c6.399-9.68,8.705-21.992,12.777-32.732
			c5.295-13.967,13.75-25.954,19.905-39.434c6.254-13.696,10.198-27.9,18.27-40.785c2.604-4.155,6.239-9.006,11.286-10.167
			c3.907-0.898,6.99,3.452,8.663,6.251c5.605,9.384,6.199,21.506,5.766,32.11c-0.646,15.803-4.352,31.352-6.437,46.993
			c-2.078,15.597-1.675,31.407-3.562,47.054c-3.891,32.266-12.318,63.829-19.714,95.411c-3.656,15.612-7.07,31.282-9.74,47.096
			c1.225-0.498,2.449-0.996,3.673-1.494c-12.998-9.832-16.278-25.791-22.813-39.826c-2.839-6.098-6.517-11.594-11.83-15.77
			c-6.35-4.99-11.696-8.963-15.253-16.523c-0.548-1.165-2.374-1.628-3.42-0.897c-8.412,5.878-19.21,7.429-29.208,8.212
			c-11.493,0.9-23.12,0.281-34.559-0.992c-10.054-1.119-19.886-3.448-29.853-5.104c-4.776-0.793-11.171-2.232-15.564,0.616
			c-4.045,2.623-4.069,8.328-4.056,12.591c0.034,11.448,1.334,22.895,1.665,34.336c0.93,32.117-2.45,64.187-1.493,96.307
			c0.317,10.662,0.708,20.472-1.018,31.052c-0.591,3.623-1.484,7.608-3.486,10.668c-2.872,4.39-5.111,6.484-3.357,11.823
			c1.186,3.608,3.768,6.208,6.328,8.865c1.799,1.867,1.456,6.42,1.764,8.9c0.367,2.957,0.704,5.918,0.993,8.884
			c1.041,10.689,0.046,20.689-3.076,30.97c-8.213,27.048-18.867,53.146-19.791,81.797c-0.421,13.06,1.334,26.126,0.553,39.182
			c-0.432,7.213-2.57,13.528-5.087,20.212c-2.464,6.545-3.154,13.684-6.097,20.038c1.14-0.299,2.28-0.598,3.42-0.896
			c-7.806-4.33-16.566-8.229-23.231-14.289c-5.283-4.804-6.465-11.618-6.959-18.435c-0.995-13.71-0.399-27.563-1.029-41.305
			c-0.728-15.878-1.805-31.758-3.156-47.593c-1.397-16.37-2.478-32.767-3.612-49.156c-1.069-15.436-1.18-31.506-3.721-46.777
			c-1.331-7.999-2.592-15.988-3.004-24.097c-0.367-7.203-0.997-14.132-2.501-21.204c-2.934-13.796-8.294-26.975-12.969-40.236
			c-4.758-13.498-8.567-27.062-8.834-41.458c-0.284-15.317,2.333-30.584,4.789-45.646c2.427-14.887,4.839-29.788,5.464-44.881
			c0.576-13.905-1.443-27.746-3.067-41.522c-1.634-13.86-3.493-27.696-5.71-41.476c-2.165-13.454-3.982-27.84-8.542-40.726
			c-1.762-4.98-4.748-9.339-7.681-13.679c-3.216-4.758-5.731-10.079-8.233-15.24c-4.622-9.534-5.817-20.458-7.516-30.792
			c-2.57-15.639-6.213-31.184-11.658-46.083c-2.504-6.854-5.391-13.982-9.519-20.028c-4.234-6.202-9.62-11.54-12.063-18.796
			c-2.629-7.812,0.423-15.293,0.964-23.154c0.458-6.657-2.26-13.646-5.175-19.491C68.253,23.943,56.816,14.357,50.641,1.264
			c-1.243-2.636-5.249-0.738-4.569,1.926c5.552,21.761,8.125,44.047,11.305,66.235c3.225,22.503,8.328,43.888,15.739,65.365
			c13.546,39.257,12.906,81.872,20.575,122.368c1.393-0.811,2.786-1.622,4.178-2.432c-7.05-5.956-14.408-13.018-23.503-15.617
			c-8.66-2.474-18.311,0.859-26.544,3.369c-8.153,2.485-16.384,3.784-23.561,8.568c-4.056,2.704-7.336,5.62-10.095,9.653
			c-3.514,5.137-6.023,9.042-12.38,10.844c-1.659,0.47-2.174,2.22-1.494,3.672c2.301,4.916,5.818,8.468,10.223,11.548
			c4.861,3.399,9.883,5.248,12.063,11.202c2.299,6.278,1.686,13.272,2.564,19.804c0.775,5.759,2.625,10.327,6.341,14.778
			c12.139,14.534,39.032,25.043,55.274,11.428c-1.393-0.368-2.786-0.735-4.178-1.103c5.816,27.149,18.882,51.854,27.074,78.25
			c4.521,14.566,6.04,29.252,7.428,44.37c1.483,16.153,2.991,32.303,4.492,48.455c3.019,32.482,6.122,64.907,9.924,97.309
			c3.439,29.306,5.401,58.397,5.324,87.899c-0.067,25.659-0.577,52.264,6.557,77.158c3,10.469,7.69,19.846,16.453,26.611
			c9.107,7.031,19.859,12.251,29.944,17.723c6.79,3.684,14.238,8.371,22.199,8.585c7.318,0.196,12.22-5.837,15.496-11.617
			c6.762-11.935,7.618-26.049,10.007-39.297c1.288-7.138,3.042-14.152,5.626-20.937c2.572-6.752,6.691-13.018,10.221-19.301
			c4.788-8.521,8.756-17.295,11.384-26.728c3.236-11.612,4.444-24.197,6.233-36.105c3.661-24.372,6.242-48.924,7.053-73.563
			c0.777-23.598-0.794-47.049-2.316-70.576c-1.469-22.71-1.944-46.212,6.96-67.601c-1.607,0-3.214,0-4.821,0
			c9.178,24.934,20.167,49.37,26.289,75.311c6.822,28.907,4.959,58.581-0.037,87.624c-5.209,30.285-13.52,59.972-17.013,90.556
			c-3.557,31.144-0.013,62.896,5.49,93.603c3.093,17.263,7.117,34.35,11.491,51.327c4.307,16.72,8.339,33.474,13.398,49.985
			c2.355,7.687,4.65,15.455,5.564,23.464c0.851,7.449,0.859,14.993,1.125,22.479c0.252,7.1,0.741,14.188,2.081,21.174
			c0.632,3.294,1.722,6.409,2.864,9.55c1.233,3.391,0.196,7.812,1.128,11.437c0.265,1.03,1.322,1.895,2.411,1.835
			c25.617-1.403,50.746,4.643,76.191,6.35c1.479,0.1,2.346-1.223,2.5-2.5c3.753-31.041,1.626-62.362,2.863-93.527
			c0.609-15.344,2.312-30.573,5.686-45.562c3.281-14.581,7.907-28.838,12.473-43.055c7.278-22.669,14.106-45.247,17.626-68.845
			c1.444-9.688,2.652-19.413,3.964-29.119c4.252-31.476,8.88-62.92,14.942-94.104c3.085-15.87,6.56-31.685,10.912-47.259
			c3.387-12.116,7.216-24.395,13.198-35.514c2.821-5.245,7.608-13.665,14.595-13.299c4.392,0.229,7.509,4.57,9.42,8.022
			c3.804,6.867,5.225,15.143,6.366,22.811c6.038,40.55-1.22,82.473-3.101,123.024c-2.955,63.678-0.228,127.138,5.205,190.596
			c0.727,8.489,1.282,16.972,2.633,25.395c0.983,6.127,2.202,15.315,8.689,18.121c7.675,3.318,17.988,0.996,25.688-1.071
			c8.948-2.404,14.062-6.463,18.062-14.924c2.388-5.05,4.121-10.384,6.453-15.46c2.681-5.832,6.594-9.955,11.678-13.776
			c9.294-6.988,12.188-16.168,14.689-27.188c6.915-30.478,14.136-61.086,22.784-91.123c3.764-13.072,8.991-25.812,9.737-39.53
			c0.567-10.454-1.772-20.938-2.49-31.338c-1.657-24.026,2.115-48.427,4.119-72.328c1.006-11.986,1.832-24.005,1.827-36.039
			c-0.005-11.36-1.811-22.067-3.963-33.191c-6.056-31.295-11.792-62.709-18.691-93.831c-3.508-15.822-7.479-31.539-11.458-47.247
			c-3.925-15.494-7.314-31.204-11.662-46.581c-4.152-14.684-10.906-28.5-11.53-43.982c-0.607-15.071,4.01-29.924,8.133-44.238
			c3.46-12.012,5.473-24.194,8.488-36.281c1.493-5.983,3.573-11.811,5.336-17.716c1.847-6.182,2.06-11.938,1.384-18.333
			c-0.663-6.265-1.146-12.018,0.264-18.224c1.078-4.746,2.704-9.371,4.228-13.986c2.877-8.715,6-17.865,5.247-27.175
			c-1.878-23.207-31.154-21.045-45.355-32.178c-17.991-14.105-35.104-29.621-43.407-51.538c-0.425-1.119-1.206-1.744-2.411-1.835
			c-25.743-1.966-54.68,12.547-77.157-5.778c-2.083-1.699-5.516,0.453-3.927,3.029c5.06,8.201,14.285,11.733,23.303,13.73
			c9.955,2.205,20.11,1.108,30.059,2.756c10.424,1.727,17.083,13.982,23.352,21.395c8.354,9.878,17.436,19.071,28.38,26.076
			c0.421-1.553,0.841-3.106,1.262-4.659c-11.855,0.712-23.817,0.2-34.854-4.595c-10.003-4.347-18.451-11.704-26.666-18.706
			c-9.827-8.376-19.833-17.5-33.164-19.24c-16.863-2.202-33.933-0.886-50.811-2.889c-2.197-0.261-3.271,2.892-1.768,4.268
			c13.301,12.171,30.657,8.847,46.439,14.726c0.222-1.637,0.443-3.274,0.665-4.911c-8.104-0.06-16.175,0.951-24.269,1.225
			c-8.021,0.272-17.445,0.117-23.992-5.179c-2.019-1.633-5.794,0.605-3.926,3.029c9.695,12.585,26.206,6.438,38.788,12.972
			c13.471,6.995,16.102,24.7,29.01,32.297c10.182,5.993,22.378,8.947,33.567,12.421c5.789,1.797,11.591,3.589,17.245,5.783
			c1.449,0.562,8.092,2.856,8.104,4.672c0.008,1.184,0.772,2.021,1.835,2.411c18.167,6.665,15.965,34.222,15.444,49.586
			c-0.33,9.725-0.651,19.256,0.019,28.979c1.04,15.076,3.115,30.062,5.22,45.018c4.368,31.061,6.335,62.343,13.036,93.033
			c3.342,15.306,7.19,30.495,10.267,45.859c3.094,15.448,4.688,31.053,5.842,46.75c1.131,15.396,1.963,30.814,3.782,46.151
			c1.677,14.129,5.175,27.83,7.635,41.815c5.131,29.167,6.221,58.986,6.589,88.541c0.183,14.737,0.085,29.477-0.005,44.214
			c-0.062,10.011,0.349,20.112-0.365,30.104c-1.079,15.116-3.983,30.163-6.936,45.004c-3.542,17.805-7.696,35.511-12.656,52.976
			c-3.498,12.316-6.948,25.789-13.739,36.792c-0.656,1.062-1.617,2.444-2.493,3.082c-0.352,0.256-0.75,0.32-0.509,0.307
			c0.587-0.032-0.225-0.116,0.227,0.09c-0.348-0.158-0.368-0.286-1.266-1.203c-8.464-8.646-12.526-20.432-14.044-32.216
			c-3.166-24.586,2.758-49.6,4.069-74.125c0.741-13.853,0.237-27.812,0.426-41.682c0.197-14.402,0.637-28.8,1.373-43.185
			c0.786-15.367,2.365-30.651,3.436-45.994c0.927-13.288-1.076-26.721-3.047-39.829c-2.154-14.329-4.731-28.609-5.427-43.108
			c-0.645-13.447,2.091-26.466,3.505-39.765c1.271-11.95,1.003-25.094-6.404-35.158c-5.79-7.865-15.293-10.159-24.56-10.526
			c-7.764-0.307-17.079-0.371-24.525,2.004c-2.713,0.865-2.175,4.791,0.665,4.911c1.993,0.084,3.979,0.176,5.967,0.358
			c0-1.667,0-3.333,0-5c-16.504-0.13-42.889-5.103-52.977,12.146c1.141-0.299,2.281-0.598,3.421-0.897
			c-8.021-3.411-9.242-12.775-14.636-18.577c-0.689-0.741-0.027-2.672-0.171-3.952c-0.208-1.854-0.329-3.716-0.45-5.577
			c-0.24-3.688-0.235-7.388-0.163-11.08c0.162-8.343,1.188-16.655,2.522-24.882c2.456-15.146,6.299-30.036,9.482-45.036
			c3.214-15.147,5.343-30.531,7.856-45.807c2.419-14.701,4.597-29.445,5.679-44.312c1.153-15.838,0.316-31.455-1.413-47.211
			c-0.764-6.958-1.468-13.919-1.923-20.905c-0.474-7.285,0.016-14.651-0.7-21.905c-0.842-8.522-5.096-15.097-12.244-19.661
			c-7.156-4.568-15.622-7.049-23.232-10.744c-10.135-4.92-17.754-13.032-24.307-22c-11.418-15.626-21.326-32.04-39.333-40.849
			c-17.089-8.361-37.535-8.34-56.124-8.609C281.549,62.644,254.62,64.775,228.77,71.543c-3.117,0.816-1.793,5.639,1.329,4.821
			c29.869-7.821,60.978-9.217,91.708-7.961c21.688,0.886,41.836,4.498,57.684,20.437c8.749,8.799,14.906,19.728,22.374,29.552
			c7.107,9.35,15.629,16.753,26.322,21.717c8.42,3.908,18.57,6.485,25.269,13.243c3.379,3.409,4.663,8.21,5.121,12.849
			c0.727,7.366,0.202,14.92,0.685,22.327c0.791,12.162,2.66,24.224,3.451,36.384c0.85,13.046,0.258,26.149-1.008,39.146
			c-1.283,13.184-3.461,26.267-5.628,39.328c-2.132,12.849-3.965,25.758-6.575,38.521c-5.078,24.836-12.098,49.368-12.594,74.885
			c-0.12,6.204,0.308,12.4,1.1,18.549c0.453,3.52,1.439,3.985,3.042,6.86c3.326,5.968,7.159,13.433,13.791,16.254
			c1.253,0.533,2.669,0.389,3.421-0.897c4.714-8.061,14.845-9.546,23.376-10.073c8.429-0.521,16.855,0.337,25.282,0.404
			c3.275,0.026,3.154-4.71,0-5c-1.987-0.183-3.974-0.274-5.967-0.358c0.222,1.637,0.443,3.274,0.665,4.911
			c5.259-1.677,11.197-1.532,16.681-1.769c5.615-0.243,11.246-0.109,16.688,1.406c13.552,3.774,16.519,18.787,16.337,31.001
			c-0.2,13.409-3.761,26.514-4.148,39.916c-0.394,13.595,1.782,27.222,3.854,40.613c2.186,14.129,4.614,28.26,4.892,42.588
			c0.288,14.892-2.177,29.984-3.104,44.849c-1.795,28.812-1.94,57.645-2.079,86.499c-0.12,24.917-6.031,49.5-4.889,74.468
			c0.497,10.852,2.744,21.584,7.779,31.264c2.401,4.617,5.682,8.767,9.31,12.473c0.985,1.007,2.382,1.634,3.801,1.557
			c7.637-0.415,11.696-14.886,13.771-20.357c5.821-15.348,9.954-31.379,13.812-47.312c4.185-17.283,7.789-34.73,10.614-52.289
			c2.512-15.606,3.159-30.598,3.246-46.397c0.162-29.555,0.463-59.124-1.118-88.65c-0.758-14.159-2.053-28.284-4.026-42.326
			c-1.991-14.174-5.664-27.991-7.886-42.114c-4.777-30.374-4.088-61.325-8.957-91.702c-5.038-31.432-15.035-61.86-18.698-93.549
			c-1.748-15.12-2.976-30.253-5.065-45.343c-2.167-15.653-4.49-31.281-5.956-47.02c-1.001-10.744-1.242-21.253-0.81-32.014
			c0.39-9.702,0.721-19.439-0.37-29.11c-1.4-12.43-5.914-25.193-18.57-29.836c0.611,0.804,1.224,1.607,1.835,2.411
			c-0.05-7.267-13.75-10.313-18.83-12.025c-12.649-4.262-25.787-7.411-38.006-12.864c-5.592-2.496-9.25-5.452-12.859-10.459
			c-4.751-6.59-8.443-13.793-14.357-19.486c-5.483-5.277-12.124-7.349-19.49-8.305c-8.093-1.05-18.318-0.343-23.855-7.529
			c-1.309,1.01-2.617,2.02-3.926,3.029c14.158,11.454,35.242,5.297,51.796,5.419c2.97,0.022,3.208-3.963,0.665-4.911
			c-14.707-5.478-31.892-2.146-44.234-13.439c-0.589,1.422-1.179,2.845-1.768,4.268c16.26,1.93,32.691,0.789,48.958,2.647
			c15.05,1.719,25.802,13.353,36.861,22.555c7.676,6.388,15.671,12.255,24.956,16.073c10.922,4.491,23.099,4.853,34.72,4.154
			c2.484-0.149,3.409-3.284,1.262-4.659c-10.604-6.788-19.24-15.772-27.368-25.294c-6.242-7.313-12.301-18.105-21.768-21.602
			c-7.967-2.942-17.225-1.675-25.55-2.529c-10.031-1.029-22.899-3.477-28.612-12.738c-1.31,1.01-2.618,2.02-3.927,3.029
			c10.735,8.753,23.046,11.533,36.685,10.813c14.757-0.779,29.139-4.706,44.008-3.57c-0.804-0.612-1.607-1.224-2.411-1.835
			c8.716,23.003,26.65,40.557,46.137,54.869c10.413,7.648,23.872,8.223,34.694,15c10.811,6.771,8.135,20.24,5.173,30.515
			c-3.082,10.688-8.06,21.209-7.975,32.527c0.058,7.715,2.235,14.996,0.497,22.708c-1.591,7.062-4.359,13.874-6.221,20.872
			c-1.824,6.857-2.635,13.945-4.283,20.85c-1.791,7.497-4.066,14.875-6.168,22.288c-3.901,13.763-7.105,27.826-6.163,42.221
			c0.949,14.508,7.427,28.036,11.523,41.802c4.55,15.289,7.741,31.112,11.661,46.58c7.948,31.357,14.798,62.825,21.058,94.558
			c3.059,15.501,6.089,31.008,9.093,46.52c2.25,11.621,3.843,22.667,3.777,34.521c-0.136,24.588-3.474,49.08-5.297,73.571
			c-0.872,11.719-1.338,23.431-0.42,35.162c0.805,10.291,2.877,20.43,2.107,30.793c-1.093,14.722-7.612,29.15-11.534,43.275
			c-4.351,15.665-8.084,31.496-11.897,47.298c-3.406,14.113-6.642,28.295-10.207,42.364c-1.483,5.851-3.467,11.424-7.928,15.668
			c-3.949,3.757-8.623,6.341-12.089,10.665c-7.05,8.798-7.968,20.985-14.923,29.795c-5.113,6.478-17.952,7.659-25.486,7.948
			c-3.155,0.121-7.962,0.245-9.938-2.711c-2.262-3.383-2.89-8.118-3.603-12.029c-1.551-8.519-1.963-17.191-2.7-25.803
			c-2.705-31.603-4.999-63.166-5.913-94.88c-0.932-32.343-0.649-64.721,0.85-97.041c1.039-22.374,3.5-44.642,4.566-67.004
			c0.861-18.058,0.955-36.412-1.582-54.347c-1.628-11.515-4.323-29.499-16.711-34.633c-17.391-7.207-27.538,23.647-31.405,34.664
			c-10.562,30.086-16.176,62.049-21.454,93.405c-4.705,27.945-8.45,56.029-12.245,84.108c-1.35,9.987-2.805,19.958-4.932,29.814
			c-5.487,25.422-14.865,49.807-22.074,74.75c-7.145,24.724-10.138,49.611-10.667,75.299c-0.564,27.447,0.774,54.977-2.529,82.301
			c0.833-0.833,1.667-1.667,2.5-2.5c-25.445-1.707-50.574-7.753-76.191-6.35c0.804,0.611,1.607,1.224,2.411,1.835
			c-0.872-3.387-0.32-6.661-0.893-10.044c-0.465-2.751-1.705-5.36-2.439-8.062c-1.857-6.828-2.187-14.049-2.498-21.083
			c-0.585-13.249-0.713-26.115-4.075-39.029c-1.738-6.678-3.917-13.238-5.904-19.844c-2.299-7.642-3.749-15.455-5.852-23.133
			c-4.287-15.644-8.29-31.365-11.777-47.207c-6.977-31.69-11.878-64.376-10.775-96.907c1.065-31.417,9.547-62.117,15.682-92.784
			c6.2-30.997,9.835-62.698,4.306-94.071c-5.162-29.282-17.949-56.614-28.155-84.342c-0.901-2.45-3.868-2.29-4.821,0
			c-10.892,26.162-8.132,55.281-6.177,82.834c2.14,30.164,1.981,60.31-0.801,90.429c-1.473,15.947-3.625,31.827-6.136,47.642
			c-2.357,14.844-4.4,29.574-10.867,43.289c-5.562,11.798-13.266,22.37-17.388,34.842c-4.679,14.157-5.427,29.283-8.978,43.715
			c-1.805,7.336-7.133,19.528-16.225,19.284c-8.562-0.23-17.744-7.267-24.994-11.147c-10.032-5.371-21.284-10.829-29.01-19.37
			c-8.073-8.925-10.621-22.962-12.516-34.45c-4.354-26.401-2.621-53.54-2.95-80.175c-0.384-31.138-4.666-62.049-8.244-92.933
			c-5.176-44.679-8.634-89.614-12.709-134.406c-3.545-38.968-25.327-72.395-33.423-110.188c-0.426-1.988-2.841-2.224-4.178-1.103
			c-7.811,6.546-18.622,5.341-27.632,2.306c-9.574-3.225-21.164-10.582-24.51-20.61c-3.181-9.533,0.583-22.543-6.228-30.901
			c-6.073-7.453-15.879-9.218-20.244-18.542c-0.498,1.224-0.996,2.448-1.494,3.672c4.212-1.193,7.771-3.1,10.701-6.391
			c2.99-3.356,4.794-7.534,7.937-10.789c6.006-6.221,13.427-7.782,21.3-9.988c8.956-2.509,18.769-7.14,28.304-5.638
			c8.886,1.399,16.434,9.174,22.977,14.702c1.951,1.648,4.655,0.084,4.178-2.432c-7.688-40.591-7.4-82.899-20.575-122.368
			c-3.591-10.759-7.253-21.304-9.833-32.374c-2.537-10.884-4.299-21.938-5.906-32.991c-3.226-22.188-5.75-44.467-11.305-66.235
			c-1.523,0.642-3.046,1.284-4.569,1.926c4.979,10.557,13.135,18.96,19.743,28.456c3.379,4.856,6.039,10.071,7.659,15.77
			c2.056,7.228,0.128,13.607-0.775,20.791c-1.564,12.432,5.839,21.309,12.743,30.67c7.881,10.689,11.898,24.595,15.375,37.24
			c5.993,21.793,6.034,45.642,16.738,65.855c2.475,4.673,4.923,9.121,7.882,13.52c3.922,5.832,5.994,11.853,7.571,18.655
			c3.193,13.775,5.539,27.745,7.623,41.725c4.238,28.423,8.894,57.453,5.899,86.191c-3.019,28.958-12.66,58.915-8.247,88.201
			c4.233,28.098,19.635,53.191,22.92,81.511c0.809,6.976,0.659,13.995,1.604,20.978c1.172,8.666,2.42,17.234,3.153,25.956
			c1.357,16.145,2.408,32.314,3.531,48.477c1.406,20.228,3.188,40.422,4.512,60.653c1.219,18.643,1.577,37.225,1.955,55.894
			c0.173,8.569,0.578,18.244,6.242,25.2c6.646,8.163,17.7,12.719,26.673,17.695c1.104,0.612,2.838,0.36,3.42-0.896
			c2.62-5.656,3.576-11.737,5.338-17.676c2.059-6.939,5.121-13.091,6.043-20.394c1.757-13.903-0.118-28.08-0.099-42.041
			c0.022-15.872,3.664-31.514,8.07-46.671c4.146-14.265,9.984-28.126,13.471-42.563c2.493-10.319,1.945-20.677,0.741-31.129
			c-0.518-4.499,0.07-11.383-3.066-14.954c-1.333-1.517-2.855-2.842-4.063-4.47c-2.439-3.287-2.491-5.449-0.238-8.593
			c5.168-7.208,6-15.614,6.891-24.3c1.333-12.994-0.401-26.229-0.311-39.289c0.199-29.018,2.705-57.975,1.379-87.002
			c-0.426-9.32-1.458-18.673-1.368-28.011c0.038-3.877,0.297-7.351,4.761-7.622c7.352-0.447,15.418,1.879,22.541,3.377
			c9.198,1.934,18.604,3.01,27.974,3.642c17.631,1.19,40.29,1.748,55.483-8.868c-1.14-0.299-2.28-0.598-3.42-0.897
			c3.2,6.802,7.831,11.559,13.836,15.93c6.484,4.719,10.459,10.374,13.833,17.621c6.89,14.797,10.331,30.006,24.021,40.362
			c1.222,0.924,3.421-0.007,3.673-1.494c5.354-31.728,13.789-62.805,20.759-94.192c3.369-15.174,6.364-30.459,8.389-45.876
			c2.058-15.668,1.94-31.392,3.595-47.062c2.76-26.144,12.65-54.216,2.944-80.021c-2.229-5.93-6.688-13.774-13.907-14.11
			c-9.624-0.447-15.976,10.243-20,17.43c-7.344,13.111-11.115,27.6-17.828,40.98c-3.226,6.431-7.359,12.373-10.643,18.79
			c-3.042,5.946-5.594,12.14-7.96,18.38c-4.195,11.064-6.559,23.122-13.636,32.812c-6.017,8.237-14.94,14.093-23.926,18.613
			c-19.153,9.635-41.378,13.399-62.577,14.898c-21.667,1.532-43.018-4.472-61.181-16.254
			c-36.057-23.387-55.759-67.585-57.465-109.547c-1.73-42.538,14.15-90.097,53.408-111.235c6.977-3.757,14.463-6.445,22.092-8.528
			C233.206,75.517,231.885,70.693,228.77,71.543z"/>
	</g>
</g>
<g id="face">
	<g id="mouth">
		<g>
			<path style="fill:#FFFFFF;" d="M203.712,306.272c14.544-8.498,20.31-24.502,30.665-36.899c-1.393-0.368-2.786-0.735-4.178-1.103
				c2.905,19.888,0.827,40.453,12.95,57.74c1.006,1.435,3.393,1.796,4.317,0c10.745-20.871,3.175-46.736,15.873-66.667
				c-1.523-0.199-3.046-0.398-4.569-0.597c4.709,24.168,16.889,45.228,27.236,67.264c0.774,1.648,3.535,1.62,4.317,0
				c11.229-23.24,8.35-49.294,8.278-74.278c-1.422,0.589-2.845,1.179-4.268,1.768c17.659,14.61,24.527,41,29.516,62.389
				c0.678,2.907,4.685,2.007,4.911-0.665c1.868-22.086,9.292-43.365,15.784-64.415c-1.607,0-3.214,0-4.821,0
				c4.834,16.056,10.637,31.288,24.958,41.176c2.661,1.837,5.157-2.499,2.523-4.317c-13.145-9.076-18.243-23.517-22.661-38.188
				c-0.721-2.396-4.089-2.373-4.821,0c-6.635,21.513-14.053,43.174-15.962,65.744c1.637-0.222,3.274-0.443,4.911-0.665
				c-2.804-12.024-6.283-23.961-11.165-35.319c-4.633-10.781-10.454-21.679-19.637-29.276c-1.609-1.332-4.274-0.57-4.268,1.768
				c0.069,23.941,3.175,49.464-7.595,71.754c1.439,0,2.878,0,4.317,0c-10.168-21.654-22.104-42.319-26.732-66.069
				c-0.438-2.247-3.491-2.29-4.569-0.597c-12.843,20.158-5.134,45.807-15.873,66.667c1.439,0,2.878,0,4.317,0
				c-11.778-16.795-9.621-37.204-12.446-56.546c-0.265-1.813-3.048-2.457-4.178-1.103c-9.975,11.94-15.695,27.962-29.653,36.117
				C198.407,303.58,200.922,307.902,203.712,306.272L203.712,306.272z"/>
		</g>
	</g>
	
		<ellipse id="eyewhite_1_" style="fill:#FFFFFF;stroke:#FFFFFF;stroke-miterlimit:10;" cx="223.879" cy="197.764" rx="37.302" ry="52.381"/>
	
		<ellipse id="eyewhite" style="fill:#FFFFFF;stroke:#000000;stroke-miterlimit:10;" cx="328.263" cy="170.577" rx="54.384" ry="69.638"/>
	<g id="pupil_1_">
		<g>
			<path d="M209.563,163.508c9.437,22.648,9.37,47.481,12.698,71.429c0.442,3.182,5.259,1.823,4.821-1.329
				c-3.329-23.957-3.255-48.764-12.698-71.429C213.164,159.248,208.324,160.532,209.563,163.508L209.563,163.508z"/>
		</g>
	</g>
	<g id="pupil">
		<g>
			<path d="M309.815,118.073c8.771,15.215,12.663,32.819,15.422,49.998c2.841,17.688,3.97,35.626,4.871,53.502
				c0.162,3.208,5.163,3.224,5,0c-0.924-18.344-2.23-36.669-5.05-54.831c-2.731-17.597-6.958-35.634-15.926-51.192
				C312.523,112.758,308.202,115.275,309.815,118.073L309.815,118.073z"/>
		</g>
	</g>
</g>
</svg>
