<?xml version="1.0" encoding="iso-8859-1"?>
<!-- Generator: Adobe Illustrator 16.0.4, SVG Export Plug-In . SVG Version: 6.00 Build 0)  -->
<!DOCTYPE svg PUBLIC "-//W3C//DTD SVG 1.1//EN" "http://www.w3.org/Graphics/SVG/1.1/DTD/svg11.dtd">
<svg version="1.1" id="arm" xmlns="http://www.w3.org/2000/svg" xmlns:xlink="http://www.w3.org/1999/xlink" x="0px" y="0px"
	 width="816.875px" height="949.277px" viewBox="0 0 816.875 949.277" style="enable-background:new 0 0 816.875 949.277;"
	 xml:space="preserve">
	
	<style type="text/css">
		.color{fill:#FFB1EE;}
	</style>

<defs>
	<script>
		(() => {
 		let iconSix = document.querySelector("#arm");

		function logThisIconSix() {
			console.log(this.id);
		}

		iconSix.addEventListener("click", logThisIconSix);

		document.querySelector("#arm").addEventListener("click", color);

		function color() {
  		document.getElementById("arm").classList.add("color");
		}
		
		})();
	</script>
</defs>

<g id="body">
	<path d="M708.833,389.361c-4.33-11.613-21.568-34.795-20.275-13.321c1.363,22.638,5.328,46.551,8.463,69.287
		c4.053,29.384,9.982,58.237,18.027,86.493c7.008,24.615,5.85,53.176,11.814,78.695c4.463,19.09,16.793,28.666,27.26,43.752
		c7.32,10.551,6.793,18.971,9.162,30.9c4.613,23.221,2.689,46.287,1.473,71.783c-1.5,31.473,1.287,64.859,6.998,96.02
		c2.236,12.205,5.15,23.635,7.756,35.25c2.299,10.246,10.639,25.117,7.875,35.287c6.586-2.732-19.471,2.566-32.896,7.064
		c-27.186,9.109-57.23,8.779-85.088,16.324c-8.547-17.812-6.211-57.104-6.189-77.438c0.014-13.084,0.662-25.873-8.432-35.613
		c-14.771-15.822-20.92-18.256-44.67-25.448c-11.839-3.585-29.966-0.515-46.14,7.692c-13.57,6.885-20.525,23.418-25.601,37.438
		c-5.513,15.236-13.582,31.092-16.836,47.158c-3.098,15.291,6.518,37.41-12.813,40.623c-11.084,1.842-29.586-3.543-41.165-4.812
		c-8.782-0.963-29.906,1.699-36.902-1.111c-17.806-7.152-3.685-55.508-1.396-70.674c1.672-11.078,0.029-26.654,4.666-36.826
		c2.405-5.275,8.149-7.383,11.082-12.031c4.431-7.027,3.138-9.506,5.141-17.041c12.383-46.574-21.885-98.523-36.839-143.074
		c-10.576-31.506-28.086-63.426-48.552-89.771c-17.271-22.232-22.598-50.465-29.689-77.681
		c-7.638-29.311-18.768-59.035-29.18-87.185c-5.61-15.167-12.908-28.346-32.369-17.259c-9.968,5.679-13.708,23.077-18.328,33.33
		c-16.288,36.15-28.474,74.285-44.925,110.965c-12.988,28.959-27.485,50.139-59.199,56.957c-21.411,4.604-55.094,6.123-75.045-4.781
		c-23.579-12.889-10.291-83.465-7.329-105.551c10.111-75.396,21.168-149.948,38.591-222.333
		c5.399-22.434,14.466-68.778-7.393-86.865c-19.265-15.94-52.582,31.513-79.61,22.251c4.86-26.562,29.585-34.263,46.788-51.28
		c-12.291-2.763-73.264,4.305-63.597-13.981c9.177-17.358,55.875-6.429,67.943-16.895C60.173,100.778-2.438,76.39,7.887,60.747
		c9.417-14.267,45.883,6.756,54.745,11.064c10.753,5.228,75.515,49.321,73.39,23.221c-1.403-17.234-38.266-19.043-33.293-42.461
		c13.34-2.377,17.794,10.478,26.011,18.65c6.214,6.18,14.693,9.787,20.566,16.484c11.341,12.933,12.312,40.493,13.573,56.955
		c3.237,42.288-1.337,90.855-9.933,131.776c-11.742,55.892-36.156,110.659-38.701,168.924c-0.831,19.017-9.49,71.83,11.813,83.552
		c12.799,7.043,30.643-4.697,37.85-14.787c15.351-21.492,14.736-54.357,18.027-79.509c5.394-41.232,9.105-82.658,15.193-123.417
		c4.303-28.802,9.547-55.621,43.717-60.176c44.149-5.886,86.827,17.66,130.977,5.886v-1.471
		c-1.472-26.49,17.66-72.112-14.717-86.829c-14.716-7.358-44.15,2.943-61.81,0c-22.076-2.943-48.565-11.773-61.81-30.905
		c-17.66-23.547-41.207-98.602-13.245-122.149c20.604-17.66,60.338-13.245,85.356-10.301c38.264,2.943,92.715,1.472,125.092,23.546
		c41.207,25.019,39.735,77.999,13.245,110.375c-11.773,16.188-17.66,20.604-13.245,44.15c4.415,19.132,22.075,58.867,42.678,58.867
		l-1.472,1.472c30.905,2.943,64.753-13.245,91.243-26.49c22.076-11.774,32.377-26.49,57.396-19.132
		c42.678,14.716,76.525,47.093,100.072,83.885c10.303,17.66,14.717,48.565,29.434,61.811"/>
	<g>
		<path d="M711.139,388.726c-2.943-7.564-7.549-15.136-13.496-20.72c-4.397-4.129-10.165-4.212-11.308,2.607
			c-0.99,5.908,0.304,12.494,0.861,18.396c0.731,7.759,1.704,15.497,2.749,23.218c2.126,15.715,4.292,31.446,6.751,47.113
			c2.484,15.83,5.611,31.556,9.281,47.152c3.506,14.899,8.321,29.469,10.663,44.619c4.155,26.889,1.62,57.636,17.464,81.095
			c5.823,8.623,13.178,16.09,18.946,24.761c6.457,9.706,7.042,22.987,8.879,34.193c4.373,26.675,0.267,53.914,0.041,80.726
			c-0.225,26.762,2.484,53.551,7.146,79.884c2.339,13.213,5.181,26.582,8.719,39.528c2.722,9.961,9.655,20.939,7.245,31.573
			c-0.498,2.194,1.613,3.533,3.513,2.7c1.71-0.749,3.183-2.75,1.512-4.421c-1.4-1.4-4.044-0.626-5.723-0.372
			c-9.587,1.454-19.17,3.958-28.426,6.808c-14.027,4.317-28.065,7.123-42.596,9.177c-14.959,2.115-29.961,3.954-44.595,7.827
			c0.9,0.366,1.801,0.732,2.7,1.099c-4.47-9.7-5.193-21.056-5.771-31.563c-0.631-11.505-0.402-23.045-0.21-34.559
			c0.189-11.33,1.109-23.189-1.731-34.259c-2.63-10.246-11.399-18.446-19.524-24.709c-7.332-5.65-15.764-8.895-24.498-11.727
			c-5.277-1.71-10.503-3.45-16.026-4.112c-6.284-0.753-12.753,0.13-18.914,1.371c-12.132,2.444-24.802,7.439-33.157,16.846
			c-7.503,8.446-11.756,19.445-15.569,29.914c-5.305,14.56-12.198,28.522-16.037,43.592c-2.42,9.501-0.901,18.874-1.18,28.518
			c-0.12,4.141-0.923,8.3-4.018,11.255c-4.105,3.92-11.542,3.191-16.673,2.773c-11.564-0.941-22.799-4.843-34.419-5.134
			c-10.157-0.254-20.965,1.876-30.976-0.352c-7.644-1.701-8.402-12.109-8.572-18.349c-0.475-17.446,5.216-34.105,7.562-51.199
			c0.783-5.707,0.792-11.506,1.078-17.252c0.334-6.7,0.599-15.224,5.122-20.62c3.6-4.295,7.949-6.709,10.696-11.825
			c2.459-4.578,2.579-9.897,3.808-14.851c6.311-25.446,0.102-51.072-8.74-75.123c-4.664-12.687-10.163-25.056-15.512-37.462
			c-5.457-12.656-10.227-25.447-14.914-38.397c-10.089-27.879-24.669-54.214-42.202-78.079
			c-8.723-11.873-15.96-23.354-21.051-37.289c-4.819-13.19-7.962-26.946-11.4-40.539c-7.789-30.79-18.779-60.582-29.789-90.332
			c-3.093-8.357-6.426-17.802-14.366-22.754c-7.892-4.923-18.891-0.719-25.377,4.64c-7.716,6.375-10.685,18.008-14.021,26.984
			c-5.062,13.619-11.419,26.82-16.736,40.358c-11.271,28.698-21.222,58.186-35.038,85.802
			c-10.249,20.485-24.641,37.374-47.213,44.11c-11.413,3.406-23.693,4.502-35.549,4.794c-12.389,0.306-25.021-0.836-36.765-4.967
			c-8.269-2.909-12.947-7.566-15.724-15.837c-2.807-8.358-3.271-17.451-3.373-26.195c-0.215-18.467,2.366-36.901,5.066-55.127
			c4.034-27.237,7.478-54.559,11.586-81.788c4.793-31.771,10.138-63.461,16.389-94.979c5.088-25.65,12.376-50.999,16.399-76.836
			c2.329-14.957,3.386-30.623-0.242-45.459c-2.641-10.799-9.731-23.747-21.932-25.05c-11.472-1.226-23.47,8.071-32.603,13.704
			c-11.021,6.797-24.89,16.186-38.431,11.881c0.557,0.981,1.114,1.961,1.67,2.942c4.962-24.936,29.606-34.122,46.173-50.225
			c1.234-1.199,0.722-3.627-1.055-3.997c-10.175-2.117-21.396-0.771-31.718-0.944c-6.419-0.107-12.89-0.335-19.245-1.306
			c-3.606-0.551-9.779-1.282-11.751-4.895c-2.238-4.1,5.912-8.603,8.549-9.643c6.968-2.749,14.858-3.087,22.247-3.499
			c11.477-0.639,27.764,1.176,37.32-6.594c1.114-0.905,0.859-3.176-0.484-3.756C59.331,97.854,45.984,92.344,33.239,85.43
			c-5.29-2.87-34.347-18.547-20.156-26.101c7.089-3.773,18.217,0.904,24.948,3.475c7.575,2.893,14.761,6.682,21.972,10.362
			c11.06,5.646,21.443,12.597,32.337,18.564c7.623,4.175,41.308,24.653,45.81,7.39c2.523-9.675-6.524-16.613-13.577-21.109
			c-9.139-5.826-21.981-11.815-19.538-24.803c-0.557,0.557-1.114,1.114-1.67,1.67c12.038-1.702,17.472,12.123,24.804,19.1
			c4.498,4.28,10.078,7.296,14.932,11.131c5.017,3.964,8.236,9.059,10.514,14.963c4.251,11.02,5.263,23.228,6.169,34.901
			c1.025,13.209,1.762,26.403,1.745,39.657c-0.04,30.523-3.287,61.085-8.878,91.073c-5.539,29.704-14.687,58.506-23.048,87.493
			c-8.35,28.946-15.652,58.323-17.559,88.489c-1.137,17.988-3.43,36.037-2.326,54.081c0.938,15.339,5.254,35.862,23.728,37.64
			c10.466,1.007,21.083-6.013,28.2-12.96c8.038-7.848,12.351-19.145,15.207-29.771c3.253-12.103,4.382-24.743,5.533-37.182
			c1.313-14.192,3.183-28.301,4.868-42.452c3.939-33.084,7.289-66.242,12.181-99.205c2.825-19.033,5.979-41.78,23.927-52.7
			c11.185-6.805,25.631-7.007,38.298-6.562c14.819,0.521,29.458,3.424,44.038,5.907c22.182,3.777,44.652,6.402,66.76,0.735
			c1.028-0.264,1.756-1.257,1.756-2.306c0-18.497,4.683-36.647,4.249-55.14c-0.417-17.742-9.675-35.2-28.824-37.766
			c-11.513-1.542-23.259,0.757-34.698,1.99c-11.718,1.264-22.591,0.239-34.032-2.534c-11.962-2.899-23.523-7.649-33.509-14.908
			c-7.874-5.724-13.546-13.668-18.126-22.136c-9.292-17.179-15.157-36.67-18.141-55.916c-2.597-16.749-3.612-39.092,9.455-52.043
			C236.795,2.391,265.82,4.07,286.655,5.689c10.822,0.841,21.553,2.213,32.397,2.823c12.295,0.691,24.595,1.246,36.87,2.26
			c24.318,2.009,50.211,5.571,71.343,18.643c19.536,12.083,31.857,30.414,33.149,53.638c0.582,10.459-1.316,20.9-4.791,30.739
			c-3.661,10.367-9.82,18.906-16.303,27.636c-5.344,7.197-10.818,14.188-12.13,23.308c-1.388,9.649,0.922,19.695,3.966,28.813
			c3.986,11.94,9.553,23.621,16.91,33.854c5.984,8.323,14.395,16.875,25.3,17.183c-0.563-1.361-1.127-2.722-1.691-4.083
			c-0.491,0.49-0.981,0.981-1.472,1.472c-1.57,1.57-0.313,3.914,1.691,4.083c27.797,2.344,54.786-8.721,79.392-20.409
			c11.845-5.626,22.67-12.248,33.743-19.216c11.143-7.012,21.942-9.674,34.868-6.082c12.705,3.531,25.078,10.722,36.071,17.841
			c11.222,7.267,21.479,15.934,30.949,25.348c9.445,9.391,17.92,19.731,25.597,30.604c7.002,9.918,11.489,20.166,15.51,31.577
			c4.844,13.75,9.345,29.442,20.323,39.71c2.25,2.104,5.64-1.271,3.383-3.382c-8.327-7.788-12.444-19.061-16.243-29.534
			c-3.758-10.359-6.954-21.033-12.229-30.759c-5.865-10.815-14.307-20.866-22.311-30.151c-8.513-9.877-17.959-18.936-28.133-27.087
			c-9.954-7.975-20.722-14.874-32.118-20.594c-10.903-5.472-22.812-10.79-35.253-10.161c-10.759,0.544-20.023,6.646-28.751,12.357
			c-11.302,7.394-23.183,13.359-35.461,18.956c-21.583,9.839-45.272,18.228-69.338,16.198c0.563,1.361,1.127,2.722,1.691,4.083
			c0.491-0.49,0.981-0.981,1.472-1.472c1.507-1.507,0.37-4.024-1.691-4.083c-9.537-0.269-16.748-8.664-21.89-15.816
			c-6.223-8.655-10.868-18.524-14.57-28.485c-3.569-9.602-6.434-20.251-4.952-30.557c1.353-9.408,8.688-17.892,14.448-25.044
			c25.582-31.76,26.267-81.528-7.128-108.045C400.979,1.447,348.732,7.901,303.282,2.593c-22.043-2.574-45.504-4.919-67.063,1.761
			c-17.748,5.5-28.154,18.44-30.545,36.646c-2.569,19.569,1.555,39.875,7.387,58.512c5.124,16.373,12.107,33.67,24.042,46.334
			c15.246,16.176,40.136,23.706,61.71,25.565c20.956,1.806,47.58-11.373,65.322,4.623c10.871,9.801,10.176,26.664,8.97,39.947
			c-1.247,13.729-3.675,27.108-3.675,40.929c0.585-0.769,1.17-1.538,1.756-2.306c-29.438,7.547-58.962-0.418-88.227-4.696
			c-22.293-3.259-50.628-6.037-68.834,10.151c-14.861,13.213-17.174,35.959-19.875,54.389c-4.704,32.097-7.966,64.383-11.779,96.592
			c-1.675,14.152-3.564,28.259-4.869,42.452c-1.201,13.07-2.567,26.159-6.167,38.824c-3.456,12.158-9.503,23.152-20.062,30.424
			c-9.015,6.209-21.989,9.223-29.525-0.673c-5.302-6.962-6.582-16.69-7.265-25.139c-0.79-9.764-0.323-19.622,0.351-29.378
			c1.635-23.678,3.343-47.22,8.294-70.491c6.356-29.874,16.096-58.897,24.22-88.307c7.859-28.45,13.262-57.388,16.296-86.746
			c2.957-28.601,3.015-57.088,0.918-85.738c-0.828-11.317-1.956-22.729-5.156-33.656c-3.208-10.956-9.244-18.456-18.509-24.965
			c-4.353-3.058-8.67-5.978-12.275-9.933c-2.791-3.062-5.118-6.531-7.779-9.704c-4.985-5.944-11.093-8.842-18.851-7.746
			c-0.747,0.105-1.534,0.947-1.67,1.67c-3.245,17.249,12.912,24.115,24.773,32.203c4.29,2.925,10.952,8.923,7.934,14.876
			c-1.95,3.846-9.805,1.155-12.66,0.304c-14.969-4.46-28.877-13.273-42.215-21.187c-10.478-6.216-20.988-12.106-32.129-17.094
			c-10.25-4.589-24.318-10.822-35.457-5.84c-9.571,4.281-6.254,14.248-0.62,20.034c8.508,8.738,20.505,14.462,31.314,19.737
			c9.458,4.616,19.188,8.583,28.844,12.751c-0.161-1.252-0.323-2.504-0.484-3.756c-4.978,4.047-13.196,4.073-19.249,4.474
			c-8.264,0.548-16.552,0.605-24.791,1.522c-8.744,0.973-28.378,5.152-25.375,18.155c2.256,9.768,21.475,9.394,28.687,9.737
			c7.19,0.342,14.396,0.284,21.591,0.292c5.181,0.007,10.74-0.369,15.846,0.693c-0.352-1.333-0.704-2.665-1.055-3.997
			c-17.305,16.821-42.212,26.25-47.403,52.335c-0.262,1.318,0.36,2.525,1.67,2.942c17.101,5.436,34.192-7.556,47.946-15.95
			c6.825-4.166,14.548-9.216,22.791-9.516c9.083-0.33,14.833,9.735,17.531,17.095c7.126,19.434,3.023,42.706-1.172,62.335
			c-6.161,28.825-12.972,57.432-18.316,86.438c-10.048,54.537-17.536,109.527-25.04,164.46c-2.542,18.607-4.654,37.662-2.866,56.437
			c0.723,7.594,2.222,15.286,5.835,22.073c3.723,6.992,10.203,10.22,17.427,12.761c21.554,7.583,47.433,5.732,69.374,0.822
			c21.248-4.756,37.191-18.505,48.395-36.724c6.562-10.672,11.514-22.336,16.359-33.854c6.158-14.639,11.847-29.464,17.527-44.293
			c5.8-15.142,11.625-30.277,18.015-45.182c4.56-10.637,8.086-22.16,13.557-32.343c4.938-9.192,18.532-17.471,27.708-9.054
			c3.566,3.271,5.695,8.18,7.5,12.568c2.881,7.003,5.32,14.216,7.928,21.324c10.765,29.33,19.848,58.826,27.607,89.078
			c3.383,13.19,7.264,26.241,12.941,38.646c6.011,13.136,15.409,23.925,23.489,35.765c8.531,12.501,16.068,25.674,22.749,39.248
			c6.596,13.401,11.466,27.309,16.613,41.29c9.438,25.638,22.208,49.929,30.331,76.071c3.99,12.838,6.614,26.118,6.517,39.6
			c-0.046,6.412-0.967,12.756-2.55,18.962c-1.485,5.826-1.723,11.183-4.9,16.47c-2.854,4.75-8.399,6.982-11.082,12.031
			c-2.681,5.047-3.162,11.34-3.617,16.93c-0.815,10.002-0.989,19.698-3.027,29.553c-3.435,16.607-8.485,35.306-4.631,52.24
			c1.425,6.26,5.292,11.506,11.753,12.944c9.72,2.163,20.441,0.333,30.3,0.322c11.427-0.013,22.73,3.683,34.05,4.999
			c8.647,1.005,18.942,0.81,24.178-7.266c4.484-6.916,2.677-17.083,2.421-24.792c-0.446-13.496,4.896-26.237,9.878-38.542
			c5.101-12.599,9.232-25.935,15.802-37.865c7.168-13.02,18.173-19.194,32.16-23.244c8.693-2.517,18.248-3.68,27.145-1.59
			c7.783,1.828,15.86,4.617,23.129,7.957c6.023,2.768,11.168,6.767,15.938,11.322c7.699,7.352,12.254,14.58,13.219,25.362
			c1.449,16.203-0.236,32.83,0.02,49.087c0.228,14.517,0.575,30.587,6.761,44.008c0.445,0.967,1.74,1.354,2.7,1.099
			c23.388-6.188,47.716-7.173,71.28-12.476c9.49-2.136,18.64-5.519,28.079-7.874c3.915-0.978,7.855-1.855,11.812-2.653
			c1.477-0.298,2.959-0.564,4.445-0.808c0.577-0.095,1.153-0.164,1.736-0.218c1.855-0.17-0.865,0.661-1.269-1.618
			c0.205-0.775,0.41-1.551,0.615-2.326c0.392-0.447-0.412,0.149-0.558,0.214c1.171,0.899,2.342,1.8,3.513,2.7
			c2.54-11.204-3.545-22.44-6.864-32.842c-4.554-14.271-7.195-29.746-9.743-44.488c-5.467-31.631-7.271-63.662-5.646-95.704
			c0.781-15.416,1.66-30.842,0.743-46.271c-0.405-6.817-1.308-13.602-2.592-20.306c-1.241-6.482-1.835-13.089-3.618-19.458
			c-3.263-11.654-12.568-20.781-19.877-30.04c-8.899-11.276-12.984-23.185-15.25-37.258c-3.568-22.158-3.478-44.842-9.491-66.592
			c-6.489-23.476-11.824-47.165-15.741-71.21c-3.93-24.124-7.514-48.495-9.81-72.83c-0.464-4.917-1.081-9.947-0.87-14.891
			c0.169-3.926,1.812-2.288,3.963-0.269c5.051,4.742,9.131,11.588,11.632,18.013C707.633,392.839,712.259,391.604,711.139,388.726
			L711.139,388.726z"/>
	</g>
</g>
<g id="arm">
	<path style="fill:#ED1F24;" d="M750.04,342.268c23.162,18.437,25.018,38.264,33.85,55.923
		c10.301,23.547,16.188,48.565,22.074,73.584c8.83,44.15,16.188,114.791-10.303,154.525
		c-19.131,29.434-70.639,64.754-103.016,79.471c-25.02,13.244-79.471,7.357-104.488-5.889
		c-51.509-30.904-67.697-76.525-98.602-128.033c-22.075-36.793-51.508-76.527-66.225-114.791
		c-7.358-20.604-26.49-76.527-11.773-95.659c14.716-20.604,16.188,11.773,17.66,25.019c4.415,26.49,17.66,32.376,27.962,54.452
		c0-20.604,4.415-38.263,4.415-57.395c-1.472-10.302-5.887-60.338,14.717-47.093c22.075,14.717-11.773,82.413,16.188,89.771
		c5.887-19.131,10.302-39.735,17.66-58.867c2.943-7.358,2.943-27.962,13.245-25.019c11.773,1.472,7.358,22.076,7.358,27.962
		c-2.943,22.075-14.717,33.848-14.717,57.395c0,17.66,0,33.848,8.83,50.037c2.943-14.716,14.717-23.547,22.075-38.263
		c8.83-14.717,7.358-29.434,22.076-41.207c7.357,11.773-2.945,41.207-7.359,54.452c-5.887,17.659-20.604,33.848-27.961,51.508
		c-16.189,36.791,5.886,67.697,29.432,95.658c32.377,36.791,36.793,82.414,91.244,69.168c16.188-4.414,35.32-8.83,45.621-20.604
		s19.133-36.791,26.49-51.508c32.377-69.168,11.773-145.695-19.131-210.448"/>
	<g>
		<path d="M748.349,343.958c10.576,8.602,18.16,19.017,23.588,31.468c4.842,11.108,9.554,22.526,13.899,33.828
			c10.049,26.132,16.771,54.203,21.157,81.829c3.816,24.037,5.704,48.553,4.152,72.873c-1.459,22.87-6.587,46.059-20.163,64.924
			c-14.096,19.588-34.632,35.074-54.302,48.627c-9.944,6.851-20.248,13.195-30.848,18.98c-8.651,4.722-17.534,9.416-27.157,11.754
			c-21.885,5.316-46.511,2.745-68.102-2.691c-23.177-5.835-41.983-20.435-57.943-37.849c-16.396-17.892-28.453-39.229-40.173-60.325
			c-13.477-24.258-27.59-47.933-42.586-71.286c-16.087-25.055-32.557-50.373-43.639-78.136
			c-7.095-17.774-12.524-36.817-15.843-55.646c-1.999-11.344-3.91-25.271,1.064-36.142c0.931-2.034,6.312-11.059,9.204-8.69
			c3.142,2.572,3.668,8.947,4.291,12.626c0.871,5.149,1.255,10.371,1.795,15.561c0.743,7.145,3.117,14.176,6.162,20.648
			c5.993,12.742,16.116,22.998,22.208,35.765c1.063,2.228,4.441,1.045,4.457-1.207c0.099-15.109,2.6-29.984,3.874-45.005
			c0.694-8.186-0.036-15.728-0.558-23.829c-0.363-5.632-2.782-37.107,8.042-35.421c15.074,2.347,10.955,28.159,9.92,38.075
			c-1.48,14.196-5.742,31.525,0.5,45.118c2.016,4.391,5.948,7.338,10.515,8.651c1.278,0.367,2.565-0.436,2.942-1.67
			c3.609-11.845,6.652-23.85,10.064-35.751c2.858-9.967,7.261-19.646,9.311-29.798c0.831-4.112,1.734-16.71,7.556-16.861
			c8.418-0.218,7.617,11.79,7.284,17.299c-0.477,7.86-1.667,15.364-4.105,22.886c-3.059,9.437-7.383,18.361-9.622,28.068
			c-2.528,10.958-1.921,22.76-1.204,33.898c0.73,11.344,3.405,22.26,8.721,32.339c0.949,1.799,3.925,1.427,4.371-0.571
			c1.612-7.219,5.314-13.231,9.581-19.169c4.687-6.522,9.029-12.951,13.052-19.902c7.736-13.368,8.342-28.862,20.904-39.344
			c-1.252-0.161-2.504-0.323-3.756-0.484c5.066,8.809,1.379,21.725-0.916,30.846c-2.688,10.681-5.975,21.772-10.906,31.635
			c-6.326,12.654-15.141,23.882-21.455,36.555c-5.865,11.774-8.827,24.475-7.57,37.625c2.438,25.5,20.001,47.842,36.232,66.476
			c13.461,15.453,22.257,34.146,34.785,50.263c11.186,14.39,26.139,22.03,44.525,20.705c12-0.864,24.188-4.765,35.493-8.693
			c10.594-3.682,20.275-8.977,27.155-18.016c7.32-9.619,11.981-21.38,16.81-32.364c5.158-11.736,10.913-23.18,15.029-35.345
			c9.201-27.192,10.774-56.432,7.463-84.79c-4.446-38.075-17.808-74.636-34.181-109.083c-1.323-2.785-5.446-0.356-4.129,2.414
			c25.112,52.837,43.413,112.755,31.294,171.505c-2.968,14.385-8.168,27.844-14.359,41.109
			c-5.249,11.247-9.786,22.809-15.628,33.776c-6.213,11.667-14.109,19.448-26.42,24.552c-11.547,4.788-24.774,8.646-37.21,10.031
			c-9.568,1.065-19.119-0.331-27.488-5.215c-7.637-4.456-13.433-11.6-18.469-18.712c-5.718-8.075-10.687-16.666-16.081-24.955
			c-6.157-9.463-13.203-18.017-20.364-26.715c-17.348-21.069-34.458-46.443-28.826-75.091c2.823-14.358,11.349-26.872,19.014-39.032
			c6.558-10.403,11.678-20.813,15.5-32.483c2.879-8.792,5.452-17.717,6.893-26.868c1.159-7.365,1.801-15.829-2.062-22.543
			c-0.82-1.428-2.594-1.453-3.756-0.484c-12.431,10.372-14.021,25.224-20.908,38.932c-7.151,14.235-20.311,25.71-23.857,41.593
			c1.457-0.19,2.914-0.381,4.371-0.571c-6.346-12.031-8.107-24.962-8.434-38.398c-0.311-12.781,0.729-24.379,5.119-36.443
			c5.945-16.341,12.931-33.777,9.686-51.574c-1.112-6.102-6.344-11.443-12.974-10.338c-6.732,1.122-8.534,9.612-9.745,15.154
			c-2.216,10.141-5.706,19.576-8.742,29.512c-4.167,13.636-7.502,27.51-11.659,41.15c0.981-0.557,1.961-1.114,2.942-1.67
			c-14.292-4.109-9.935-27.011-8.775-37.752c1.538-14.232,5.625-31.781-1.05-45.282c-2.433-4.921-7.848-9.044-13.471-9.032
			c-5.419,0.012-8.304,5.327-9.771,9.793c-4.113,12.528-2.631,27.744-1.038,40.615c1.038,8.386-0.661,17.571-1.624,25.92
			c-1.257,10.904-2.547,21.769-2.62,32.76c1.486-0.402,2.971-0.805,4.457-1.207c-4.845-10.153-11.769-18.748-17.876-28.111
			c-6.189-9.487-9.252-19.897-10.36-31.091c-0.658-6.646-3.284-37.419-16.708-25.756c-13.773,11.965-11.231,32.812-8.521,48.875
			c3.185,18.873,8.896,37.813,15.843,55.646c10.552,27.089,26.544,51.847,42.159,76.22c15.082,23.54,29.543,47.255,43.089,71.714
			c11.496,20.756,23.241,41.469,38.621,59.652c14.405,17.03,32.901,33.136,54.223,40.514c20.784,7.191,44.168,9.627,66.026,7.745
			c20.679-1.78,38.31-11.545,55.798-22.096c21.012-12.678,41.204-27.438,58.721-44.671c15.537-15.286,26.061-32.805,31.267-54.039
			c9.77-39.85,4.639-83.396-3.254-123.125c-5.12-25.777-12.179-52.656-23.43-76.471c-4.102-8.682-6.872-17.923-11.029-26.59
			c-5.182-10.806-12.81-19.962-22.079-27.501C749.36,338.648,745.955,342.011,748.349,343.958L748.349,343.958z"/>
	</g>
</g>
<g id="eyes">
	
		<ellipse transform="matrix(0.0959 0.9954 -0.9954 0.0959 327.3412 -198.9764)" style="fill:#FFFFFF;stroke:#000000;stroke-width:0.891;stroke-miterlimit:10;" cx="273.202" cy="80.704" rx="61.538" ry="43.377"/>
	
		<ellipse transform="matrix(0.8141 -0.5808 0.5808 0.8141 21.6318 234.12)" style="fill:#FFFFFF;stroke:#000000;stroke-width:0.9066;stroke-miterlimit:10;" cx="376.457" cy="83.276" rx="39.06" ry="66.771"/>
	<g>
		<g>
			<path d="M269.505,26.581c17.197,27.705,19.63,59.22,19.659,91.046c0.003,3.224,5.003,3.225,5,0
				c-0.029-32.688-2.69-65.131-20.341-93.569C272.126,21.325,267.799,23.833,269.505,26.581L269.505,26.581z"/>
		</g>
	</g>
	<g>
		<g>
			<path d="M373.868,38.292c7.505,24.532,9.035,50.866,1.539,75.594c-0.938,3.094,3.889,4.406,4.821,1.329
				c7.741-25.533,6.213-52.915-1.539-78.252C377.749,33.888,372.922,35.2,373.868,38.292L373.868,38.292z"/>
		</g>
	</g>
</g>
</svg>
