<?xml version="1.0" encoding="iso-8859-1"?>
<!-- Generator: Adobe Illustrator 16.0.4, SVG Export Plug-In . SVG Version: 6.00 Build 0)  -->
<!DOCTYPE svg PUBLIC "-//W3C//DTD SVG 1.1//EN" "http://www.w3.org/Graphics/SVG/1.1/DTD/svg11.dtd">
<svg version="1.1" id="person" xmlns="http://www.w3.org/2000/svg" xmlns:xlink="http://www.w3.org/1999/xlink" x="0px" y="0px"
	 width="778.375px" height="876.05px" viewBox="91.104 73.968 778.375 876.05"
	 style="enable-background:new 91.104 73.968 778.375 876.05;" xml:space="preserve">
<g id="body">
	<path d="M466.915,639.786c5.971-12.624,23.574-25.114,31.789-39.324c26.214-45.35,52.494-90.646,67.028-141.244
		c9.282-32.314,8.289-77.137,26.662-103.16c20.522-29.067,54.907-1.776,73.37,18.29c9.784,10.637,7.798,34.713,15.538,45.033
		c10.025,13.369,31.412,17.986,46.031,11.111c23.533-11.067,38.794-46.407,54.261-68.13c18.578-26.094,23.438-58.229,39.295-86.025
		c3.412-5.981,6.527-12.037,9.959-17.421c1.681-2.637,1.412-8.758,4.326-10.518c4.258-2.571,5.58,1.479,7.978,0.559
		c7.213-2.766,10.631,2.124,17.975-7.225c3.227-4.107,5.484-11.247,5.785-16.237c1.479-24.507-16.293-60.331-44.521-50.87
		c-11.062,3.708-22.629,13.899-23.729,25.479c-1.787,18.841,17.848,20.615,20.756,34.92c2.088,10.282-10.521,28.182-15.604,36.474
		c-9.782,15.967-14.073,32.915-22.889,49.24c-9.834,18.214-45.617,86.584-72.812,82.576c-17.441-2.571-17.74-22.504-22.591-36.499
		c-5.782-16.688-19.241-48.174-34.796-57.22c-16.367-9.52-71.299,24.559-81.097,8.353c-3.768-6.233,14.498-27.146,17.518-33.717
		c6.242-13.583,7.352-32.052,3.138-45.944c-3.351-11.044-14.219-19.349-15.433-30.246c-1.295-11.619,43.168,24.84,65.181-56.914
		c11.11-41.27,0.246-43.525-4.293-55.141c-4.16-10.642-20.756-13.903-30.36-15.855c-23.04-4.682-52.479-5.31-74.971,2.513
		c-36.507,12.699-60.317,73.016-44.444,109.524c17.46,42.857,73.016,6.349,88.889,41.27c12.699,28.571-17.46,53.968-36.508,69.841
		c-14.286-12.699-26.983-26.984-46.032-33.333c-26.983-7.937-30.158,1.587-47.618,17.46c-26.984,25.396-65.08,15.873-95.238,31.746
		c-39.682,19.047-12.698,92.062-14.286,128.57c0,17.46,0,42.857-14.286,55.557c-15.873,15.873-31.746,3.175-31.746,31.746
		c0,50.794,85.714,50.794,68.254-3.176c-3.174-12.697-11.111-7.937-9.522-23.81c1.587-7.938,11.111-17.46,12.698-25.396
		c4.762-19.048,3.175-42.856,1.587-60.317c-1.587-15.873-9.524-42.857,0-57.144c9.524-12.698,36.508-14.286,50.793-19.048
		c34.921-14.286,73.016-44.444,66.667,17.46c-3.176,34.92-15.873,74.604-33.333,104.763c-19.049,31.745-68.253,49.207-69.841,87.301
		c-1.561,37.425,12.041,59.454-11.122,93.542c-18.535,27.277-44.724,48.632-69.506,69.948
		c-42.284,36.37-89.715,54.938-139.264,76.671c-12.727,5.582-27.095,8.515-40.426,12.654c-4.967,1.543-14.823,2.45-18.644,6.312
		c-7.531,7.611-1.979,3.476-1.596,11.911c0.792,17.389,6.013,35.354,4.367,54.159c-0.974,11.125-4.882,21.346-6.067,31.674
		c13.354,2.978,40.235,16.077,50.506,0.347c6.232-9.545-1.646-14.793-4.409-22.229c-5.417-14.581-5.794-28.813-4.825-44.159
		c31.594-5.63,63.498-25.678,92.541-38.803c32.257-14.574,58.669-36.101,87.661-56.753c19.51-13.897,37.51-29.709,55.383-45.615
		c13.288-11.826,45.209-57.689,62.644-54.191c7.075,1.42,36.214,16.384,46.591,20.635c19.603,8.03,36.483,15.492,53.409,28.571
		c15.873,11.111,39.582,45.804,55.455,58.502c-34.92,31.746-85.714,42.857-128.57,61.904c-31.746,11.11-93.651,6.35-114.287,33.334
		c-15.873,20.635-3.175,30.158,3.174,49.206c9.524,26.983,0,38.095,33.333,42.856c12.699,1.587,69.841,4.763,42.856-15.873
		c-11.11-7.937-46.031-1.588-36.508-31.746c9.524-25.396,100-44.443,123.811-53.969c23.81-7.937,41.27-23.81,61.904-34.921
		c20.636-12.698,44.444-17.46,58.73-38.095c53.969-77.778-193.651-173.017-193.651-169.841"/>
	<g>
		<path d="M469.074,641.048c5.642-11.291,16.188-19.611,24.312-29.049c9.051-10.513,15.219-23.614,22.037-35.615
			c14.796-26.042,28.832-52.541,40.143-80.306c5.51-13.526,10.467-27.437,14.015-41.615c3.044-12.17,4.7-24.67,6.618-37.052
			c1.934-12.486,4.04-24.979,7.673-37.102c3.352-11.179,8.581-24.021,18.592-30.82c19.546-13.272,45.308,10.023,58.114,23.022
			c8.295,8.418,10.005,18.529,12.213,29.764c1.927,9.805,4.543,18.597,12.776,24.931c8.658,6.663,19.633,9.609,30.479,8.771
			c10.319-0.795,19.02-6.276,26.44-13.149c17.091-15.829,26.887-38.129,39.813-57.13c7.663-11.264,13.684-22.947,18.744-35.593
			c5.371-13.42,9.832-27.183,15.807-40.359c2.909-6.42,6.427-12.502,9.828-18.667c2.998-5.433,6.754-10.417,8.143-16.518
			c0.736-3.24,2.058-5.002,5.583-3.442c1.6,0.708,2.976,0.394,4.577-0.146c4.005-1.35,8.057-0.229,12.025-2.119
			c9.52-4.529,12.633-18.294,12.465-27.725c-0.168-9.512-2.867-18.953-6.985-27.473c-8.138-16.835-25.468-28.493-44.021-20.179
			c-10.279,4.606-19.718,13.162-22.037,24.579c-1.831,9.019,2.319,16.669,8.712,22.64c6.964,6.506,13.938,11.671,11.106,22.239
			c-2.821,10.534-10.021,19.682-15.556,28.901c-7.753,12.917-12.278,27.482-18.62,41.081c-3.287,7.049-7.205,13.867-10.995,20.656
			c-9.35,16.748-19.454,33.382-31.966,47.98c-9.08,10.596-27.472,28.823-40.888,13.62c-6.412-7.266-7.132-19.06-9.938-27.963
			c-3.104-9.848-7.399-19.483-12.018-28.7c-4.843-9.662-10.631-19.363-18.583-26.802c-5.268-4.926-10.716-6.727-17.833-6.187
			c-16.971,1.288-32.984,9.271-49.463,13.007c-5.131,1.164-13.644,3.247-17.959-0.987c-4.11-4.034,7.225-17.572,9.502-20.843
			c5.645-8.107,9.75-15.224,11.85-25.093c2.508-11.787,2.381-25.373-2.073-36.692c-2.041-5.186-5.502-9.694-8.6-14.273
			c-2.204-3.258-6.393-9.82-5.815-13.005c-0.083,0.455-0.748,0.399,0.071,0.343c1.335-0.093,2.704,0.11,4.028,0.263
			c9.17,1.06,17.817,1.124,26.451-2.665c15.283-6.706,23.891-23.28,29.562-38.017c4.686-12.177,8-25.194,9.529-38.155
			c0.824-6.993,0.706-14.355-1.885-20.988c-1.684-4.31-4.504-7.988-6.487-12.141c-4.155-8.692-11.06-12.711-20.095-15.583
			c-23.529-7.479-50.671-8.52-74.827-4.116c-10.586,1.93-20.514,5.475-29.156,11.956c-7.794,5.845-14.106,13.422-19.362,21.573
			c-11.179,17.339-17.324,38.699-16.589,59.332c0.626,17.574,7.531,36.953,24.742,44.324c15.387,6.59,32.664,3.147,48.747,6.003
			c6.478,1.15,12.395,3.712,16.82,8.688c6.628,7.451,7.69,18.61,5.243,27.882c-5.017,19.008-23.106,33.165-37.512,45.174
			c1.178,0,2.357,0,3.535,0c-18.53-16.575-36.719-35.906-63.321-36.912c-8.298-0.314-15.038,3.493-21.058,8.837
			c-8.931,7.929-16.47,16.673-27.288,22.209c-22.13,11.325-48.531,8.966-71.619,17.49c-8.283,3.059-16.309,7.341-21.69,14.53
			c-4.979,6.653-7.526,14.589-8.827,22.72c-3.081,19.254,0.165,39.223,2.82,58.332c2.672,19.232,4.363,37.98,3.081,57.417
			c-0.775,11.747-3.091,24.551-11.232,33.567c-6.382,7.065-14.119,9.018-22.583,12.275c-15.279,5.885-13.599,27.799-8.122,40.211
			c10.111,22.916,45.981,31.561,64.204,13.384c10.295-10.271,9.194-27.339,3.397-39.604c-1.418-3-4.062-4.91-6.01-7.49
			c-3.552-4.706-1.392-11.721,1.098-16.295c2.737-5.028,6.276-9.553,8.645-14.79c2.447-5.408,3.027-11.823,3.724-17.662
			c1.642-13.755,0.923-27.768-0.168-41.534c-0.914-11.531-3.386-22.814-4.602-34.305c-1.166-11.013-1.595-24.667,8.456-31.725
			c8.836-6.205,20.705-7.991,31.032-10.219c9.128-1.97,17.201-4.804,25.644-8.757c7.73-3.622,15.349-7.523,23.287-10.685
			c5.697-2.269,12.479-4.822,18.712-3.643c6.609,1.25,8.676,8.083,9.611,13.894c1.98,12.297-0.411,25.843-2.455,37.964
			c-2.364,14.021-6.046,27.812-10.563,41.284c-4.565,13.615-10.266,26.843-17.038,39.504c-5.236,9.791-11.994,17.887-20.063,25.469
			c-14.919,14.021-32.595,25.542-44.319,42.648c-12.857,18.759-8.877,41.607-7.032,62.92c0.971,11.21,1.1,22.322-1.909,33.256
			c-3.822,13.891-12.814,25.896-21.889,36.802c-18.45,22.176-41.248,41.11-63.47,59.371c-22.381,18.392-47.769,32.694-73.804,45.199
			c-12.797,6.146-25.808,11.838-38.824,17.499c-13.764,5.987-27.271,12-41.749,16.086c-6.573,1.854-13.146,3.703-19.711,5.586
			c-4.786,1.372-9.861,1.772-14.429,3.883c-3.352,1.549-7.321,4.606-8.69,8.18c-0.968,2.528,1.151,4.189,1.798,6.46
			c0.92,3.225,0.588,7.229,0.943,10.572c0.338,3.18,0.788,6.348,1.227,9.513c1.055,7.61,2.151,15.197,2.602,22.875
			c0.911,15.521-4.289,29.552-6.241,44.703c-0.136,1.054,0.86,2.183,1.835,2.41c15.291,3.573,38.236,15.778,51.539,1.559
			c2.956-3.16,5.023-7.877,4.33-12.248c-0.749-4.725-3.706-8.471-5.929-12.583c-7.075-13.085-6.36-30.835-5.504-45.181
			c-0.612,0.804-1.224,1.606-1.835,2.41c28.833-5.365,54.751-20.353,80.749-33.178c13.163-6.493,26.417-12.433,39.018-20.02
			c12.574-7.57,24.544-16.108,36.413-24.729c24.773-17.991,49.034-36.11,72.027-56.369c14.655-12.91,26.454-28.074,39.94-42.135
			c5.829-6.078,12.041-12.138,19.368-16.389c5.831-3.383,10.014-2.678,15.95-0.262c17.098,6.956,33.6,15.48,50.574,22.765
			c21.16,9.078,40.954,20.432,56.66,37.472c13.499,14.646,25.034,31.896,40.551,44.545c0-1.179,0-2.355,0-3.535
			c-20.328,18.256-45.499,29.487-70.73,39.229c-12.538,4.841-25.207,9.336-37.741,14.188c-10.432,4.039-20.358,8.811-31.336,11.185
			c-20.78,4.492-42.159,5.445-62.938,10.021c-18.95,4.175-38.266,12.021-46.398,31.045c-3.938,9.21-1.375,18.014,2.584,26.678
			c4.46,9.761,8.185,19.314,10.355,29.854c1.272,6.182,2.004,12.901,5.673,18.229c4.13,5.999,11.562,8.33,18.325,9.836
			c13.535,3.014,28.541,3.263,42.277,1.894c8.94-0.891,24.114-5.174,14.728-16.421c-9.199-11.021-24.699-7.877-36.232-14.526
			c-7.032-4.057-7.206-13.419-3.923-20.109c2.792-5.69,8.816-9.613,14.038-12.81c16.012-9.798,34.545-15.659,52.325-21.312
			c16.336-5.192,32.948-9.521,49.217-14.918c9.771-3.243,19.198-7.21,28.183-12.259c11.914-6.695,22.922-14.874,34.656-21.869
			c10.858-6.476,22.181-11.78,33.525-17.317c10.709-5.226,20.841-11.515,28.606-20.692c7.507-8.873,11.889-20.052,11.103-31.736
			c-0.743-11.047-5.811-21.343-12.06-30.287c-16.541-23.673-41.772-41.184-65.913-56.313
			c-25.757-16.143-53.014-29.938-80.774-42.278c-10.825-4.813-21.763-9.42-32.866-13.556c-2.068-0.771-13.539-6.473-14.531-1.791
			c-0.667,3.146,4.151,4.482,4.82,1.329c-0.396,1.869-1.928,1.797-2.52,1.705c0.255,0.039,0.507,0.104,0.757,0.163
			c0.902,0.222,1.789,0.505,2.673,0.787c2.948,0.943,5.854,2.02,8.751,3.106c9.783,3.675,19.423,7.732,28.983,11.948
			c27.687,12.204,54.792,25.964,80.539,41.88c24.42,15.097,50.098,32.738,66.595,56.745c6.121,8.907,10.754,19.203,10.649,30.186
			c-0.147,15.55-11.151,28.448-23.44,36.723c-10.129,6.818-21.7,11.249-32.549,16.746c-11.872,6.016-23.024,13.356-34.134,20.648
			c-11.846,7.773-23.709,14.144-36.881,19.347c-6.032,2.384-12.321,4.163-18.53,6.017c-18.219,5.439-36.521,10.607-54.443,16.983
			c-15.43,5.49-32.172,11.606-44.707,22.504c-9.746,8.474-13.426,25.343-1.925,33.929c10.962,8.186,26.899,3.984,36.472,14.564
			c4.153,4.591-1.692,6.132-5.597,7.014c-7.048,1.594-14.549,1.539-21.734,1.438c-6.031-0.086-12.088-0.407-18.083-1.1
			c-7.493-0.867-17.802-2.53-22.438-9.266c-3.721-5.404-4.057-13.198-5.415-19.428c-2.25-10.321-6.388-19.687-10.754-29.241
			c-2.098-4.591-3.638-9.281-3.451-14.376c0.242-6.604,4.584-13.076,8.815-17.839c6.236-7.021,15.332-10.98,24.071-13.84
			c20.331-6.651,42.131-7.851,63.152-11.1c9.356-1.445,18.785-3.165,27.5-6.963c12.499-5.446,25.344-10.085,38.122-14.823
			c31.153-11.551,63.008-23.69,88.087-46.214c0.94-0.844,1.019-2.705,0-3.534c-16.844-13.731-29.115-32.668-44.077-48.304
			c-17.141-17.911-40.075-28.715-62.646-38.079c-8.825-3.661-17.403-7.85-26.042-11.926c-7.412-3.497-14.952-7.478-22.841-9.81
			c-6.118-1.81-12.395,1.483-17.349,4.789c-7.717,5.146-14.305,12.02-20.598,18.768c-6.419,6.883-12.476,14.092-18.69,21.157
			c-6.385,7.261-13.446,13.52-20.71,19.903c-22.615,19.874-46.689,37.524-71.047,55.171c-11.405,8.263-22.981,16.288-35.051,23.556
			c-12.081,7.273-24.875,12.918-37.511,19.111c-25.692,12.591-51.092,27.376-79.555,32.673c-1.127,0.21-1.773,1.366-1.835,2.411
			c-0.725,12.146-0.533,24.207,2.24,36.104c1.119,4.801,2.688,9.517,5.172,13.782c3.099,5.321,5.709,9.235,2.163,15.24
			c-4.857,8.225-16.58,6.722-24.369,5.083c-7.917-1.665-15.446-4.74-23.313-6.579c0.612,0.804,1.224,1.606,1.835,2.411
			c0.956-7.417,3.076-14.62,4.608-21.927c1.577-7.518,1.965-15.116,1.633-22.776c-0.299-6.913-1.314-13.79-2.277-20.635
			c-1.044-7.423-1.155-15.179-2.471-22.522c-0.294-1.644-0.772-3.125-1.669-4.537c-0.66-1.04,1.157-1.957,2.74-3.579
			c3.79-3.882,11.558-4.128,16.555-5.387c13.486-3.396,27.608-7.028,40.41-12.506c26.157-11.191,52.444-22.357,77.711-35.467
			c25.455-13.207,48.453-29.271,70.206-47.895c21.703-18.581,43.399-37.396,60.36-60.581c7.54-10.307,13.401-21.578,15.784-34.2
			c1.996-10.569,1.17-21.373,0.196-32.004c-1.11-12.107-2.828-24.819-1.163-36.946c1.374-10.007,6.762-18.811,13.22-26.354
			c13.657-15.95,31.892-27.215,46.096-42.646c7.801-8.478,13.156-18.438,18.13-28.758c6.008-12.464,10.911-25.462,14.991-38.675
			c4.16-13.472,7.229-27.285,9.186-41.246c1.542-11.009,2.812-22.41,1.032-33.464c-5.895-36.604-53.19-2.017-70.647,3.61
			c-10.022,3.229-20.604,4.462-30.691,7.517c-8.79,2.662-18.179,6.855-22.372,15.534c-4.784,9.903-3.391,22.173-1.983,32.672
			c1.555,11.603,3.562,22.968,4.354,34.669c0.965,14.244,1.142,28.736-1.427,42.828c-1.117,6.132-3.426,10.964-6.737,16.199
			c-2.69,4.254-6.659,9.364-7.087,14.583c-0.351,4.271-0.343,8.504,1.771,12.343c1.678,3.047,4.72,5.024,6.416,8.11
			c3.733,6.794,4.699,16.796,2.723,24.231c-3.36,12.646-16.82,17.771-28.754,17.483c-13.463-0.323-26.488-7.622-32.579-19.786
			c-3.929-7.845-4.422-18.257-1.947-26.559c2.251-7.55,11.088-8.217,17.341-10.719c20.963-8.39,26.123-30.812,27.107-51.163
			c0.913-18.891-1.069-37.125-3.664-55.801c-2.702-19.45-6.016-40.214-1.66-59.66c1.853-8.272,5.715-15.821,12.276-21.307
			c8.646-7.23,21.275-10.101,32.043-12.249c23.693-4.726,48.172-5.578,67.646-21.672c6.158-5.089,11.365-11.232,17.517-16.328
			c6.101-5.054,13.131-6.024,20.795-4.82c22.554,3.544,37.988,20.418,54.178,34.899c1.086,0.972,2.443,0.911,3.535,0
			c16.195-13.502,35.457-29.307,39.661-51.162c3.455-17.958-7.062-34.452-24.603-38.568c-16.141-3.788-33.287,0.07-49.07-5.766
			c-19.5-7.209-23.604-31.802-22.406-49.981c1.414-21.465,10.594-43.305,25.124-59.164c17.214-18.79,43.104-21.808,67.374-21.146
			c12.572,0.343,25.136,2.173,37.329,5.237c5.065,1.273,9.985,3.034,14.38,5.898c3.8,2.478,5.104,6.081,7.076,9.867
			c2.188,4.2,4.943,7.896,6.277,12.509c2.525,8.728,0.689,18.561-1.096,27.221c-4.117,19.969-11.202,44.894-28.568,57.636
			c-8.273,6.071-17.924,7.03-27.815,5.897c-6.801-0.779-12.794-0.959-10.838,7.853c1.156,5.212,4.541,9.881,7.499,14.197
			c3.853,5.622,7.011,10.957,8.543,17.671c2.932,12.853,1.583,28.32-4.231,40.216c-3.698,7.568-9.785,14.038-14.051,21.314
			c-2.992,5.104-6.392,11.794-1.398,16.695c4.099,4.02,10.912,3.709,16.134,3.005c8.374-1.129,16.489-3.763,24.527-6.28
			c8.354-2.614,16.705-5.396,25.321-7.033c8.018-1.523,13.628-0.822,19.719,4.875c8.34,7.8,13.938,18.673,18.839,28.828
			c4.518,9.36,8.565,19.171,11.224,29.234c2.343,8.877,4.071,18.312,10.333,25.407c5.063,5.739,13.376,7.505,20.586,5.72
			c15.627-3.869,27.58-20.426,36.504-32.631c10.504-14.365,19.402-29.875,27.857-45.507c5.348-9.883,9.816-20.047,14.075-30.44
			c5.061-12.349,11.479-23.371,18.323-34.746c4.806-7.985,10.607-17.852,9.088-27.543c-1.286-8.194-9.104-13.257-14.595-18.573
			c-19.919-19.289,12.868-47.359,33.694-38.167c17.635,7.783,26.821,34.928,22.655,52.726c-1.359,5.812-4.911,13.412-11.266,14.925
			c-1.843,0.439-3.954,0.146-5.841,0.34c-2.413,0.249-3.54,1.189-5.751,0.106c-3.388-1.658-6.892-0.006-9.017,2.764
			c-1.205,1.575-1.542,4.021-1.967,5.889c-0.795,3.495-2.936,6.312-4.702,9.388c-7.096,12.359-13.46,24.859-18.654,38.138
			c-5.253,13.425-9.762,27.129-15.922,40.186c-5.439,11.529-13.098,21.62-19.764,32.424c-6.355,10.302-12.433,20.776-19.522,30.603
			c-6.693,9.277-14.691,18.134-25.106,23.226c-10.859,5.309-24.729,2.923-34.714-3.121c-10.503-6.359-12.354-17.089-14.519-28.229
			c-2.008-10.335-4.439-19.346-11.843-27.095c-13.312-13.937-33.133-31.248-53.943-28.745
			c-22.416,2.695-30.747,30.829-35.009,49.257c-5.771,24.963-7.249,50.601-14.827,75.181c-9.063,29.396-22.348,57.294-36.853,84.35
			c-9.131,17.031-18.636,33.942-28.569,50.521c-8.46,14.119-23.626,23.237-31.04,38.074
			C463.32,641.399,467.632,643.933,469.074,641.048L469.074,641.048z"/>
	</g>
</g>
<g id="eyes">
	
		<ellipse id="eyewhite_1_" style="fill:#FFFFFF;stroke:#000000;stroke-miterlimit:10;" cx="541.71" cy="152.667" rx="41.178" ry="46.079"/>
	
		<ellipse id="eyewhite" style="fill:#FFFFFF;stroke:#000000;stroke-miterlimit:10;" cx="617.498" cy="136.741" rx="17.498" ry="30.153"/>
	<g id="pupil_1_">
		<g>
			<path d="M535.944,119.38c-1.493,22.934,6.133,45.707,12.788,67.331c0.944,3.072,5.771,1.761,4.82-1.329
				c-6.529-21.217-14.074-43.505-12.608-66.002C541.154,116.16,536.153,116.18,535.944,119.38L535.944,119.38z"/>
		</g>
	</g>
	<g id="pupil">
		<g>
			<path d="M616.985,120.045c4.112,12.829,4.675,25.716,3.086,39.018c-0.382,3.197,4.622,3.161,5,0
				c1.64-13.726,0.974-27.126-3.265-40.347C620.827,115.658,615.999,116.966,616.985,120.045L616.985,120.045z"/>
		</g>
	</g>
</g>
</svg>
