<?xml version="1.0" encoding="utf-8"?>
<!-- Generator: Adobe Illustrator 22.1.0, SVG Export Plug-In . SVG Version: 6.00 Build 0)  -->
<svg version="1.1" id="biking" xmlns="http://www.w3.org/2000/svg" xmlns:xlink="http://www.w3.org/1999/xlink" x="0px" y="0px"
	 viewBox="0 0 1031.1 1002.9" style="enable-background:new 0 0 1031.1 1002.9;" xml:space="preserve">
<style type="text/css">
	.color{fill:#FFB1EE;}
	.st0{fill:none;stroke:#4D4D4D;stroke-width:12;stroke-miterlimit:10;}
	.st1{fill:#EA3D3D;stroke:#800000;stroke-miterlimit:10;}
	.st2{fill:#723D3D;stroke:#6C0000;stroke-miterlimit:10;}
	.st3{fill:#FFFFFF;}
</style>

<defs>
	<script>
		(() => {
 		let iconEight = document.querySelector("#biking");

		function logThisIconEight() {
			console.log(this.id);
		}

		iconEight.addEventListener("click", logThisIconEight);

		document.querySelector("#biking").addEventListener("click", color);

		function color() {
  		document.getElementById("biking").classList.add("color");
		}
		
		})();
	</script>
</defs>

<g id="Bike">
	<g id="bike">
		<g id="backwheel">
			<circle id="wheel_1_" class="st0" cx="162.1" cy="684.7" r="156.1"/>
			<circle id="center_1_" class="st0" cx="162.1" cy="684.7" r="60.7"/>
		</g>
		<g id="frontwheel">
			<circle id="wheel" class="st0" cx="869" cy="840.8" r="156.1"/>
			<circle id="center" class="st0" cx="869" cy="837.8" r="48.2"/>
		</g>
		<path id="body" class="st1" d="M145.6,680.7l273.8-82.3L446,536l40.8,9.3l-20.4,59.2l299.3,25l17.1-90.8l-111.3-67.3l41.2-41.7
			l23,12.2l-17.6,30.7l50.3,23.6l63.3,23.2l46.9-2l30.6-21.2l63.3-30.1L944,429.7l30.8-12.6l27.6,59.3L895,535.9v143.3h-36.1l1.4-89
			l-23.4,8.7l22.4,257l-11.4,6.2l-27.1-239.2l-38.2,46.8l-59.2-11.5L427.7,624l-128.6,34.3l-44.8,16.6l253.1,47.7l63.1,1l65.3,4.1
			l-54.5,8.9l110.7,20.9l40.2-97.5l50.4,9.8l-69.8,120c-3.3-0.6-89.2-16.4-193.3-35.9c-10-1.9-20.1-3.8-30.3-5.7
			c-17-3.2-105.5,21.6-122.8,18.4c-14.2-2.7,71.2-28,57.1-30.7C291.9,710.9,141.9,682.1,145.6,680.7z"/>
		<path id="seat" class="st2" d="M563.8,579.9l-136.4-28.1c-6.5-1.3-10.7-7.7-9.3-14.2l6.3-30.5c1.3-6.5,7.7-10.7,14.2-9.3
			L574.9,526c6.5,1.3,10.7,7.7,9.3,14.2l-6.3,30.5C576.6,577.1,570.2,581.3,563.8,579.9z"/>
	</g>
</g>
<g id="figure">
	<g id="foot">
		<path d="M606.9,648c-3.6,13.2-4.2,23.8-12.4,35c-6.8,9.3-15.2,17.6-20.7,27.7c-0.7,1.3-1.4,2.7-1,4.1c0.6,2.3,3.5,3.2,5.9,3.7
			c34.9,7,71,14,106,7.5c2.7-0.5,5.6-1.1,7.7-2.8s3.5-4.6,2.3-7.1c-1.3-2.7-4.9-3.5-7.9-4c-17.8-2.8-35.6-5.5-53.5-8.3
			c-3.4-0.5-7.7-1.9-8-5.2c-0.1-1.3,0.5-2.5,1-3.7c7.3-15.1,14.6-30.2,22-45.3C634.5,649.1,620.7,648.6,606.9,648"/>
		<g>
			<path d="M605.4,647.6c-2.7,10.3-4.1,21.1-9.5,30.4c-5.8,9.9-14.5,17.8-20.8,27.4c-1.7,2.7-4.8,6.4-3.8,9.9
				c1.1,3.6,5.6,4.3,8.7,4.9c12.5,2.6,25.1,5,37.8,6.8c11.8,1.7,23.7,2.9,35.6,3c11.3,0.1,23.9-0.1,34.9-3.3
				c5.6-1.7,12.3-8.9,5.5-13.8c-3.8-2.8-9.9-2.7-14.3-3.4c-6.4-1-12.7-2-19.1-3c-7-1.1-14-2.2-21-3.3c-2.9-0.4-6.6-0.5-9.3-1.7
				c-5-2.3-1.7-7.5,0-11c6.5-13.4,13-26.7,19.4-40.1c0.5-1-0.1-2.2-1.3-2.3c-13.8-0.5-27.6-1.1-41.5-1.6c-1.9-0.1-1.9,2.9,0,3
				c13.8,0.5,27.6,1.1,41.5,1.6c-0.4-0.8-0.9-1.5-1.3-2.3c-5.1,10.5-10.1,20.9-15.2,31.4c-2.3,4.8-4.9,9.6-7,14.5
				c-1,2.4-1.5,4.6,0.2,6.8c1.7,2.2,4.8,3,7.3,3.5c5.5,1.1,11.2,1.8,16.8,2.6c11.5,1.8,22.9,3.6,34.4,5.3c1.6,0.2,5.6,0.3,6.9,1.4
				c0.4,1,0.8,2,1.3,2.9c2.1,2.3,1.7,4.1-1.4,5.3c-1.3,0.7-3,1.1-4.4,1.4c-5.9,1.4-12.2,2-18.2,2.4c-11.4,0.8-22.8,0.4-34.2-0.6
				c-12-1.1-23.8-3.1-35.7-5.3c-5.3-1-10.7-2-16-3.1c-1.1-0.2-2.3-0.4-3.4-0.7c-2.6-0.7-2.6-0.3-3-3.1c-0.5-3.5,1.8-6.1,3.8-8.8
				c6.5-9.3,15.2-17.3,20.5-27.4c4.7-9.1,6.1-19.3,8.7-29.1C608.8,646.6,605.9,645.8,605.4,647.6L605.4,647.6z"/>
		</g>
	</g>
	<g id="leg">
		<path d="M520.7,439.7c44.6-5.1,86.8,18.5,125.4,41.3c4.7,2.8,9.6,5.7,13,10c3.3,4.2,5,9.5,7,14.5c7.5,19,19.9,36.8,20.9,57.3
			c0.9,18.2-7.3,35.4-15.4,51.7c-1,2.1-2.2,4.3-4.2,5.4c-2.1,1.2-4.7,1-7.1,0.8c-11.9-1.1-23.7-2.1-35.6-3.2
			c12.1-8.7,17-24.3,19.1-39c2.6-18,2.1-36.4-1.3-54.2c-1.3-6.9-3.2-14-7.4-19.7c-5-6.9-12.9-11.2-20.8-14.6
			c-33.2-14.5-71.1-18.1-106.4-10.1"/>
		<g>
			<path d="M520.7,441.2c42.7-4.5,82.1,16.3,117.8,37.1c9.3,5.4,18.8,10.1,23.3,20.4c3.9,8.8,7.3,17.6,11.5,26.3
				c4.5,9.3,8.9,18.8,11.1,28.9c2.4,11.2,1,22.4-2.5,33.2c-1.9,6-4.4,11.8-7.1,17.5c-2.4,5.1-5,14.3-11.4,14.7
				c-6.1,0.4-12.7-1-18.8-1.6c-6.6-0.6-13.2-1.2-19.8-1.8c0.3,0.9,0.5,1.9,0.8,2.8c11.8-8.8,17-22.9,19.4-36.9
				c3.1-18.2,2.8-37-0.3-55.2c-1.4-7.9-3.2-16.2-8-22.8c-4.4-6.1-10.9-10.2-17.6-13.5c-15.8-7.6-33.1-12.4-50.4-14.6
				c-20.3-2.7-40.8-1.7-60.8,2.7c-1.9,0.4-1.1,3.3,0.8,2.9c32.3-7.2,66.3-4.9,97.4,6.7c7.1,2.7,14.4,5.6,20.7,10.1
				c7.3,5.2,11.3,12.4,13.4,20.9c4.2,16.5,5,34.1,3.5,51c-1.5,16.6-5.2,35.5-19.4,46.1c-1.2,0.9-0.8,2.7,0.8,2.8
				c6.6,0.6,13.2,1.2,19.8,1.8c6.1,0.5,12.6,1.8,18.8,1.6c9.4-0.4,12.4-12.5,15.6-19.6c4.5-9.9,8.3-20.2,9.4-31.1
				c1.1-11.1-1.2-21.9-5.2-32.3c-3.9-10-9.1-19.4-13.4-29.2c-4-9.1-6.3-18.7-14.5-25.1c-9-7.1-20-12.4-30-17.9
				c-10.2-5.7-20.6-11-31.4-15.6c-23.1-9.9-47.9-16.1-73.1-13.4C518.8,438.4,518.8,441.4,520.7,441.2L520.7,441.2z"/>
		</g>
	</g>
	<g id="mainBody">
		<path d="M699.3,161.8c11.1,21.7,88.5,40.8,112.5,45c22,3.9,36.9-17.5,57.2-27c28.5-13.3,17.8-84-32-88.8
			c-31.3-3-32.8-53.9-60.1-69.5C755.6,9.3,731.6,0.9,707.1,1.4c-24.5,0.4-49.5,10.4-64.7,29.6c-19,23.9-20.1,59.2-6.9,86.8
			c5.9,12.3,14.6,25.1,11,38.3c-3.5,12.8-17.3,19.7-30.3,22.5c-41,8.8-90.2-6.7-121.6,21.2c-17.9,15.9-4.1,29.2,6.6,50.6
			c19.5,39.4-40.5,116-53.8,135c-15.8,22.4-52,101.6-39,114.6c20.3,20.2,53.7,13.2,82.2,10.9c23.2-1.9,46.8,0.5,69.1,6.9
			c9.7,2.8,20.6,7.9,22.5,17.8c1.6,8.6-4.4,16.6-10.2,23.1c-29.3,32.5-64.3,59.7-103,80.1c-17.2,9.1-49.9,61.6-65.2,73.7
			c-26.1,20.5-35.1-0.1-36,33.1c-0.1,5.4,7.3,19.5,10.1,24.1c2.2,3.7,5.6,6.3,9,8.9c19.8,15.2,39.6,30.4,59.5,45.6
			c3.4,2.6,7.8,5.4,11.8,3.8c7.1-13.1,0.3-29.4-8.2-41.6c-8.5-12.3-19.1-24.5-19.9-39.4c-0.9-17.1,11.4-31.9,24-43.6
			c27.6-25.7,179.8-82.7,201.8-179.6c5.9-25.8-135.5-50.2-127.6-57.4c6.2-5.6,7.1-48.3,21-51.4c9.2-2,41,2.1,52.5,2.4
			c36,0.8,94.1,28.8,126.7,37.6c27,7.2,11.2-9.1,11.6-10.2c3.8-10.9,3.5-24.8-5.7-31.7c-4.9-3.7-11.4-4.5-17.5-5.2
			c-39.3-4.4-123.6-14.4-163.1-16.3c5.8-18.9,34-41.4,43.8-58.5c11.7-20.3,31.1-36,47.7-52.5c20,22.9,70,41.6,99.8,47.2
			c29.8,5.6,63.2,17.2,92.2,26.3c45,14.2,81.1,37,102.3,79.1c3.9,7.7,46.4,11.9,52.2,18.3c10.7,11.9,2,24.2,15,14.9
			c13-9.3,4.1-36.3-8.6-46c-5.7-4.4-13.2-5.9-18.9-10.1c-8.8-6.5-12.1-17.9-17.7-27.3c-19.6-33-64-37.9-101.6-45.4
			c-46.8-9.3-91.2-28-135.3-46.5c-20.1-8.4-41.9-18.4-51.3-38.1c-4.5-9.5-5.9-20.7-12.7-28.8c-3.8-4.5-9.3-8-10.8-13.7
			c-1.5-5.5,1.3-11.1,3.6-16.2c10.2-22.6,13.8-48.1,10.1-72.6c-2.9-19.1-8.8-42,5.3-55.2c8.1-7.5,21.6-8.4,30.6-2
			s12.6,19.4,8.2,29.5C700.7,109.9,698,144.2,699.3,161.8"/>
		<g>
			<path d="M698,162.5c3.7,7,11.2,11.6,17.8,15.3c10,5.5,20.7,9.7,31.5,13.5c20.3,7,41.3,12.8,62.5,16.7c12.7,2.3,23.4-2.4,33.7-9.5
				c5.9-4.1,11.5-8.6,17.5-12.4c4.3-2.8,9.3-4.6,13.3-7.8c13-10.4,13.4-30.7,9.7-45.5c-4.7-18.6-17.6-35.3-36.3-41.1
				c-5.1-1.6-10.6-1.6-15.7-3.1c-5.1-1.6-9.4-4.9-13-8.8c-7.4-8.2-11.9-18.8-16.9-28.5c-4.9-9.6-10.3-19.6-18.6-26.7
				C778.3,20,772.1,17,766,14.1c-7.8-3.7-15.8-6.9-24.1-9.3c-29.7-8.6-63.5-6.3-88.6,13.3c-23.4,18.2-31.8,48.6-26.7,77.1
				c1.3,7.3,3.6,14.5,6.6,21.2c3.7,8.2,8.7,15.8,11.2,24.5c5.5,19.1-9.1,31.1-26,35.5c-29.5,7.7-60.7,0.8-90.5,6.3
				c-13.5,2.5-27.1,8-36.7,18.1c-8.6,9-7.6,19.3-2.3,29.9c5.7,11.5,13.9,21.8,14.6,35.1c0.6,11.1-2.3,22.1-6.1,32.4
				c-8.2,22.6-21.2,43.3-34.7,63c-9.3,13.5-19.2,26.2-27,40.6c-10.9,20.3-20.5,41.7-27,63.8c-2.4,8.1-4.9,16.9-4.6,25.5
				c0.3,8.6,5.7,13.2,13,17.2c12.2,6.7,26.8,7.5,40.4,6.8c16.4-0.8,32.6-3.5,49.1-3.5c18.7,0,38.1,2.4,55.9,8.4
				c7.2,2.4,15.8,6.6,18,14.5c2.8,9.9-5.7,18.8-11.9,25.5c-23.9,26-51.4,48.5-81.6,66.7c-10.4,6.3-21.3,10.9-29.9,19.7
				c-8.5,8.6-15.9,18.4-23.3,27.9c-13,16.8-26.2,39.4-47.8,45.9c-5.3,1.6-12.7,1.4-16.2,6.3c-2.1,2.9-2.6,6.8-3,10.3
				c-0.7,6-0.7,11,1.5,16.6c2.1,5.3,4.7,10.6,7.5,15.5c3.6,6.2,9.4,10.1,15,14.4c15.9,12.2,31.8,24.4,47.7,36.6
				c4.5,3.4,12.7,12.2,19.3,9.5c4.9-2,5.1-12.1,4.7-16.6c-1.3-15.9-12.1-28.1-20.6-40.7c-4.8-7.2-9.3-15-10.2-23.8
				c-0.9-9.1,2.2-17.8,7.1-25.3c5.8-9.1,13.8-17.5,22.7-23.7c13.2-9.3,27.7-16.8,41.7-24.7c19.4-11,38.7-22.3,57.2-34.8
				c37.4-25.3,75.9-57.1,92.5-100.6c2.2-5.9,6.7-14.7,4-21c-2-4.6-6.6-7.8-10.6-10.3c-14.5-9.1-31.7-14.3-47.9-19.4
				c-17.2-5.4-34.6-10-51.8-15.3c-5-1.5-10.6-2.9-15.2-5.5c-1.2-0.7-1.7-1.7-2-0.4c0.1-0.6,1.3-1.6,1.6-2.2c0.8-1.4,1.3-3,1.8-4.6
				c2.9-9.6,4.1-19.6,7-29.2c1.3-4.3,2.9-9.3,6.1-12.6c3.1-3.2,7.5-3,11.7-3c12.1,0,24.2,1.5,36.3,2.5c12.2,0.9,23.8,1.8,35.8,4.8
				c28.4,7.1,55.4,18.9,83.1,28.3c5.9,2,11.9,4,18,5.5c3.7,0.9,9.1,2.4,12.7,0.6c4.9-2.4,1.5-8.1-0.5-11.3c-0.3-0.4-1.2-1.4-1.2-1.9
				c0-0.7,1.3-3.5,1.5-4.4c0.3-1.5,0.5-3,0.7-4.5c0.6-5.9-0.1-12.2-3-17.5c-6.4-11.4-20.7-11.4-32.2-12.7
				c-26.8-3.1-53.5-6.1-80.3-8.9c-24.7-2.6-49.5-5.2-74.4-6.4c0.5,0.6,1,1.3,1.4,1.9c3.5-10.6,11.3-19.4,18.6-27.6
				c7.2-8.2,14.9-16,21.3-24.8c3.3-4.5,5.9-9.5,9.1-14c4.1-5.7,8.7-11,13.6-16.1c9.2-9.6,19.1-18.5,28.6-27.8c-0.7,0-1.4,0-2.1,0
				c11.8,13.3,28.5,22.2,44.5,29.4c16.5,7.4,33.8,13.5,51.6,17.3c23.2,5,45.9,11,68.5,18.2c20.9,6.6,42.2,12.6,62,22.3
				c17,8.4,32.8,19.3,45.7,33.3c6.9,7.5,12.9,15.7,17.9,24.5c3.2,5.6,4.4,9.4,10.4,11.9c12.5,5.3,26.4,6.5,39.3,10.8
				c2.2,0.7,4.5,1.5,6.3,3c3.7,3.1,5.2,8.4,6.1,12.9c1.1,5,2.8,7.5,7.9,4.6c14.1-8,11.2-25.9,4.6-38.2c-4-7.5-9.6-12.9-17.3-16.5
				c-5.3-2.5-10.6-4.5-14.8-8.7c-3.7-3.8-6.2-8.7-8.6-13.4c-4.2-8.5-8.5-16.5-15.3-23.2c-6.2-6.2-13.6-11.1-21.5-14.9
				c-16.7-8.1-35.1-11.8-53.2-15.3c-22.7-4.3-45.1-9.3-67.1-16.5c-24.5-8-48.5-17.6-72.3-27.6c-19.2-8-41-15.3-55.6-30.7
				c-7.9-8.3-10.7-18.1-14.5-28.6c-1.5-4.2-3.3-8.2-6-11.8c-3.4-4.4-8.9-7.7-10.9-13.1c-2.5-6.7,1.9-13.5,4.4-19.5
				c2.3-5.6,4.3-11.3,5.9-17.1c2.9-11,4.4-22.3,4.5-33.7c0-10.6-1.7-20.9-3.3-31.3c-1.6-9.9-3.2-20.6-0.3-30.4
				c3.2-11,12.9-18.4,24.5-17.6c12,0.8,20.8,11,20.8,22.9c0,4.6-1.7,8.2-3.2,12.4c-1.4,4.1-2.5,8.3-3.4,12.5
				c-1.9,9-2.9,18.1-3.6,27.3c-0.6,8.4-0.8,16.8-0.3,25.2c0.1,1.9,3.1,1.9,3,0c-1.3-18.3,0.3-37.7,4.6-55.5
				c1.8-7.7,6.2-15.1,5.7-23.2c-0.5-8.3-4.8-16.4-11.9-20.9c-14.6-9.1-33.5-0.9-38.8,14.9c-6.4,19.1,2.6,40.9,3.1,60.3
				c0.3,12.3-1.2,24.5-4.3,36.4c-1.6,6.1-3.7,12.2-6.2,18c-2.1,4.9-4.9,9.9-5,15.3c0,9.9,10.5,15,14.9,22.9
				c5.1,9.3,6.4,20.2,12.4,29.2c10.6,16,28.9,24.6,46,31.9c23,9.8,46.1,19.4,69.6,28c23.5,8.5,47.5,15.7,72.1,20.5
				c18.8,3.7,38,6.6,56.1,13.2c18.9,6.8,34.8,18,44.1,36.1c4.1,8.1,7.7,17,15.3,22.6c4.5,3.3,9.9,4.9,14.7,7.5
				c4.6,2.5,8.1,5.9,11,10.2c4.9,7.3,8.6,17.2,7.2,26.1c-0.7,4.6-2.9,8-6.7,10.6c-1.5,1-3.1,2.6-4.6,1.1c-0.8-0.8-0.8-3.8-1.1-4.9
				c-1.5-6-4.5-11.9-10.3-14.5c-5.8-2.6-12.3-3.9-18.4-5.3c-6.9-1.6-13.9-3.1-20.7-5.4c-2.4-0.8-5.2-1.6-7.3-3.2
				c-2.9-2.3-4.3-6.9-6.1-10.1c-9.3-15.9-21.8-29.7-36.4-40.8c-15.3-11.6-32.7-20.1-50.7-26.6c-22.5-8.2-45.7-15.2-68.7-21.7
				c-19.6-5.6-39.8-8.6-59.2-14.6c-19.1-5.9-38-13.7-55-24.4c-7.2-4.6-14.1-9.8-19.8-16.2c-0.5-0.6-1.6-0.5-2.1,0
				c-9.8,9.8-20.2,19-29.7,29.1c-4.4,4.7-8.6,9.6-12.4,14.9c-3.4,4.7-6.1,10-9.6,14.7c-7.2,9.7-15.9,18.3-23.7,27.5
				c-6.5,7.7-13.2,15.9-16.4,25.6c-0.3,1,0.5,1.9,1.4,1.9c51,2.5,101.9,9.3,152.6,15.1c13.6,1.6,31.1,1.5,34.1,18.4
				c0.7,3.7,0.5,7.6-0.1,11.3c-0.4,2.1-2.1,5.3-1.7,7.4c0.2,1.5,1.9,3.1,2.6,4.4c1.1,1.9,2.7,4.5,0,5.5c-4.9,1.8-12.9-1.7-17.6-3.1
				c-12.3-3.7-24.4-8.3-36.4-12.8c-25.6-9.5-52.3-20.5-79.7-23c-10.9-1-21.9-1.5-32.9-2.4c-5.7-0.4-11.5-0.9-17.3-0.9
				c-3.4,0-7.5-0.2-10.6,1.4c-6.8,3.4-9.2,13.2-11,19.9c-2.4,9-3.4,18.7-6.6,27.5c-1,2.8-4.2,5-1.4,7.6c2.7,2.5,7.4,3.6,10.8,4.7
				c32.5,11,67,17,98,32.2c5.3,2.6,11.2,5.6,15.2,10.1c4.7,5.3,1.9,11-0.1,17.1c-7.1,21.6-20.5,40.6-36,57
				c-31.3,33.1-70.9,57.2-110.2,79.5c-14.3,8.1-28.9,15.8-42.7,24.9c-16.7,11.1-35,30-34.3,51.3c0.5,15.3,10.8,27.6,19.2,39.6
				c4.8,6.8,9,14.1,10.9,22.2c1,4.3,1.3,8.7,0.5,13c-0.6,2.9-1.4,6-5.1,5.7c-2.3-0.2-5-2.5-6.9-3.9c-15.6-11.5-30.8-23.6-46.2-35.4
				c-7.3-5.6-17-11-21.9-18.9c-3.1-4.9-5.7-10.4-7.8-15.8c-2.3-5.9-2.1-11.7-1.1-17.9c0.5-3.2,1.3-6.6,4.3-8.3
				c2.5-1.4,5.8-1.6,8.5-2.2c4.4-1,8.6-2.5,12.6-4.6c8.6-4.6,15.1-11.3,21.3-18.7c7.7-9.3,14.9-18.9,22.3-28.4
				c7-8.9,14-18.1,22.2-25.9c3.3-3.1,6.7-5.6,10.7-7.8c7.6-4.1,15.1-8.4,22.4-13c28.1-17.7,53.9-39.1,76.4-63.6
				c8.4-9.1,18.9-22.3,9.5-34.4c-8.4-10.9-26-13.5-38.5-15.8c-17.4-3.2-35-4-52.6-2.5c-14.7,1.2-29.4,3.5-44.2,2.8
				c-7.5-0.4-15.1-1.5-22.1-4.5c-4.9-2.1-11.8-5.5-14.4-10.4c-3.3-6-0.7-15.5,0.7-21.6c5-21.8,14.4-42.9,24.3-62.9
				c7.3-14.7,16-27.7,25.4-41c12.9-18.1,25.3-36.9,34.8-57.1c8.2-17.4,16.7-39,11.3-58.5c-3.4-12.5-13.3-22.3-16.7-34.8
				c-4.3-15.8,12.8-26.7,25.5-31.6c27.6-10.7,58.8-4.9,87.6-7.6c12.8-1.2,26.4-3.6,36.7-11.8c11.6-9.2,12.5-22.8,7.2-35.9
				c-3-7.4-7.2-14.2-10.3-21.5c-2.9-6.9-4.9-14.2-6-21.6c-2.3-15.6-0.5-32.1,6.3-46.4c14.2-29.8,47.8-43.8,79.6-42
				c18.1,1,35.8,6.7,51.9,14.8c6,3,12,6,16.8,10.8c3.9,3.8,7.1,8.4,9.9,13.1c9.7,16.1,16.1,40.8,35,48.8c4.6,1.9,9.4,1.9,14.1,3
				c5.3,1.2,10.4,3.2,15,6.1c8.5,5.4,15.1,13.5,19.3,22.6c7,14.8,9.9,37.2-1.6,50.7c-2.8,3.3-6.1,4.9-9.9,6.9
				c-6.4,3.3-12.1,7.7-17.9,11.9c-11.2,8.2-22.6,15.9-37.1,13.4c-20.3-3.6-40.6-9.2-60.1-15.8c-10.5-3.6-21-7.6-30.9-12.7
				c-7-3.7-15.2-8.2-19-15.4C699.6,159.3,697.1,160.8,698,162.5L698,162.5z"/>
		</g>
	</g>
	<g id="eyeballs">
		<ellipse id="eye_1_" class="st3" cx="750.3" cy="149.8" rx="28.5" ry="37.5"/>
		<circle id="eye" class="st3" cx="829.7" cy="134.2" r="37.5"/>
		<g id="pupil">
			<g>
				<path d="M749.3,115.5c3.4,11.9,7.3,23.7,10.1,35.8c2.5,10.7,3.6,23.1-4,32.1c-1.2,1.5,0.9,3.6,2.1,2.1c7-8.2,7.6-18.8,6-29.1
					c-2.2-14.1-7.3-28-11.2-41.7C751.7,112.8,748.8,113.6,749.3,115.5L749.3,115.5z"/>
			</g>
		</g>
		<g id="pupil_1_">
			<g>
				<path d="M827.3,97.9c12.4,21.2,14.1,47.1,4.6,69.8c-0.7,1.8,2.2,2.6,2.9,0.8c9.8-23.3,7.9-50.3-4.9-72.1
					C828.9,94.7,826.3,96.2,827.3,97.9L827.3,97.9z"/>
			</g>
		</g>
	</g>
</g>
</svg>
