<?xml version="1.0" encoding="utf-8"?>
<!-- Generator: Adobe Illustrator 22.1.0, SVG Export Plug-In . SVG Version: 6.00 Build 0)  -->
<svg version="1.1" id="handsUp" xmlns="http://www.w3.org/2000/svg" xmlns:xlink="http://www.w3.org/1999/xlink" x="0px" y="0px"
	 viewBox="0 0 1296 1728" style="enable-background:new 0 0 1296 1728;" xml:space="preserve">
<style type="text/css">
	.st0{fill:#050505;}
	.st1{fill:#FFFFFF;stroke:#000000;stroke-miterlimit:10;}
	.opacity{opacity: 0.7}
</style>

<defs>
	<script>
		(() => {
 		let iconNine = document.querySelector("#handsUp");

		function logThisIconNine() {
			console.log(this.id);
		}

		iconNine.addEventListener("click", logThisIconNine);

		document.querySelector("#handsUp").addEventListener("click", opacity);

		function opacity() {
  		document.getElementById("handsUp").classList.add("opacity");
		}
		
		})();
	</script>
</defs>
<g id="body">
	<path class="st0" d="M733,242.1c1.8-82.4-81.4-155.7-162.9-143.6S430.3,204.9,456,283.2c5.7,17.3,14.9,33.7,27.9,46.4
		c43.9,42.8,115,33.7,175.1,21.6c2.4,65.9-8.8,132.2-32.7,193.7c-25.6-13.9-55.8-28.2-82.8-16.9c-32.8,13.7-40.5,55.8-43.9,91.3
		c-18.6,198.5-45,396.3-79,592.8c-26.5-31.3-32.7-74.9-33.7-115.9c-3.2-132.5,36.5-264.4,22.8-396.3
		c-5.7-54.9-20.6-109.2-18.8-164.3c3.3-96,57.1-187.4,46.9-282.9c-4-37.8-26.6-80.8-64.7-81.9c41.9,52.3,50.6,128.9,21.5,189.3
		c-3.8,7.8-11.2,16.7-19.5,12.1c-2.6-1.4-4.5-3.7-5.6-6.4c-8.6-20.5-16-41.4-23.3-62.4c-21.6-61.7-43.4-129.3-21.5-191
		c12.4-34.9,37.8-64.2,49.5-99.4c-11.7-7.9-27.2-9.8-40.4-4.8c-37,87.4-46.9,186.1-28,279.1c-9.6,6.9-22.1-3.3-28.9-12.9
		c-54.4-76.8-68-180.7-35.1-268.9c-8.3-9.6-25.2-5.7-33,4.3c-7.8,10-8.9,23.5-9.8,36.2c-3.4,49.6-6.7,99.8,3.2,148.5
		c9.9,48.7,34.7,96.4,76.6,123.1c-12.6,11.8-32.8-0.4-44.4-13.3c-55.6-62-83.6-147.9-75.1-230.8c-20.8,3.5-34.5,25.2-36.1,46.3
		s6.2,41.5,13.8,61.2c11.1,28.7,22.2,57.5,33.3,86.2c12.2,31.6,29.4,67.7,62.6,74.4c13.2,2.7,27.6,0.1,39.9,5.8
		c9.5,4.3,16.2,12.9,22.2,21.4c70,98.7,87,225.9,82.8,346.8c-4.1,120.9-27.1,240.8-27.9,361.8c-0.2,34.3,1.5,69.6,15,101.2
		c13.5,31.6,40.9,59.2,74.8,64.2c5.7,1.3,10.9-6.4,7.6-11.2c24.3,163.3,20.2,329.2,23.3,493.8c18.3-5.5,38.8-3.4,55.6,5.7
		c3.8-138.8,7.6-277.6,11.4-416.4c0.4-13.3,1.2-27.8,9.9-37.9c14-16.2,42-11.6,56.9,3.8c14.8,15.4,19.8,37.6,23.7,58.6
		c24.6,134.2,28.3,272.1,10.9,407.4l59.1-11.5c6.8-125.1,13.5-251.7-9.4-374.9c-8.6-46.2-21.3-91.7-27.9-138.3
		c-23.4-166.3,94.7-506.2,98.4-513.7c24.1,7.5,42.5,195.5,41,292.5c-1.3,82.5-10.4,169.4,5.2,248.8c9.5,48.7,73.4,61,100.2,19.3
		c41.4-64.3,64.8-141.3,75.7-217.7c15.7-109.8,9.1-221.4,14.3-332.2c2-44,6.1-88.7,21.9-129.8c16-41.7,43.3-77.8,65.6-116.5
		c37.2-64.1,61.1-135.9,69.9-209.5c4.8-40.4-16.9-183.9-55.4-197c20.5,66,20.3,233.9-24.4,286.6c-10.1-39.2,7.3-79.6,12.8-119.7
		s-8.3-212.6-48.5-217.9c20.5,67.1,36.3,269.7-10.6,321.9c-2.6-59.4-5.2-118.8-7.9-178.2c-0.7-16.4-13.3-114.8-29.6-112.2
		c-20,46.2,6.8,134.2,4.5,184.5c1.3,44.4,24.7,229.7,0,246c-91.6-25.5-56.7-247.3-66.4-229.8c-23.4,42.4-21.2,82.5-25.1,130.8
		c-3.9,48.3-7.9,106.9,35.7,128c13,6.3,28.4,10.1,36.8,21.9c8.7,12.3,6.8,28.9,4.7,43.9c-29.6,216-2.4,445.4-93,643.7
		c-5.8,12.7-14.2,26.7-28,28.4c-23.2,2.8-32.8-28.8-32.9-52.1c-1.3-182,37-368.9-16-543.1c-9.8-32.2-26.1-66.9-58-77.7
		c-17.9-6-37.4-3.1-56.2-4.7s-39.7-10.2-45.1-28.3c-2.6-8.8-1-18.2,0.7-27.2c9.4-51.6,12.4-111,29.1-160.6
		c6.9-20.4,23-28.3,34.6-47.1C726.7,285,732.5,263.4,733,242.1z"/>
	<g>
		<path d="M734.5,242.1c1.1-96.8-108.2-176.3-198.6-134.9c-40.9,18.7-71.5,57.8-82.8,101.1c-12.1,46.4-0.1,101,39.6,130.9
			c47,35.4,113.4,24.2,166.8,13.5c-0.6-0.5-1.3-1-1.9-1.4c2.1,66-9,131.7-32.6,193.3c0.7-0.3,1.5-0.6,2.2-0.9
			c-20.2-10.9-42.8-22.6-66.4-21.1c-17.8,1.2-33,10.7-42.8,25.3c-10.3,15.4-14.7,34.3-17.4,52.5c-3.6,24.4-5.1,49.1-7.6,73.6
			c-11.7,115.6-26,230.9-42.9,345.8c-9.4,64.1-19.7,128-30.7,191.8c0.8-0.2,1.7-0.4,2.5-0.7c-23-27.9-30.5-64.1-32.6-99.4
			c-2.3-38.2,0-76.7,3.5-114.8c7.1-77,20.7-153.6,21.5-231.1c0.4-38.4-3.4-76.1-9.5-114c-6.4-39.5-13.7-79.2-11.9-119.3
			c3.2-72.8,34.3-140.5,44.7-212.2c4.9-33.6,6.4-70.2-6.6-102.2c-10-24.8-29.2-47.4-57.5-48.8c-1.4-0.1-1.8,1.6-1.1,2.6
			c22.2,28.1,35.1,62.7,37.6,98.4c1.2,17.4,0.1,35-3.7,52.1c-1.7,7.7-3.9,15.3-6.6,22.7c-2.9,7.8-9.5,29.4-21.6,26.6
			c-8.9-2.1-13.8-23.5-16.7-31.1c-3.9-10.4-7.6-20.9-11.3-31.3c-6.8-19.2-13.5-38.5-19.1-58.1c-11.4-39.7-18.9-82.4-9-123.3
			c10.1-41.7,40.2-74.2,53.9-114.4c0.2-0.6-0.2-1.4-0.7-1.7c-7-4.4-14.7-7.2-23-7.7c-5.1-0.3-15.7-0.6-19.4,3.4
			c-2.2,2.4-3.7,9-4.9,11.9c-1.9,4.9-3.7,9.7-5.5,14.7c-4,11.3-7.6,22.8-10.7,34.3c-11.6,42.9-17.2,87.5-16.5,131.9
			c0.3,21,2,42,5.1,62.7c0.8,5.7,1.8,11.3,2.8,17c0.7,3.6,2.7,6.7-3.5,8c-3.5,0.7-7.7-1.8-10.4-3.7c-9.5-6.3-15.5-17.4-21.3-26.9
			c-21.4-35.2-34.8-75.1-39.8-116c-5.6-45.7-0.4-92.3,15.4-135.6c0.2-0.5,0-1.1-0.4-1.5c-14-14.1-34.4-1.3-40.5,14
			c-4.5,11.3-4.6,23.9-5.4,35.9c-1,15.5-2,30.9-2.5,46.4c-1.7,54.6,2.9,111.2,30,159.7c13.1,23.4,31,43.8,53.5,58.4
			c-0.1-0.8-0.2-1.6-0.3-2.4c-22.4,18.4-50.4-21.9-61.3-37c-14.4-20-26.3-41.8-35.4-64.7c-17.8-44.8-24.8-93.3-20.1-141.3
			c0.1-1-1-1.6-1.9-1.4c-16.9,3.5-28.8,17-34.2,32.9c-6.9,20.2-1.6,42.1,5.2,61.5c8.5,24.4,18.5,48.3,27.8,72.4
			c7.5,19.5,14.3,39.5,24,58.1c7.6,14.7,17.5,29.1,31.6,38.2c6.7,4.3,14.2,7.2,22.1,8.4c11.4,1.8,23.4,0.2,34.4,4.2
			c12.4,4.5,20.2,16.1,27.3,26.5c6.7,9.8,13,20,18.8,30.4c11.2,20.2,20.7,41.5,28.4,63.3c67.1,188.7,11,389.1,4.8,582.3
			c-1.6,49.8-3.3,106.4,25.8,149.6c11.2,16.6,26.5,30.9,45.1,38.8c6.3,2.7,17.5,7.9,24.3,5.1c5.2-2.2,6.7-8.2,4.5-12.9
			c-0.8-1.7-3-0.4-2.7,1.2c18.8,127.2,20.6,256,21.9,384.3c0.4,36.4,0.7,72.8,1.4,109.1c0,1,0.9,1.7,1.9,1.4
			c18.4-5.1,37.4-3.2,54.4,5.6c1,0.5,2.2-0.1,2.3-1.3c3.6-133,7.3-266.1,10.9-399.1c0.4-14.9-1-31.8,4.9-45.7
			c6.2-14.7,21.1-20.4,36.2-17.3c30,6,40.3,37.3,45.5,63.7c12.7,64,19.4,129.4,21.9,194.5c2.8,73.2-0.5,146.6-9.7,219.3
			c-0.1,1,1.1,1.6,1.9,1.4c19.7-3.8,39.4-7.7,59.1-11.5c0.7-0.1,1.1-0.8,1.1-1.4c7.4-136.1,13.2-272.5-15.8-406.6
			c-11.2-52-24.7-103.7-24.5-157.3c0.2-42.1,5.3-84.2,12.2-125.8c13.8-82.9,34.9-164.6,59.1-245c7.6-25.1,15.4-50,23.9-74.8
			c1.7-5,3-11.3,5.7-15.9c0.9-1.5-0.5,0.2-0.8,0c1.6,0.8,2.7,2.2,3.8,3.5c3,3.9,4.8,8.9,6.4,13.5c12.5,35,16.2,74.1,20.2,110.8
			c5,45.3,8.2,90.9,8.9,136.4c1,60-4.6,119.9-3.7,180c0.5,31.1,2.5,62.3,8.3,92.8c3.5,18.4,13.4,34.2,30.5,42.7
			c14.8,7.3,32.5,8.1,47.7,1.7c21.3-9,31.9-31,42.2-50.3c29-54.1,46.7-113.9,56.7-174.3c10.9-66,12.9-133.1,13.8-199.9
			c0.9-67.3-1.1-135.6,7.2-202.6c4.2-33.7,12.4-66.5,27.4-97c14-28.5,32-54.6,48.5-81.7c32-52.6,55.4-110,68.5-170.1
			c4.8-21.7,9.5-44.4,9.5-66.7c-0.1-16.9-1.9-33.9-4.2-50.6c-5.1-36.8-12.4-76.7-30.4-109.7c-5.2-9.5-12-19.7-22.6-23.5
			c-1.1-0.4-2.2,0.8-1.8,1.8c10.7,35,12.8,73,13.1,109.3c0.3,41.6-2.5,84.2-13.4,124.5c-4.9,18.1-11.5,36.7-23.7,51.4
			c0.8,0.2,1.7,0.4,2.5,0.7c-9.7-40.8,8.1-80,13-120.1c2-16.7,1.1-34,0.2-50.7c-2.4-44.8-7-92.9-23.2-135.1
			c-4.6-12-12.1-30.4-26.7-32.7c-1.1-0.2-2.2,0.7-1.8,1.8c11.9,39.4,15.7,81.7,18.3,122.5c3,47.3,3.5,96.2-5.9,142.9
			c-3.9,19.1-9.4,40-22.5,55.1c0.9,0.4,1.7,0.7,2.6,1.1c-2.7-60.3-3.6-120.9-8-181c-2.1-29.3-6.8-59.9-15.5-88
			c-1.9-6.2-6.2-23.7-15.4-22.8c-0.7,0.1-1.2,0.4-1.4,1.1c-8.1,19.4-8.2,41.4-7,62.1c1.4,24.9,5.3,49.6,8.4,74.4
			c3.9,32.2,3.9,64.8,6.6,97.1c3.1,37.7,6.4,75.4,7.5,113.2c0.5,16.7,0.7,33.5-0.7,50.2c-0.5,6.5-1.3,13-2.9,19.3
			c-0.8,3.2-2,9.7-5,11.8c-3.8,2.6-12.2-3.1-15.9-5.5c-5.9-3.7-11-8.5-15.4-13.8c-9.6-11.6-15.8-25.8-20.3-40.1
			c-9.6-30.6-12.2-63.3-12.9-95.2c-0.5-22.5,1.3-45,0.6-67.5c-0.1-2.1,0.4-8.2-3.2-7.3c-0.7,0.2-0.8,0.8-1.2,1.2
			c-3.8,2.9-6.1,12.1-8,16.5c-5.1,12.2-8.5,24.9-10.8,37.9c-4.7,26.7-4.9,54-7,81c-1.8,22.5-3.4,45.4-0.2,67.8
			c2.8,19.1,9.8,38.4,25.4,50.8c9.1,7.3,20.1,10.6,30.5,15.6c15.1,7.3,23.4,18.8,23.5,35.9c0.1,14.4-3,28.9-4.7,43.1
			c-1.8,14.8-3.3,29.6-4.6,44.4c-2.7,30.3-4.7,60.7-6.4,91.1c-3.4,60.8-5.7,121.7-10.6,182.4c-4.9,60.1-12.4,120.3-26.5,179
			c-7,29-15.5,57.6-26.1,85.5c-5.5,14.6-11.2,29.5-18.4,43.3c-6.2,12-17.5,26.4-32.9,21.2c-11.7-3.9-17.1-17.7-19.8-28.6
			c-3.2-12.8-2.7-26-2.6-39.1c0.2-32.1,1.5-64.2,3.2-96.3c3.3-64.2,8.2-128.4,8.9-192.8c0.7-61.9-2.5-124.1-15-184.8
			c-5.6-27.1-12.1-55-23.7-80.3c-9.1-19.9-22.9-39.4-43.6-48.3c-26.8-11.4-57.3-0.2-83.9-12.2c-14.5-6.5-23.1-18.4-22.2-34.7
			c0.9-15.7,5-31.6,7.2-47.1c4.2-29.9,7.6-59.9,13.8-89.4c3-14.3,6.1-29.8,12.4-43.2c5.5-11.6,15.6-20,23.7-29.6
			C725.7,295,733.6,268.4,734.5,242.1c0.1-1.9-2.9-1.9-3,0c-0.7,19.2-5.1,38.1-14.2,55.1c-7.2,13.3-18.2,22.8-27.5,34.4
			c-8.9,11.2-12.6,24.5-16.2,38.1c-4.2,16.2-7.3,32.6-9.9,49.1c-5.2,33-10,66.2-14.7,99.3c-1.7,11.9-0.6,23.6,7.6,32.9
			c7.8,8.8,19.5,13.5,30.8,15.7c15.4,3,31.1,0.9,46.6,2.4c17.6,1.6,32.7,8.5,44.8,21.4c21,22.5,29.6,54.6,37,83.6
			c17.7,69.8,22,142.2,21,213.9c-1,72-7,143.8-10.1,215.7c-0.8,18.5-1.4,37-1.7,55.5c-0.2,15.1-1.3,30.7,0.8,45.6
			c2.5,17,11.1,42.1,32.4,40.6c11-0.8,19-9.1,24.5-18c7.8-12.7,13.1-27.3,18.6-41.1c12.4-31.5,22.3-64,30-96.9
			c15.3-64.6,22.6-130.7,27.4-196.8c4.9-68,7-136.2,11.7-204.2c2.3-33.9,5.2-67.7,9.4-101.4c3.3-26.7,10.5-57-17.9-72.2
			c-12.3-6.6-26-9.9-36.5-19.6c-9.4-8.7-15.2-20.3-18.5-32.6c-6.9-25.5-4.8-52.8-2.8-78.8c2.5-31.9,2.2-64.7,9.9-96
			c1.8-7.3,4-14.4,6.8-21.4c2.4-6.1,7.4-12.7,9-18.9c-0.3,1-1.4-1.3-1.4,0.9c0,1.4,0.2,2.9,0.2,4.3c1.2,60.5-6.6,124.9,19.5,181.8
			c6,13.1,14.4,25.5,26.1,34.2c4.9,3.6,12.4,8.8,18.6,9.4c3.8,0.4,5.4-2.2,7.2-5.5c5.7-10.8,6.1-25,6.7-36.9
			c1.1-19.7,0.5-39.5-0.4-59.2c-1.8-40.7-5.7-81.2-8.9-121.8c-1.3-16.2-0.9-32.4-2.1-48.6c-2.1-27.3-7-54.3-9.6-81.6
			c-1.3-13.7-2.2-27.6-1.5-41.4c0.3-6.4,0.9-12.8,2.1-19.2c0.5-2.5,2.1-14.5,4.3-15.7c7.1-3.6,15.8,35.1,16.8,39.4
			c10.3,46.2,11.6,92.4,13.7,139.5c1.6,36.6,3.2,73.1,4.8,109.7c0.1,1.2,1.7,2.1,2.6,1.1c10.9-12.4,16.6-28.7,20.6-44.4
			c5.6-21.8,8-44.4,9.3-66.9c2.9-49.7,0.2-100.1-6.5-149.4c-2.9-21-6.3-42.3-12.4-62.6c-0.6,0.6-1.2,1.2-1.8,1.8
			c14.1,2.3,21.2,21.2,25.4,32.8c7.4,20.3,11.7,41.8,15,63.1c3.7,23.2,6,46.6,7.3,70c0.9,16.2,1.7,32.9-0.2,49
			c-4.7,40.8-22.9,80.2-13,121.8c0.2,1,1.8,1.5,2.5,0.7c22.2-26.8,29-65.7,33.4-99.2c5.7-43.8,6.2-88.6,1.7-132.5
			c-1.9-19-4.7-38.1-10.3-56.4c-0.6,0.6-1.2,1.2-1.8,1.8c16.6,6.1,25,29,30.5,44c8.5,23,13.9,47.2,18,71.3
			c3.7,21.8,6.5,44.1,6.5,66.3c0,30.8-7.9,62.7-16,92.2c-10.3,37.6-24.5,74.1-42.5,108.7c-17.7,34.1-40.3,65.3-58.9,98.9
			c-18.8,33.9-30.3,69.8-35.6,108.2c-5.4,39.5-6.2,79.6-7,119.3c-3,158.7,5.2,327.6-75.5,470.7c-7.9,14.1-15.8,29.4-30.2,37.9
			c-10.6,6.3-23.3,8.5-35.5,6.6c-12.3-1.9-23.8-8.1-32-17.4c-10.3-11.6-12.7-26.1-15.1-41c-12.3-78.9-3-159-2.3-238.3
			c0.4-54.5-3.4-109.2-9.6-163.3c-2.8-24.4-6.1-48.9-11.1-73c-3.1-14.9-6-32-14.1-45.2c-1.8-2.9-4-5.9-7.4-7.1
			c-0.6-0.2-1.4,0.1-1.7,0.7c-4.1,8.5-6.6,18.2-9.6,27.2c-7.4,22.1-14.4,44.4-21.1,66.7c-19.9,66.2-37.5,133.2-50.9,201
			c-13,65.9-24.3,134.8-18.9,202.2c3.9,49.5,18.3,97.7,27.9,146.2c11.2,56.8,16.1,114.7,17.4,172.5c1.2,57.1-1.1,114.2-4,171.2
			c-0.3,6.8-0.7,13.5-1.1,20.3c-0.2,3.4-0.4,6.8-0.5,10.2c-0.1,1.2,0.6,8.5,0.4,8.7c-1,1.4-8.8,1.7-10.4,2
			c-13.3,2.6-26.6,5.2-40,7.8c-2.9,0.6-5.7,1.1-8.6,1.7c0.6,0.5,1.3,1,1.9,1.4c17.4-137.2,14.7-278.8-12.3-414.7
			c-4.8-23.9-13.2-51.6-37.3-62.4c-18.5-8.3-41.7-4.5-50.2,15.7c-5.2,12.4-4.5,26.8-4.9,40c-0.5,18.5-1,37-1.5,55.5
			c-1,35.9-2,71.7-2.9,107.6c-2.2,81-4.4,161.9-6.6,242.9c0.8-0.4,1.5-0.9,2.3-1.3c-17.7-9.1-37.5-11.2-56.8-5.9
			c0.6,0.5,1.3,1,1.9,1.4c-2.4-129-0.5-258.3-11.2-387.1c-3-35.8-7-71.6-12.2-107.2c-0.9,0.4-1.8,0.8-2.7,1.2
			c5,10.7-11.9,8-17.1,6.5c-5.1-1.6-10.1-3.6-14.8-6.2c-8.9-4.8-17-11.1-24-18.4c-14.5-15-24.2-33.7-30-53.6
			c-13.1-44.9-9.4-94.7-6.8-140.8c5.4-96,20.7-191.2,25.3-287.3c3.9-82.1-0.6-165.9-24.8-245c-11.6-37.9-27.8-74.4-49.5-107.6
			c-9.5-14.6-19.9-31.8-38-36.2c-9.1-2.2-18.6-1.6-27.8-2.7c-10.7-1.3-20.6-5.4-29-12.2c-15.4-12.5-25-31.1-32.6-49
			c-10.4-24.2-19.2-49.1-28.7-73.7c-9.5-24.5-22.4-50.3-23.7-76.9c-1.1-23.2,10.4-49.2,35.1-54.3c-0.6-0.5-1.3-1-1.9-1.4
			c-5.3,54,4.3,108.7,27,157.9c11.2,24.3,25.7,47.1,43,67.6c11.6,13.7,33.7,34.7,52,19.7c0.8-0.6,0.4-1.9-0.3-2.4
			c-87.1-56.7-85.7-172-79.5-263.7c0.8-11.7,0.9-24.3,5.9-35.2c2.7-5.7,6.6-10.6,12.4-13.4c5.1-2.5,20.4-5.6,21,3.6
			c0.2,3.2-3.4,10-4.4,13.1c-1.6,5.3-3.1,10.6-4.4,16c-2.4,10-4.2,20.1-5.6,30.3c-5.6,43.1-1.6,87.4,11.4,128.8
			c7,22.1,16.5,43.4,28.5,63.1c7.6,12.4,23.1,40.3,41.5,29.6c0.6-0.4,0.8-1,0.7-1.7c-13.5-67.4-12.2-137.2,3.7-204.1
			c3.9-16.2,8.6-32.3,14.2-48c2.5-7.1,4.7-15.4,8.4-21.9c4.6-8.1,18-6.6,25.9-4.8c3.2,0.7,8.6,1.9,10.7,4.1
			c3.1,3.3,0.3,7.2-1.4,11.1c-3.4,8-7.3,15.8-11.5,23.4C350,60,341.9,72.9,334.9,86.3c-14.6,27.8-21.6,57.4-20.5,88.7
			c1.1,33.1,9.6,65.5,19.7,96.9c5.1,15.9,10.7,31.7,16.3,47.5c5.5,15.6,10.5,32.2,17.9,47c3.7,7.3,11.4,10.8,18.6,6
			c9.6-6.5,13.8-21.2,17.3-31.6c19.2-57.6,7.7-123.5-29.8-171.2c-0.4,0.9-0.7,1.7-1.1,2.6c31.3,1.6,50.4,30.4,58.6,57.8
			c9.7,32.4,6.5,68.5,0.7,101.3c-12.1,68.5-40.6,134-43,204.1c-1.3,37.7,5.3,75.1,11.4,112.2c6.3,38.7,10.6,77.2,10.3,116.4
			c-0.6,76.9-14,153-21.2,229.4c-3.9,41-6.6,82.6-3.4,123.7c2.7,34.3,10.8,68.8,33.1,95.8c0.7,0.8,2.3,0.4,2.5-0.7
			c18.4-106.3,34.5-212.9,48.4-319.9c6.9-53.4,13.3-106.9,19.2-160.4c3-27.3,5.8-54.7,8.5-82.1c2.2-22.5,3.3-45.5,8.6-67.5
			c4.9-20.1,14.1-41.3,33.4-51.3c28.1-14.7,60.2,1.5,85.3,15c0.9,0.5,1.9,0,2.2-0.9c23.8-61.9,34.9-127.9,32.7-194.1
			c0-1-0.9-1.6-1.9-1.4c-46.6,9.3-100.6,18.8-145.6-2c-46-21.3-67.2-73.9-60.4-122.3c6-43.2,32-83.8,68.9-107.1
			c39.7-25,88.3-25.2,129.5-3.6c46.8,24.5,81,73.6,80.4,127.3C731.5,244,734.5,244,734.5,242.1z"/>
	</g>
</g>
<g id="eyes">
	<ellipse id="eye_1_" class="st1" cx="502" cy="244" rx="33" ry="91"/>
	<ellipse id="eye" class="st1" cx="620" cy="227" rx="69" ry="92"/>
	<g id="pupil">
		<g>
			<path d="M493.7,185.4c4.8,17,9.5,33.9,14.3,50.9c4.7,16.8,12,34.9,8.5,52.6c-0.4,1.9,2.5,2.7,2.9,0.8c3.3-17.1-2.9-34.1-7.5-50.4
				c-5.1-18.2-10.2-36.4-15.4-54.6C496,182.7,493.1,183.5,493.7,185.4L493.7,185.4z"/>
		</g>
	</g>
	<g id="pupil_1_">
		<g>
			<path d="M611.2,180.1c22.8,34.5,34.2,75.6,32.5,116.9c-0.1,1.9,2.9,1.9,3,0c1.7-41.8-9.9-83.5-32.9-118.4
				C612.7,177,610.1,178.5,611.2,180.1L611.2,180.1z"/>
		</g>
	</g>
</g>
</svg>
